<?xml version="1.0" encoding="UTF-8" standalone="no"?>
<svg
   xmlns:osb="http://www.openswatchbook.org/uri/2009/osb"
   xmlns:dc="http://purl.org/dc/elements/1.1/"
   xmlns:cc="http://creativecommons.org/ns#"
   xmlns:rdf="http://www.w3.org/1999/02/22-rdf-syntax-ns#"
   xmlns:svg="http://www.w3.org/2000/svg"
   xmlns="http://www.w3.org/2000/svg"
   xmlns:sodipodi="http://sodipodi.sourceforge.net/DTD/sodipodi-0.dtd"
   xmlns:inkscape="http://www.inkscape.org/namespaces/inkscape"
   height="622.93292"
   width="630.86322"
   viewBox="0 0 178.51349 176.26948"
   version="1.1"
   id="svg50"
   sodipodi:docname="celtic-swirl.svg"
   inkscape:version="0.92.5 (2060ec1f9f, 2020-04-08)">
  <metadata
     id="metadata56">
    <rdf:RDF>
      <cc:Work
         rdf:about="">
        <dc:format>image/svg+xml</dc:format>
        <dc:type
           rdf:resource="http://purl.org/dc/dcmitype/StillImage" />
      </cc:Work>
    </rdf:RDF>
  </metadata>
  <defs
     id="defs54">
    <linearGradient
       id="linearGradient2395"
       osb:paint="solid">
      <stop
         style="stop-color:#ffc800;stop-opacity:1;"
         offset="0"
         id="stop2393" />
    </linearGradient>
  </defs>
  <sodipodi:namedview
     pagecolor="#ffffff"
     bordercolor="#666666"
     borderopacity="1"
     objecttolerance="10"
     gridtolerance="10"
     guidetolerance="10"
     inkscape:pageopacity="0"
     inkscape:pageshadow="2"
     inkscape:window-width="1920"
     inkscape:window-height="1014"
     id="namedview52"
     showgrid="false"
     inkscape:zoom="1.0022655"
     inkscape:cx="315.68851"
     inkscape:cy="307.53535"
     inkscape:window-x="0"
     inkscape:window-y="0"
     inkscape:window-maximized="1"
     inkscape:current-layer="svg50" />
  <g
     style="fill:none;stroke:#d62531;stroke-opacity:1;stroke-width:2.82967029;stroke-miterlimit:4;stroke-dasharray:none"
     id="g30"
     transform="translate(-4.8985809,-4.980898)">
    <path
       inkscape:connector-curvature="0"
       id="path4"
       d="M 14.071,61.388 C 9.8005,71.734 6.9425,81.88 6.1732,94.228 3.9325,130.19 28.3992,162.06 60.0542,175.4 m 46.966,4.41 c 44.41,-4.47 75.26,-40.88 75.26,-85.582 0,-3.722 -0.23,-7.39 -0.68,-10.991 m -18.69,-42.639 c -15.31,-21.743 -39.99,-35.524 -68.682,-34.424 -19.972,0.7655 -38.421,6.663 -53.201,17.887"
       style="stroke:#d62531;stroke-opacity:1;stroke-width:2.82967029;stroke-miterlimit:4;stroke-dasharray:none" />
    <path
       inkscape:connector-curvature="0"
       id="path6"
       d="m 41.027,24.061 c 4.693,-1.162 9.386,-2.323 15.224,-1.916 5.838,0.408 12.82,2.385 18.161,5.717 5.34,3.331 9.039,8.018 11.526,12.934 2.487,4.915 3.762,10.059 3.73,14.969 -0.032,4.91 -1.371,9.587 -3.965,13.263 -2.595,3.677 -6.446,6.354 -9.793,7.949 -3.348,1.594 -6.194,2.105 -9.147,1.978 C 63.81,78.828 60.75,78.063 58.247,76.819 55.744,75.576 53.799,73.854 52.4,72.296 51.002,70.738 50.15,69.344 49.751,67.66 49.353,65.975 49.408,64 49.993,62.306 c 0.586,-1.694 1.702,-3.108 3.168,-3.687 1.467,-0.579 3.284,-0.324 4.615,0.355 1.332,0.678 2.176,1.781 2.551,3.048 0.375,1.268 0.279,2.7 0.81,4.075 0.532,1.375 1.69,2.693 3.994,3.482 2.304,0.789 5.752,1.05 8.784,-0.51 3.032,-1.56 5.646,-4.94 6.89,-8.022 1.243,-3.082 1.115,-5.866 0.621,-8.943 -0.494,-3.077 -1.355,-6.446 -3.331,-9.661 -1.977,-3.215 -5.07,-6.276 -8.293,-8.346 -3.223,-2.069 -6.575,-3.149 -10.129,-3.644 -3.555,-0.495 -7.31,-0.406 -10.69,0.12 -3.379,0.526 -6.383,1.489 -9.139,2.781 -2.757,1.293 -5.266,2.914 -7.893,4.919 -2.627,2.005 -5.372,4.395 -7.788,6.977 -2.417,2.583 -4.505,5.359 -6.132,8.081 -1.627,2.721 -2.793,5.389 -3.96,8.057"
       style="stroke:#d62531;stroke-opacity:1;stroke-width:2.82967029;stroke-miterlimit:4;stroke-dasharray:none" />
    <path
       inkscape:connector-curvature="0"
       id="path8"
       d="m 60.054,175.4 c -3.35,-3.49 -6.7,-6.98 -9.264,-12.24 -2.565,-5.26 -4.344,-12.3 -4.129,-18.59 0.215,-6.29 2.425,-11.84 5.438,-16.45 3.014,-4.61 6.831,-8.28 11.099,-10.71 4.268,-2.43 8.988,-3.61 13.469,-3.2 4.482,0.41 8.726,2.41 11.78,4.51 3.054,2.1 4.92,4.31 6.287,6.93 1.366,2.62 2.234,5.65 2.408,8.44 0.175,2.79 -0.344,5.34 -0.994,7.33 -0.65,1.99 -1.431,3.42 -2.69,4.61 -1.26,1.19 -2.998,2.13 -4.758,2.47 -1.76,0.34 -3.542,0.08 -4.777,-0.9 -1.235,-0.98 -1.923,-2.68 -2,-4.18 -0.078,-1.49 0.454,-2.77 1.365,-3.73 0.91,-0.96 2.198,-1.59 3.123,-2.74 0.925,-1.15 1.487,-2.81 1.019,-5.2 -0.468,-2.39 -1.967,-5.51 -4.834,-7.35 -2.866,-1.85 -7.101,-2.42 -10.391,-1.96 -3.291,0.47 -5.639,1.97 -8.057,3.94 -2.417,1.96 -4.904,4.39 -6.7,7.71 -1.796,3.32 -2.9,7.53 -3.082,11.36 -0.181,3.82 0.561,7.27 1.909,10.59 1.348,3.33 3.303,6.53 5.449,9.2 2.145,2.66 4.481,4.78 7.093,6.57 2.612,1.78 5.501,3.23 8.849,4.46 3.348,1.24 7.157,2.26 10.659,2.9 3.503,0.64 6.7,0.9 9.765,0.94 3.06,0.05 6,-0.13 8.93,-0.3"
       style="stroke:#d62531;stroke-opacity:1;stroke-width:2.82967029;stroke-miterlimit:4;stroke-dasharray:none" />
    <path
       inkscape:connector-curvature="0"
       id="path10"
       d="m 181.6,83.237 c -1.34,4.645 -2.68,9.291 -5.96,14.143 -3.27,4.85 -8.47,9.91 -14.03,12.87 -5.55,2.96 -11.46,3.82 -16.96,3.51 -5.5,-0.3 -10.6,-1.77 -14.83,-4.25 -4.24,-2.48 -7.62,-5.98 -9.51,-10.066 -1.88,-4.085 -2.28,-8.758 -1.98,-12.455 0.29,-3.696 1.27,-6.416 2.86,-8.91 1.58,-2.494 3.78,-4.762 6.1,-6.308 2.33,-1.546 4.8,-2.369 6.85,-2.801 2.04,-0.432 3.68,-0.473 5.33,0.024 1.66,0.497 3.35,1.532 4.52,2.886 1.18,1.354 1.84,3.028 1.61,4.587 -0.23,1.56 -1.36,3.006 -2.62,3.82 -1.25,0.813 -2.63,0.994 -3.91,0.684 -1.29,-0.309 -2.48,-1.108 -3.93,-1.335 -1.46,-0.227 -3.18,0.117 -5.02,1.717 -1.83,1.601 -3.78,4.457 -3.95,7.863 -0.16,3.405 1.46,7.359 3.5,9.977 2.05,2.617 4.53,3.897 7.44,5.007 2.91,1.11 6.26,2.05 10.03,1.95 3.77,-0.11 7.97,-1.25 11.38,-3.01 3.4,-1.76 6.01,-4.12 8.22,-6.951 2.2,-2.83 4,-6.127 5.24,-9.317 1.23,-3.19 1.9,-6.273 2.16,-9.306 0.26,-3.033 0.11,-6.016 -0.49,-9.677 -0.59,-3.66 -1.63,-7.997 -2.88,-11.739 -1.26,-3.742 -2.72,-6.888 -4.06,-9.381 -1.35,-2.493 -2.58,-4.332 -3.8,-6.171"
       style="stroke:#d62531;stroke-opacity:1;stroke-width:2.82967029;stroke-miterlimit:4;stroke-dasharray:none" />
    <path
       inkscape:connector-curvature="0"
       id="path12"
       d="m 62.95,16.272 c 5.452,-1.594 10.904,-3.189 16.053,-4.321 5.149,-1.131 9.996,-1.801 15.671,-1.689 5.676,0.111 12.176,1.004 18.026,2.375 5.86,1.371 11.05,3.22 15.61,5.436 4.56,2.216 8.48,4.799 12.56,8.099 4.08,3.3 8.33,7.317 11.77,11.191 3.44,3.874 6.09,7.604 8.4,11.781 2.31,4.177 4.29,8.8 5.53,13.248 1.25,4.448 1.76,8.72 1.79,12.686 0.04,3.965 -0.4,7.624 -1.88,11.227 -1.49,3.603 -4.01,7.15 -7.22,9.736 -3.21,2.587 -7.11,4.209 -10.38,4.879 -3.27,0.67 -5.91,0.39 -8.4,-0.55 -2.49,-0.945 -4.84,-2.539 -6.52,-3.982 -1.69,-1.443 -2.73,-2.734 -3.03,-4.663 -0.29,-1.929 0.16,-4.496 1.87,-5.532 1.71,-1.036 4.69,-0.542 6.24,0.734 1.55,1.275 1.66,3.331 2.85,4.838 1.18,1.506 3.45,2.463 5.93,2.45 2.49,-0.014 5.19,-0.997 7.61,-3.261 2.43,-2.264 4.57,-5.809 5.67,-9.419 1.09,-3.61 1.15,-7.286 0.48,-10.486 -0.66,-3.201 -2.05,-5.926 -3.84,-8.251 -1.8,-2.325 -4,-4.249 -6.76,-5.927 -2.76,-1.677 -6.08,-3.108 -9.88,-4.046 -3.8,-0.939 -8.07,-1.385 -12.31,-1.13 -4.24,0.255 -8.45,1.211 -12.61,3.026 -4.16,1.815 -8.26,4.488 -11.47,7.788 -3.2,3.3 -5.503,7.227 -8.854,11.295 -3.35,4.067 -7.75,8.276 -11.688,10.779 -3.937,2.503 -7.413,3.3 -10.782,3.858 -3.369,0.558 -6.632,0.877 -10.039,0.717 -3.407,-0.159 -6.959,-0.797 -10.125,-2.2 -3.166,-1.403 -5.948,-3.571 -8.279,-6.616 -2.332,-3.044 -4.215,-6.966 -4.949,-10.744 -0.734,-3.779 -0.32,-7.413 0.127,-9.964 0.446,-2.551 0.924,-4.018 1.992,-5.803 1.069,-1.786 2.726,-3.89 4.576,-5.452 1.849,-1.562 3.89,-2.583 6.042,-2.981 2.152,-0.399 4.416,-0.176 6.217,0.398 1.802,0.574 3.141,1.499 4.081,2.455 0.941,0.957 1.483,1.945 1.706,2.902 0.223,0.956 0.128,1.881 -0.303,2.726 -0.43,0.845 -1.196,1.61 -2.088,1.977 -0.893,0.366 -1.913,0.334 -3.252,-0.16 -1.34,-0.494 -2.998,-1.451 -4.416,-1.913 -1.419,-0.462 -2.599,-0.43 -3.795,0.239 -1.195,0.67 -2.407,1.977 -3.236,3.667 -0.829,1.69 -1.275,3.762 -1.466,5.851 -0.192,2.088 -0.128,4.192 0.494,6.376 0.622,2.184 1.801,4.448 3.077,6.154 1.275,1.706 2.646,2.854 4.479,3.874 1.834,1.02 4.129,1.913 6.693,2.41 2.564,0.497 5.397,0.598 8.282,0.406 2.886,-0.191 5.824,-0.675 8.667,-1.78 2.843,-1.105 5.591,-2.832 8.014,-5.16 2.423,-2.327 4.522,-5.255 6.05,-8.425 1.527,-3.17 2.484,-6.581 2.564,-10.439 0.079,-3.858 -0.718,-8.163 -2.073,-11.957 -1.355,-3.794 -3.268,-7.078 -5.643,-10.378 -2.376,-3.3 -5.213,-6.616 -8.131,-9.167 -2.917,-2.55 -5.914,-4.336 -8.545,-5.739 -2.63,-1.403 -4.894,-2.423 -7.157,-3.443 z"
       style="stroke:#d62531;stroke-opacity:1;stroke-width:2.82967029;stroke-miterlimit:4;stroke-dasharray:none" />
    <path
       inkscape:connector-curvature="0"
       id="path14"
       d="m 42.355,160.29 c -4.106,-3.92 -8.213,-7.85 -11.768,-11.74 -3.555,-3.89 -6.558,-7.75 -9.299,-12.73 -2.741,-4.97 -5.22,-11.05 -6.958,-16.8 -1.738,-5.75 -2.735,-11.18 -3.096,-16.23 -0.36,-5.059 -0.085,-9.746 0.733,-14.931 0.817,-5.184 2.176,-10.865 3.809,-15.784 1.633,-4.919 3.541,-9.076 6.002,-13.167 2.461,-4.09 5.477,-8.114 8.707,-11.414 3.23,-3.301 6.675,-5.879 10.091,-7.893 3.417,-2.014 6.805,-3.463 10.666,-3.981 3.861,-0.517 8.197,-0.103 12.042,1.385 3.846,1.487 7.202,4.048 9.416,6.543 2.213,2.495 3.285,4.926 3.717,7.555 0.432,2.629 0.223,5.455 -0.182,7.64 -0.404,2.185 -1.005,3.728 -2.528,4.948 -1.523,1.22 -3.969,2.116 -5.723,1.15 -1.754,-0.966 -2.817,-3.795 -2.485,-5.771 0.331,-1.977 2.056,-3.102 2.767,-4.884 0.711,-1.782 0.407,-4.221 -0.846,-6.365 -1.254,-2.145 -3.458,-3.996 -6.63,-4.963 -3.172,-0.966 -7.314,-1.048 -10.989,-0.194 -3.676,0.854 -6.886,2.645 -9.324,4.822 -2.439,2.177 -4.106,4.74 -5.223,7.456 -1.117,2.716 -1.683,5.584 -1.755,8.814 -0.072,3.23 0.351,6.823 1.437,10.581 1.085,3.758 2.835,7.681 5.176,11.226 2.341,3.545 5.274,6.711 8.925,9.405 3.651,2.694 8.019,4.915 12.479,6.042 4.46,1.12 9.012,1.15 14.21,2.02 5.198,0.87 11.043,2.57 15.179,4.73 4.137,2.16 6.565,4.77 8.732,7.41 2.173,2.64 4.073,5.31 5.643,8.34 1.56,3.03 2.79,6.42 3.16,9.86 0.36,3.45 -0.12,6.94 -1.59,10.48 -1.48,3.54 -3.93,7.14 -6.84,9.66 -2.9,2.53 -6.255,3.98 -8.688,4.87 -2.432,0.89 -3.941,1.21 -6.022,1.18 -2.08,-0.03 -4.731,-0.42 -7.009,-1.24 -2.277,-0.82 -4.181,-2.08 -5.603,-3.74 -1.421,-1.66 -2.359,-3.74 -2.763,-5.58 -0.404,-1.85 -0.273,-3.47 0.085,-4.77 0.358,-1.29 0.944,-2.25 1.66,-2.92 0.717,-0.67 1.566,-1.05 2.513,-1.1 0.946,-0.05 1.992,0.23 2.756,0.82 0.764,0.59 1.246,1.49 1.488,2.89 0.241,1.41 0.242,3.32 0.551,4.78 0.309,1.46 0.926,2.47 2.104,3.17 1.178,0.7 2.916,1.1 4.794,0.97 1.878,-0.13 3.896,-0.78 5.8,-1.66 1.904,-0.87 3.695,-1.98 5.275,-3.61 1.581,-1.63 2.951,-3.79 3.789,-5.74 0.84,-1.96 1.15,-3.72 1.12,-5.82 -0.04,-2.1 -0.41,-4.53 -1.26,-7 -0.854,-2.47 -2.183,-4.97 -3.791,-7.38 -1.609,-2.4 -3.497,-4.7 -5.875,-6.61 -2.379,-1.91 -5.249,-3.43 -8.476,-4.36 -3.227,-0.94 -6.812,-1.29 -10.321,-1.03 -3.509,0.26 -6.942,1.14 -10.323,3 -3.381,1.86 -6.71,4.7 -9.318,7.77 -2.609,3.07 -4.496,6.37 -6.167,10.08 -1.67,3.71 -3.123,7.82 -3.873,11.62 -0.75,3.81 -0.798,7.29 -0.698,10.27 0.101,2.98 0.349,5.45 0.597,7.92 z"
       style="stroke:#d62531;stroke-opacity:1;stroke-width:2.82967029;stroke-miterlimit:4;stroke-dasharray:none" />
    <path
       inkscape:connector-curvature="0"
       id="path16"
       d="m 177.38,106.12 c -1.35,5.52 -2.69,11.04 -4.29,16.06 -1.59,5.03 -3.43,9.56 -6.37,14.42 -2.93,4.86 -6.96,10.04 -11.07,14.42 -4.11,4.39 -8.31,7.96 -12.51,10.8 -4.2,2.84 -8.4,4.95 -13.3,6.83 -4.9,1.89 -10.49,3.55 -15.57,4.6 -5.08,1.04 -9.63,1.47 -14.405,1.38 -4.773,-0.09 -9.765,-0.69 -14.239,-1.83 -4.474,-1.15 -8.429,-2.84 -11.881,-4.8 -3.452,-1.95 -6.401,-4.16 -8.78,-7.24 -2.379,-3.09 -4.188,-7.05 -4.822,-11.12 -0.635,-4.08 -0.095,-8.26 0.959,-11.43 1.054,-3.16 2.623,-5.31 4.684,-7 2.06,-1.68 4.613,-2.92 6.707,-3.66 2.095,-0.74 3.731,-0.99 5.549,-0.28 1.818,0.71 3.818,2.38 3.858,4.38 0.041,2 -1.878,4.34 -3.756,5.04 -1.877,0.7 -3.714,-0.23 -5.613,0.04 -1.898,0.28 -3.858,1.76 -5.089,3.92 -1.231,2.16 -1.732,4.99 -0.983,8.22 0.75,3.23 2.749,6.86 5.327,9.61 2.577,2.76 5.733,4.65 8.838,5.67 3.104,1.02 6.158,1.18 9.068,0.79 2.91,-0.39 5.677,-1.33 8.51,-2.88 2.838,-1.56 5.738,-3.72 8.448,-6.54 2.71,-2.82 5.23,-6.29 7.13,-10.09 1.9,-3.8 3.18,-7.93 3.68,-12.44 0.51,-4.5 0.25,-9.4 -1.01,-13.82 -1.25,-4.43 -3.5,-8.38 -5.35,-13.32 -1.85,-4.94 -3.29,-10.85 -3.49,-15.512 -0.2,-4.661 0.85,-8.07 2.05,-11.266 1.2,-3.197 2.56,-6.182 4.4,-9.053 1.84,-2.871 4.17,-5.628 6.97,-7.668 2.79,-2.041 6.06,-3.366 9.87,-3.863 3.8,-0.497 8.14,-0.167 11.77,1.087 3.64,1.253 6.58,3.43 8.57,5.092 1.99,1.661 3.02,2.809 4.03,4.627 1.01,1.817 2.01,4.306 2.43,6.688 0.43,2.383 0.3,4.66 -0.44,6.723 -0.73,2.063 -2.05,3.912 -3.45,5.185 -1.4,1.273 -2.87,1.971 -4.17,2.307 -1.29,0.336 -2.42,0.312 -3.36,0.027 -0.94,-0.285 -1.69,-0.83 -2.21,-1.626 -0.52,-0.795 -0.8,-1.84 -0.67,-2.797 0.13,-0.956 0.67,-1.824 1.77,-2.736 1.09,-0.913 2.75,-1.87 3.86,-2.868 1.11,-0.998 1.67,-2.035 1.69,-3.406 0.02,-1.37 -0.51,-3.073 -1.56,-4.635 -1.05,-1.563 -2.62,-2.986 -4.33,-4.196 -1.71,-1.21 -3.57,-2.207 -5.77,-2.76 -2.2,-0.554 -4.75,-0.664 -6.87,-0.413 -2.11,0.252 -3.79,0.865 -5.59,1.943 -1.8,1.077 -3.72,2.619 -5.44,4.591 -1.71,1.972 -3.21,4.375 -4.49,6.969 -1.28,2.595 -2.33,5.382 -2.79,8.396 -0.47,3.015 -0.34,6.258 0.46,9.52 0.8,3.262 2.29,6.544 4.27,9.454 1.98,2.91 4.46,5.44 7.76,7.44 3.3,2 7.43,3.46 11.39,4.18 3.97,0.73 7.77,0.71 11.81,0.3 4.05,-0.4 8.34,-1.2 12,-2.45 3.67,-1.26 6.72,-2.96 9.25,-4.53 2.53,-1.58 4.54,-3.03 6.56,-4.48 z"
       style="stroke:#d62531;stroke-opacity:1;stroke-width:2.82967029;stroke-miterlimit:4;stroke-dasharray:none" />
    <path
       inkscape:connector-curvature="0"
       id="path18"
       d="m 80.74,18.28 c 2.551,2.073 5.102,4.145 7.589,7.111 2.487,2.965 4.91,6.823 6.679,10.426 1.77,3.602 2.886,6.95 3.635,9.979 0.749,3.029 1.132,5.739 1.276,7.987 0.141,2.248 0.047,4.033 -0.048,5.819 1.979,-2.328 3.949,-4.655 6.789,-6.632 2.84,-1.977 6.54,-3.603 10.62,-4.735 4.08,-1.132 8.54,-1.769 12.63,-1.865 4.08,-0.095 7.78,0.351 11.06,1.068 3.28,0.718 6.15,1.706 8.69,2.95 2.53,1.243 4.73,2.742 6.93,4.24 -1.62,-2.838 -3.25,-5.675 -5.66,-8.975 -2.4,-3.3 -5.59,-7.063 -9.71,-10.713 -4.11,-3.651 -9.15,-7.19 -15.11,-10.187 -5.96,-2.997 -12.85,-5.452 -19.05,-6.871 -6.2,-1.419 -11.717,-1.802 -15.989,-1.562 -4.273,0.239 -7.302,1.1 -10.331,1.96 z"
       style="stroke:#d62531;stroke-opacity:1;stroke-width:2.82967029;stroke-miterlimit:4;stroke-dasharray:none" />
    <path
       inkscape:connector-curvature="0"
       id="path20"
       d="m 35.199,143.88 c 0.52,-3.24 1.039,-6.49 2.364,-10.13 1.324,-3.63 3.453,-7.66 5.689,-10.99 2.235,-3.34 4.577,-5.98 6.825,-8.14 2.249,-2.16 4.404,-3.85 6.279,-5.1 1.875,-1.25 3.469,-2.06 5.064,-2.87 -3.005,-0.54 -6.009,-1.09 -9.14,-2.56 -3.13,-1.47 -6.388,-3.86 -9.409,-6.83 -3.02,-2.968 -5.805,-6.515 -7.928,-10.002 -2.123,-3.486 -3.586,-6.912 -4.607,-10.115 -1.021,-3.203 -1.599,-6.182 -1.79,-8.999 -0.19,-2.817 0.007,-5.472 0.205,-8.126 -1.644,2.827 -3.289,5.654 -4.943,9.389 -1.654,3.735 -3.318,8.377 -4.423,13.764 -1.105,5.388 -1.652,11.52 -1.266,18.179 0.386,6.67 1.703,13.86 3.575,19.94 1.872,6.08 4.298,11.05 6.642,14.63 2.343,3.58 4.603,5.77 6.863,7.96 z"
       style="stroke:#d62531;stroke-opacity:1;stroke-width:2.82967029;stroke-miterlimit:4;stroke-dasharray:none" />
    <path
       inkscape:connector-curvature="0"
       id="path22"
       d="m 166.74,120.52 c -3.07,1.17 -6.14,2.35 -9.95,3.02 -3.81,0.67 -8.36,0.84 -12.37,0.57 -4,-0.27 -7.46,-0.98 -10.46,-1.84 -2.99,-0.87 -5.53,-1.89 -7.55,-2.89 -2.02,-1 -3.52,-1.98 -5.02,-2.95 1.03,2.87 2.06,5.75 2.35,9.19 0.29,3.45 -0.15,7.47 -1.21,11.57 -1.06,4.1 -2.74,8.28 -4.7,11.86 -1.95,3.59 -4.19,6.57 -6.45,9.05 -2.27,2.49 -4.56,4.48 -6.9,6.05 -2.34,1.57 -4.742,2.73 -7.14,3.89 3.27,0.01 6.54,0.02 10.6,-0.42 4.06,-0.43 8.92,-1.31 14.13,-3.05 5.22,-1.73 10.81,-4.33 16.38,-7.99 5.58,-3.67 11.15,-8.4 15.48,-13.07 4.33,-4.66 7.42,-9.24 9.35,-13.06 1.93,-3.82 2.69,-6.88 3.46,-9.93 z"
       style="stroke:#d62531;stroke-opacity:1;stroke-width:2.82967029;stroke-miterlimit:4;stroke-dasharray:none" />
    <path
       inkscape:connector-curvature="0"
       id="path24"
       d="m 106.9,68.976 c -1.55,2.143 -3.1,4.286 -4.38,5.969 -1.29,1.683 -2.31,2.907 -3.293,4.051 -0.988,1.145 -1.941,2.21 -3.201,3.412 -1.26,1.202 -2.825,2.54 -3.274,4.148 -0.448,1.607 0.22,3.485 1.477,4.555 1.256,1.069 3.102,1.332 4.474,0.791 1.367,-0.541 2.267,-1.885 2.767,-3.15 0.49,-1.266 0.59,-2.452 0.74,-3.697 0.16,-1.245 0.39,-2.548 0.76,-4.198 0.38,-1.65 0.9,-3.647 1.58,-5.684 0.68,-2.038 1.51,-4.118 2.35,-6.197 z"
       style="stroke:#d62531;stroke-opacity:1;stroke-width:2.82967029;stroke-miterlimit:4;stroke-dasharray:none" />
    <path
       inkscape:connector-curvature="0"
       id="path26"
       d="m 66.022,95.878 c 2.63,0.27 5.261,0.54 7.361,0.811 2.1,0.271 3.67,0.543 5.154,0.825 1.485,0.283 2.885,0.576 4.555,1.066 1.671,0.49 3.612,1.177 5.229,0.762 1.617,-0.416 2.908,-1.933 3.206,-3.556 0.299,-1.624 -0.397,-3.353 -1.551,-4.271 -1.155,-0.918 -2.769,-1.024 -4.112,-0.82 -1.343,0.204 -2.416,0.718 -3.574,1.203 -1.157,0.484 -2.399,0.939 -4.015,1.441 -1.616,0.501 -3.606,1.048 -5.71,1.479 -2.104,0.431 -4.324,0.746 -6.543,1.06 z"
       style="stroke:#d62531;stroke-opacity:1;stroke-width:2.82967029;stroke-miterlimit:4;stroke-dasharray:none" />
    <path
       inkscape:connector-curvature="0"
       id="path28"
       d="m 109.76,117.83 c -1.08,-2.41 -2.16,-4.83 -2.98,-6.78 -0.81,-1.95 -1.36,-3.45 -1.86,-4.88 -0.5,-1.42 -0.94,-2.78 -1.35,-4.47 -0.42,-1.7 -0.79,-3.721 -1.96,-4.913 -1.17,-1.192 -3.128,-1.553 -4.683,-0.999 -1.555,0.553 -2.705,2.02 -2.922,3.479 -0.218,1.463 0.497,2.913 1.345,3.973 0.848,1.06 1.83,1.73 2.829,2.49 0.998,0.76 2.011,1.61 3.251,2.76 1.25,1.15 2.72,2.6 4.14,4.2 1.43,1.61 2.81,3.38 4.19,5.14 z"
       style="stroke:#d62531;stroke-opacity:1;stroke-width:2.82967029;stroke-miterlimit:4;stroke-dasharray:none" />
  </g>
</svg>
