<?xml version="1.0"?>
<svg xmlns="http://www.w3.org/2000/svg" height="666" width="666" viewBox="0 0 188.456044 188.4560439">
<g stroke-linejoin="round" stroke="#000" stroke-linecap="round" fill="none">
<circle stroke-width="0.02" cy="15.785" cx="12.332" r="9.3387"/>
<g stroke-width=".2">
<path d="m14.071 61.388c-4.2705 10.346-7.1285 20.492-7.8978 32.84-2.2407 35.962 22.226 67.832 53.881 81.172m46.966 4.41c44.41-4.47 75.26-40.88 75.26-85.582 0-3.722-0.23-7.39-0.68-10.991m-18.69-42.639c-15.31-21.743-39.99-35.524-68.682-34.424-19.972 0.7655-38.421 6.663-53.201 17.887"/>
<path d="m41.027 24.061c4.693-1.162 9.386-2.323 15.224-1.916 5.838 0.408 12.82 2.385 18.161 5.717 5.34 3.331 9.039 8.018 11.526 12.934 2.487 4.915 3.762 10.059 3.73 14.969s-1.371 9.587-3.965 13.263c-2.595 3.677-6.446 6.354-9.793 7.949-3.348 1.594-6.194 2.105-9.147 1.978s-6.013-0.892-8.516-2.136c-2.503-1.243-4.448-2.965-5.847-4.523-1.398-1.558-2.25-2.952-2.649-4.636-0.398-1.685-0.343-3.66 0.242-5.354 0.586-1.694 1.702-3.108 3.168-3.687 1.467-0.579 3.284-0.324 4.615 0.355 1.332 0.678 2.176 1.781 2.551 3.048 0.375 1.268 0.279 2.7 0.81 4.075 0.532 1.375 1.69 2.693 3.994 3.482s5.752 1.05 8.784-0.51 5.646-4.94 6.89-8.022c1.243-3.082 1.115-5.866 0.621-8.943s-1.355-6.446-3.331-9.661c-1.977-3.215-5.07-6.276-8.293-8.346-3.223-2.069-6.575-3.149-10.129-3.644-3.555-0.495-7.31-0.406-10.69 0.12-3.379 0.526-6.383 1.489-9.139 2.781-2.757 1.293-5.266 2.914-7.893 4.919s-5.372 4.395-7.788 6.977c-2.417 2.583-4.505 5.359-6.132 8.081-1.627 2.721-2.793 5.389-3.96 8.057"/>
<path d="m60.054 175.4c-3.35-3.49-6.7-6.98-9.264-12.24-2.565-5.26-4.344-12.3-4.129-18.59s2.425-11.84 5.438-16.45c3.014-4.61 6.831-8.28 11.099-10.71s8.988-3.61 13.469-3.2c4.482 0.41 8.726 2.41 11.78 4.51s4.92 4.31 6.287 6.93c1.366 2.62 2.234 5.65 2.408 8.44 0.175 2.79-0.344 5.34-0.994 7.33s-1.431 3.42-2.69 4.61c-1.26 1.19-2.998 2.13-4.758 2.47s-3.542 0.08-4.777-0.9-1.923-2.68-2-4.18c-0.078-1.49 0.454-2.77 1.365-3.73 0.91-0.96 2.198-1.59 3.123-2.74s1.487-2.81 1.019-5.2-1.967-5.51-4.834-7.35c-2.866-1.85-7.101-2.42-10.391-1.96-3.291 0.47-5.639 1.97-8.057 3.94-2.417 1.96-4.904 4.39-6.7 7.71s-2.9 7.53-3.082 11.36c-0.181 3.82 0.561 7.27 1.909 10.59 1.348 3.33 3.303 6.53 5.449 9.2 2.145 2.66 4.481 4.78 7.093 6.57 2.612 1.78 5.501 3.23 8.849 4.46 3.348 1.24 7.157 2.26 10.659 2.9 3.503 0.64 6.7 0.9 9.765 0.94 3.06 0.05 6-0.13 8.93-0.3"/>
<path d="m181.6 83.237c-1.34 4.645-2.68 9.291-5.96 14.143-3.27 4.85-8.47 9.91-14.03 12.87-5.55 2.96-11.46 3.82-16.96 3.51-5.5-0.3-10.6-1.77-14.83-4.25-4.24-2.48-7.62-5.98-9.51-10.066-1.88-4.085-2.28-8.758-1.98-12.455 0.29-3.696 1.27-6.416 2.86-8.91 1.58-2.494 3.78-4.762 6.1-6.308 2.33-1.546 4.8-2.369 6.85-2.801 2.04-0.432 3.68-0.473 5.33 0.024 1.66 0.497 3.35 1.532 4.52 2.886 1.18 1.354 1.84 3.028 1.61 4.587-0.23 1.56-1.36 3.006-2.62 3.82-1.25 0.813-2.63 0.994-3.91 0.684-1.29-0.309-2.48-1.108-3.93-1.335-1.46-0.227-3.18 0.117-5.02 1.717-1.83 1.601-3.78 4.457-3.95 7.863-0.16 3.405 1.46 7.359 3.5 9.977 2.05 2.617 4.53 3.897 7.44 5.007s6.26 2.05 10.03 1.95c3.77-0.11 7.97-1.25 11.38-3.01 3.4-1.76 6.01-4.12 8.22-6.951 2.2-2.83 4-6.127 5.24-9.317 1.23-3.19 1.9-6.273 2.16-9.306s0.11-6.016-0.49-9.677c-0.59-3.66-1.63-7.997-2.88-11.739-1.26-3.742-2.72-6.888-4.06-9.381-1.35-2.493-2.58-4.332-3.8-6.171"/>
<path d="m62.95 16.272c5.452-1.594 10.904-3.189 16.053-4.321 5.149-1.131 9.996-1.801 15.671-1.689 5.676 0.111 12.176 1.004 18.026 2.375 5.86 1.371 11.05 3.22 15.61 5.436s8.48 4.799 12.56 8.099 8.33 7.317 11.77 11.191 6.09 7.604 8.4 11.781 4.29 8.8 5.53 13.248c1.25 4.448 1.76 8.72 1.79 12.686 0.04 3.965-0.4 7.624-1.88 11.227-1.49 3.603-4.01 7.15-7.22 9.736-3.21 2.587-7.11 4.209-10.38 4.879s-5.91 0.39-8.4-0.55c-2.49-0.945-4.84-2.539-6.52-3.982-1.69-1.443-2.73-2.734-3.03-4.663-0.29-1.929 0.16-4.496 1.87-5.532s4.69-0.542 6.24 0.734c1.55 1.275 1.66 3.331 2.85 4.838 1.18 1.506 3.45 2.463 5.93 2.45 2.49-0.014 5.19-0.997 7.61-3.261 2.43-2.264 4.57-5.809 5.67-9.419 1.09-3.61 1.15-7.286 0.48-10.486-0.66-3.201-2.05-5.926-3.84-8.251-1.8-2.325-4-4.249-6.76-5.927-2.76-1.677-6.08-3.108-9.88-4.046-3.8-0.939-8.07-1.385-12.31-1.13s-8.45 1.211-12.61 3.026-8.26 4.488-11.47 7.788c-3.2 3.3-5.503 7.227-8.854 11.295-3.35 4.067-7.75 8.276-11.688 10.779-3.937 2.503-7.413 3.3-10.782 3.858s-6.632 0.877-10.039 0.717c-3.407-0.159-6.959-0.797-10.125-2.2s-5.948-3.571-8.279-6.616c-2.332-3.044-4.215-6.966-4.949-10.744-0.734-3.779-0.32-7.413 0.127-9.964 0.446-2.551 0.924-4.018 1.992-5.803 1.069-1.786 2.726-3.89 4.576-5.452 1.849-1.562 3.89-2.583 6.042-2.981 2.152-0.399 4.416-0.176 6.217 0.398 1.802 0.574 3.141 1.499 4.081 2.455 0.941 0.957 1.483 1.945 1.706 2.902 0.223 0.956 0.128 1.881-0.303 2.726-0.43 0.845-1.196 1.61-2.088 1.977-0.893 0.366-1.913 0.334-3.252-0.16-1.34-0.494-2.998-1.451-4.416-1.913-1.419-0.462-2.599-0.43-3.795 0.239-1.195 0.67-2.407 1.977-3.236 3.667s-1.275 3.762-1.466 5.851c-0.192 2.088-0.128 4.192 0.494 6.376s1.801 4.448 3.077 6.154c1.275 1.706 2.646 2.854 4.479 3.874 1.834 1.02 4.129 1.913 6.693 2.41s5.397 0.598 8.282 0.406c2.886-0.191 5.824-0.675 8.667-1.78s5.591-2.832 8.014-5.16c2.423-2.327 4.522-5.255 6.05-8.425 1.527-3.17 2.484-6.581 2.564-10.439 0.079-3.858-0.718-8.163-2.073-11.957s-3.268-7.078-5.643-10.378c-2.376-3.3-5.213-6.616-8.131-9.167-2.917-2.55-5.914-4.336-8.545-5.739-2.63-1.403-4.894-2.423-7.157-3.443z"/>
<path d="m42.355 160.29c-4.106-3.92-8.213-7.85-11.768-11.74s-6.558-7.75-9.299-12.73c-2.741-4.97-5.22-11.05-6.958-16.8s-2.735-11.18-3.096-16.23c-0.36-5.059-0.085-9.746 0.733-14.931 0.817-5.184 2.176-10.865 3.809-15.784s3.541-9.076 6.002-13.167c2.461-4.09 5.477-8.114 8.707-11.414 3.23-3.301 6.675-5.879 10.091-7.893 3.417-2.014 6.805-3.463 10.666-3.981 3.861-0.517 8.197-0.103 12.042 1.385 3.846 1.487 7.202 4.048 9.416 6.543 2.213 2.495 3.285 4.926 3.717 7.555s0.223 5.455-0.182 7.64c-0.404 2.185-1.005 3.728-2.528 4.948s-3.969 2.116-5.723 1.15-2.817-3.795-2.485-5.771c0.331-1.977 2.056-3.102 2.767-4.884s0.407-4.221-0.846-6.365c-1.254-2.145-3.458-3.996-6.63-4.963-3.172-0.966-7.314-1.048-10.989-0.194-3.676 0.854-6.886 2.645-9.324 4.822-2.439 2.177-4.106 4.74-5.223 7.456s-1.683 5.584-1.755 8.814 0.351 6.823 1.437 10.581c1.085 3.758 2.835 7.681 5.176 11.226s5.274 6.711 8.925 9.405 8.019 4.915 12.479 6.042c4.46 1.12 9.012 1.15 14.21 2.02s11.043 2.57 15.179 4.73c4.137 2.16 6.565 4.77 8.732 7.41 2.173 2.64 4.073 5.31 5.643 8.34 1.56 3.03 2.79 6.42 3.16 9.86 0.36 3.45-0.12 6.94-1.59 10.48-1.48 3.54-3.93 7.14-6.84 9.66-2.9 2.53-6.255 3.98-8.688 4.87-2.432 0.89-3.941 1.21-6.022 1.18-2.08-0.03-4.731-0.42-7.009-1.24-2.277-0.82-4.181-2.08-5.603-3.74-1.421-1.66-2.359-3.74-2.763-5.58-0.404-1.85-0.273-3.47 0.085-4.77 0.358-1.29 0.944-2.25 1.66-2.92 0.717-0.67 1.566-1.05 2.513-1.1 0.946-0.05 1.992 0.23 2.756 0.82s1.246 1.49 1.488 2.89c0.241 1.41 0.242 3.32 0.551 4.78s0.926 2.47 2.104 3.17 2.916 1.1 4.794 0.97 3.896-0.78 5.8-1.66c1.904-0.87 3.695-1.98 5.275-3.61 1.581-1.63 2.951-3.79 3.789-5.74 0.84-1.96 1.15-3.72 1.12-5.82-0.04-2.1-0.41-4.53-1.26-7-0.854-2.47-2.183-4.97-3.791-7.38-1.609-2.4-3.497-4.7-5.875-6.61-2.379-1.91-5.249-3.43-8.476-4.36-3.227-0.94-6.812-1.29-10.321-1.03s-6.942 1.14-10.323 3-6.71 4.7-9.318 7.77c-2.609 3.07-4.496 6.37-6.167 10.08-1.67 3.71-3.123 7.82-3.873 11.62-0.75 3.81-0.798 7.29-0.698 10.27 0.101 2.98 0.349 5.45 0.597 7.92z"/>
<path d="m177.38 106.12c-1.35 5.52-2.69 11.04-4.29 16.06-1.59 5.03-3.43 9.56-6.37 14.42-2.93 4.86-6.96 10.04-11.07 14.42-4.11 4.39-8.31 7.96-12.51 10.8s-8.4 4.95-13.3 6.83c-4.9 1.89-10.49 3.55-15.57 4.6-5.08 1.04-9.63 1.47-14.405 1.38-4.773-0.09-9.765-0.69-14.239-1.83-4.474-1.15-8.429-2.84-11.881-4.8-3.452-1.95-6.401-4.16-8.78-7.24-2.379-3.09-4.188-7.05-4.822-11.12-0.635-4.08-0.095-8.26 0.959-11.43 1.054-3.16 2.623-5.31 4.684-7 2.06-1.68 4.613-2.92 6.707-3.66 2.095-0.74 3.731-0.99 5.549-0.28s3.818 2.38 3.858 4.38c0.041 2-1.878 4.34-3.756 5.04-1.877 0.7-3.714-0.23-5.613 0.04-1.898 0.28-3.858 1.76-5.089 3.92s-1.732 4.99-0.983 8.22c0.75 3.23 2.749 6.86 5.327 9.61 2.577 2.76 5.733 4.65 8.838 5.67 3.104 1.02 6.158 1.18 9.068 0.79s5.677-1.33 8.51-2.88c2.838-1.56 5.738-3.72 8.448-6.54s5.23-6.29 7.13-10.09 3.18-7.93 3.68-12.44c0.51-4.5 0.25-9.4-1.01-13.82-1.25-4.43-3.5-8.38-5.35-13.32s-3.29-10.85-3.49-15.512c-0.2-4.661 0.85-8.07 2.05-11.266 1.2-3.197 2.56-6.182 4.4-9.053s4.17-5.628 6.97-7.668c2.79-2.041 6.06-3.366 9.87-3.863 3.8-0.497 8.14-0.167 11.77 1.087 3.64 1.253 6.58 3.43 8.57 5.092 1.99 1.661 3.02 2.809 4.03 4.627 1.01 1.817 2.01 4.306 2.43 6.688 0.43 2.383 0.3 4.66-0.44 6.723-0.73 2.063-2.05 3.912-3.45 5.185s-2.87 1.971-4.17 2.307c-1.29 0.336-2.42 0.312-3.36 0.027s-1.69-0.83-2.21-1.626c-0.52-0.795-0.8-1.84-0.67-2.797 0.13-0.956 0.67-1.824 1.77-2.736 1.09-0.913 2.75-1.87 3.86-2.868s1.67-2.035 1.69-3.406c0.02-1.37-0.51-3.073-1.56-4.635-1.05-1.563-2.62-2.986-4.33-4.196s-3.57-2.207-5.77-2.76c-2.2-0.554-4.75-0.664-6.87-0.413-2.11 0.252-3.79 0.865-5.59 1.943-1.8 1.077-3.72 2.619-5.44 4.591-1.71 1.972-3.21 4.375-4.49 6.969-1.28 2.595-2.33 5.382-2.79 8.396-0.47 3.015-0.34 6.258 0.46 9.52s2.29 6.544 4.27 9.454 4.46 5.44 7.76 7.44 7.43 3.46 11.39 4.18c3.97 0.73 7.77 0.71 11.81 0.3 4.05-0.4 8.34-1.2 12-2.45 3.67-1.26 6.72-2.96 9.25-4.53 2.53-1.58 4.54-3.03 6.56-4.48z"/>
<path d="m80.74 18.28c2.551 2.073 5.102 4.145 7.589 7.111 2.487 2.965 4.91 6.823 6.679 10.426 1.77 3.602 2.886 6.95 3.635 9.979s1.132 5.739 1.276 7.987c0.141 2.248 0.047 4.033-0.048 5.819 1.979-2.328 3.949-4.655 6.789-6.632s6.54-3.603 10.62-4.735 8.54-1.769 12.63-1.865c4.08-0.095 7.78 0.351 11.06 1.068 3.28 0.718 6.15 1.706 8.69 2.95 2.53 1.243 4.73 2.742 6.93 4.24-1.62-2.838-3.25-5.675-5.66-8.975-2.4-3.3-5.59-7.063-9.71-10.713-4.11-3.651-9.15-7.19-15.11-10.187s-12.85-5.452-19.05-6.871-11.717-1.802-15.989-1.562c-4.273 0.239-7.302 1.1-10.331 1.96z"/>
<path d="m35.199 143.88c0.52-3.24 1.039-6.49 2.364-10.13 1.324-3.63 3.453-7.66 5.689-10.99 2.235-3.34 4.577-5.98 6.825-8.14 2.249-2.16 4.404-3.85 6.279-5.1s3.469-2.06 5.064-2.87c-3.005-0.54-6.009-1.09-9.14-2.56-3.13-1.47-6.388-3.86-9.409-6.83-3.02-2.968-5.805-6.515-7.928-10.002-2.123-3.486-3.586-6.912-4.607-10.115s-1.599-6.182-1.79-8.999c-0.19-2.817 0.007-5.472 0.205-8.126-1.644 2.827-3.289 5.654-4.943 9.389s-3.318 8.377-4.423 13.764c-1.105 5.388-1.652 11.52-1.266 18.179 0.386 6.67 1.703 13.86 3.575 19.94s4.298 11.05 6.642 14.63c2.343 3.58 4.603 5.77 6.863 7.96z"/>
<path d="m166.74 120.52c-3.07 1.17-6.14 2.35-9.95 3.02s-8.36 0.84-12.37 0.57c-4-0.27-7.46-0.98-10.46-1.84-2.99-0.87-5.53-1.89-7.55-2.89s-3.52-1.98-5.02-2.95c1.03 2.87 2.06 5.75 2.35 9.19 0.29 3.45-0.15 7.47-1.21 11.57s-2.74 8.28-4.7 11.86c-1.95 3.59-4.19 6.57-6.45 9.05-2.27 2.49-4.56 4.48-6.9 6.05s-4.742 2.73-7.14 3.89c3.27 0.01 6.54 0.02 10.6-0.42 4.06-0.43 8.92-1.31 14.13-3.05 5.22-1.73 10.81-4.33 16.38-7.99 5.58-3.67 11.15-8.4 15.48-13.07 4.33-4.66 7.42-9.24 9.35-13.06s2.69-6.88 3.46-9.93z"/>
<path d="m106.9 68.976c-1.55 2.143-3.1 4.286-4.38 5.969-1.29 1.683-2.31 2.907-3.293 4.051-0.988 1.145-1.941 2.21-3.201 3.412s-2.825 2.54-3.274 4.148c-0.448 1.607 0.22 3.485 1.477 4.555 1.256 1.069 3.102 1.332 4.474 0.791 1.367-0.541 2.267-1.885 2.767-3.15 0.49-1.266 0.59-2.452 0.74-3.697 0.16-1.245 0.39-2.548 0.76-4.198 0.38-1.65 0.9-3.647 1.58-5.684 0.68-2.038 1.51-4.118 2.35-6.197z"/>
<path d="m66.022 95.878c2.63 0.27 5.261 0.54 7.361 0.811s3.67 0.543 5.154 0.825c1.485 0.283 2.885 0.576 4.555 1.066 1.671 0.49 3.612 1.177 5.229 0.762 1.617-0.416 2.908-1.933 3.206-3.556 0.299-1.624-0.397-3.353-1.551-4.271-1.155-0.918-2.769-1.024-4.112-0.82s-2.416 0.718-3.574 1.203c-1.157 0.484-2.399 0.939-4.015 1.441-1.616 0.501-3.606 1.048-5.71 1.479s-4.324 0.746-6.543 1.06z"/>
<path d="m109.76 117.83c-1.08-2.41-2.16-4.83-2.98-6.78-0.81-1.95-1.36-3.45-1.86-4.88-0.5-1.42-0.94-2.78-1.35-4.47-0.42-1.7-0.79-3.721-1.96-4.913s-3.128-1.553-4.683-0.999c-1.555 0.553-2.705 2.02-2.922 3.479-0.218 1.463 0.497 2.913 1.345 3.973s1.83 1.73 2.829 2.49c0.998 0.76 2.011 1.61 3.251 2.76 1.25 1.15 2.72 2.6 4.14 4.2 1.43 1.61 2.81 3.38 4.19 5.14z"/>
</g>
</g>
<g stroke-linejoin="round" fill-rule="evenodd" stroke="#000" stroke-linecap="round" stroke-width=".2" fill="#1f1a17">
<path d="m88.321 99.341c1.617-0.415 2.909-1.933 3.207-3.556s-0.398-3.353-1.552-4.27c-1.154-0.918-2.768-1.025-4.111-0.821-1.344 0.204-2.417 0.719-3.574 1.203-1.158 0.485-2.4 0.94-4.016 1.441s-3.605 1.049-5.71 1.48c-2.104 0.431-4.323 0.745-6.542 1.06 2.63 0.269 5.26 0.539 7.36 0.81s3.67 0.543 5.155 0.826c1.484 0.283 2.884 0.576 4.555 1.066 1.67 0.49 3.612 1.176 5.228 0.761z"/>
<path d="m94.229 91.111c1.257 1.069 3.102 1.332 4.474 0.791 1.377-0.541 2.267-1.885 2.767-3.15 0.49-1.266 0.59-2.452 0.74-3.697 0.16-1.245 0.39-2.548 0.76-4.198 0.38-1.65 0.9-3.647 1.58-5.684 0.68-2.038 1.51-4.118 2.35-6.197-1.55 2.143-3.1 4.286-4.38 5.969-1.29 1.683-2.31 2.907-3.293 4.051-0.987 1.145-1.941 2.21-3.201 3.412-1.259 1.202-2.825 2.54-3.273 4.148-0.449 1.607 0.219 3.485 1.476 4.555z"/>
<path d="m101.61 96.786c-1.17-1.192-3.128-1.552-4.682-0.998-1.555 0.553-2.705 2.02-2.923 3.479-0.218 1.463 0.497 2.913 1.345 3.973 0.849 1.06 1.83 1.73 2.829 2.49 0.998 0.76 2.011 1.61 3.251 2.76 1.25 1.15 2.72 2.6 4.14 4.2 1.43 1.61 2.81 3.37 4.19 5.14-1.08-2.41-2.16-4.83-2.98-6.78-0.81-1.95-1.36-3.45-1.86-4.88-0.5-1.42-0.94-2.78-1.35-4.47-0.42-1.7-0.79-3.721-1.96-4.914z"/>
<path d="m18.119 101.35c-0.386-6.659 0.161-12.791 1.266-18.178 1.105-5.388 2.769-10.03 4.423-13.765 1.654-3.734 3.299-6.561 4.943-9.389-0.198 2.655-0.395 5.31-0.205 8.126 0.191 2.817 0.769 5.797 1.79 8.999 1.021 3.203 2.484 6.629 4.607 10.116 2.123 3.486 4.908 7.033 7.928 10.002 3.021 2.969 6.279 5.359 9.409 6.829 3.131 1.47 6.135 2.02 9.14 2.56-1.595 0.81-3.189 1.62-5.064 2.87s-4.03 2.94-6.279 5.1c-2.248 2.16-4.59 4.8-6.825 8.14-2.236 3.33-4.365 7.36-5.689 11-1.325 3.63-1.844 6.88-2.364 10.12-2.26-2.19-4.52-4.38-6.863-7.96-2.344-3.58-4.77-8.55-6.642-14.63s-3.189-13.27-3.575-19.94zm43.397-0.34c-4.46-1.127-8.828-3.348-12.479-6.042s-6.584-5.86-8.925-9.405-4.091-7.468-5.176-11.226c-1.086-3.758-1.509-7.351-1.437-10.581s0.638-6.098 1.755-8.814c1.117-2.715 2.784-5.279 5.223-7.456 2.438-2.177 5.648-3.967 9.324-4.821 3.675-0.855 7.817-0.773 10.989 0.194 3.172 0.966 5.376 2.817 6.63 4.962 1.253 2.145 1.557 4.583 0.846 6.365s-2.436 2.907-2.767 4.884c-0.332 1.977 0.731 4.806 2.485 5.772s4.2 0.069 5.723-1.151 2.124-2.763 2.528-4.948c0.405-2.185 0.614-5.011 0.182-7.64s-1.504-5.059-3.717-7.555c-2.214-2.495-5.57-5.055-9.416-6.543-3.845-1.487-8.181-1.902-12.042-1.385-3.861 0.518-7.249 1.967-10.666 3.981-3.416 2.014-6.861 4.592-10.091 7.893s-6.246 7.324-8.707 11.415c-2.461 4.09-4.369 8.247-6.002 13.166s-2.992 10.6-3.809 15.785c-0.818 5.184-1.093 9.872-0.733 14.93 0.361 5.05 1.358 10.48 3.096 16.23s4.217 11.83 6.958 16.8c2.741 4.98 5.744 8.84 9.299 12.73s7.662 7.82 11.768 11.74c-0.248-2.47-0.496-4.94-0.597-7.92-0.1-2.98-0.052-6.46 0.698-10.27 0.75-3.8 2.203-7.91 3.873-11.62 1.671-3.71 3.558-7.01 6.167-10.08 2.608-3.07 5.937-5.91 9.318-7.77s6.814-2.74 10.323-3 7.094 0.09 10.321 1.03c3.227 0.93 6.097 2.45 8.476 4.36 2.378 1.91 4.266 4.21 5.875 6.61 1.608 2.41 2.937 4.91 3.791 7.38 0.85 2.47 1.22 4.9 1.26 7 0.03 2.1-0.28 3.86-1.12 5.82-0.838 1.95-2.208 4.11-3.789 5.74-1.58 1.63-3.371 2.74-5.275 3.61-1.904 0.88-3.922 1.53-5.8 1.66s-3.616-0.27-4.794-0.97-1.795-1.71-2.104-3.17-0.31-3.37-0.551-4.78c-0.242-1.4-0.724-2.3-1.488-2.89s-1.81-0.87-2.756-0.82c-0.947 0.05-1.796 0.43-2.513 1.1-0.716 0.67-1.302 1.63-1.66 2.93-0.358 1.29-0.489 2.91-0.085 4.76 0.404 1.84 1.342 3.92 2.763 5.58 1.422 1.67 3.326 2.92 5.603 3.74 2.278 0.82 4.929 1.21 7.009 1.24 2.081 0.03 3.59-0.29 6.022-1.18 2.433-0.89 5.788-2.34 8.688-4.87 2.91-2.52 5.36-6.11 6.84-9.66 1.47-3.54 1.95-7.03 1.59-10.48-0.37-3.44-1.6-6.83-3.16-9.86-1.57-3.03-3.47-5.7-5.643-8.34-2.167-2.64-4.595-5.25-8.732-7.41-4.136-2.16-9.981-3.86-15.179-4.73s-9.75-0.9-14.21-2.02z"/>
<path d="m31.951 38.273c2.627-2.005 5.136-3.626 7.892-4.918 2.757-1.293 5.76-2.256 9.14-2.782s7.135-0.615 10.689-0.12c3.554 0.496 6.907 1.575 10.13 3.645 3.223 2.069 6.316 5.13 8.292 8.345 1.977 3.215 2.838 6.584 3.332 9.661s0.622 5.861-0.622 8.944c-1.243 3.082-3.858 6.461-6.889 8.021-3.032 1.56-6.481 1.299-8.784 0.51-2.304-0.789-3.462-2.107-3.994-3.482-0.531-1.375-0.435-2.807-0.81-4.074-0.375-1.268-1.22-2.37-2.551-3.049s-3.148-0.934-4.615-0.355-2.583 1.993-3.168 3.687-0.64 3.669-0.242 5.354c0.399 1.684 1.251 3.079 2.649 4.636 1.399 1.558 3.344 3.28 5.847 4.523 2.502 1.244 5.563 2.009 8.516 2.136s5.799-0.384 9.147-1.978c3.347-1.595 7.198-4.272 9.792-7.948 2.595-3.677 3.934-8.353 3.966-13.264 0.032-4.91-1.243-10.054-3.73-14.969-2.487-4.916-6.186-9.602-11.526-12.934-5.341-3.332-12.323-5.309-18.161-5.717-5.838-0.407-10.531 0.755-15.224 1.916 14.78-11.225 33.229-17.122 53.201-17.887 28.692-1.1002 53.372 12.68 68.682 34.424 1.22 1.839 2.45 3.678 3.8 6.171 1.34 2.493 2.8 5.64 4.06 9.382 1.25 3.741 2.29 8.078 2.88 11.739 0.6 3.66 0.75 6.643 0.49 9.676s-0.93 6.116-2.16 9.306c-1.24 3.19-3.04 6.487-5.24 9.317-2.21 2.831-4.82 5.191-8.23 6.951-3.4 1.76-7.6 2.9-11.37 3.01-3.77 0.1-7.12-0.84-10.03-1.95s-5.39-2.39-7.44-5.007c-2.04-2.618-3.66-6.572-3.5-9.977 0.17-3.405 2.12-6.262 3.95-7.863 1.84-1.6 3.56-1.944 5.01-1.717 1.46 0.227 2.65 1.026 3.94 1.335 1.28 0.31 2.66 0.129 3.91-0.684 1.26-0.813 2.39-2.26 2.62-3.819 0.23-1.56-0.44-3.233-1.61-4.588-1.17-1.354-2.86-2.389-4.52-2.886-1.65-0.497-3.29-0.456-5.34-0.024-2.04 0.432-4.51 1.256-6.84 2.801-2.32 1.546-4.52 3.814-6.1 6.308-1.59 2.494-2.57 5.214-2.86 8.91-0.3 3.697 0.1 8.37 1.98 12.455 1.89 4.086 5.27 7.586 9.51 10.066 4.23 2.48 9.33 3.95 14.83 4.25 5.5 0.31 11.4-0.55 16.96-3.51s10.76-8.02 14.03-12.87c3.28-4.852 4.62-9.498 5.96-14.143 0.45 3.601 0.68 7.269 0.68 10.991 0 44.702-30.85 81.112-75.26 85.582-2.93 0.17-5.87 0.35-8.93 0.3-3.065-0.04-6.262-0.3-9.765-0.94-3.502-0.64-7.311-1.66-10.659-2.9-3.348-1.23-6.237-2.68-8.849-4.46-2.612-1.79-4.948-3.91-7.094-6.57-2.145-2.67-4.1-5.87-5.448-9.2-1.348-3.32-2.09-6.77-1.909-10.59 0.182-3.83 1.286-8.04 3.082-11.36s4.283-5.75 6.7-7.71c2.418-1.97 4.766-3.47 8.056-3.94 3.291-0.46 7.526 0.11 10.392 1.96 2.867 1.84 4.365 4.96 4.834 7.35 0.468 2.39-0.094 4.05-1.019 5.2s-2.213 1.78-3.123 2.74c-0.911 0.96-1.443 2.24-1.366 3.73 0.078 1.5 0.766 3.2 2.001 4.18s3.017 1.24 4.777 0.9 3.498-1.28 4.758-2.47c1.259-1.19 2.04-2.62 2.69-4.61s1.169-4.54 0.994-7.33c-0.174-2.79-1.042-5.82-2.409-8.44-1.366-2.62-3.232-4.83-6.286-6.93-3.055-2.1-7.298-4.1-11.78-4.51-4.481-0.41-9.201 0.77-13.469 3.2s-8.085 6.1-11.099 10.71c-3.013 4.61-5.223 10.16-5.438 16.45s1.564 13.33 4.129 18.59c2.564 5.26 5.914 8.75 9.264 12.24-31.655-13.34-56.122-45.21-53.881-81.172 0.7694-12.348 3.6274-22.494 7.898-32.84 1.167-2.668 2.333-5.336 3.96-8.057 1.627-2.722 3.715-5.498 6.132-8.081 2.416-2.582 5.161-4.972 7.788-6.977zm155.91 55.955c0-51.704-41.93-93.634-93.632-93.634-51.704 0.00042-93.634 41.93-93.634 93.634 0.00042 51.702 41.93 93.632 93.634 93.632 51.702 0 93.632-41.93 93.632-93.632z"/>
<path d="m94.499 56.956c-0.08 3.858-1.037 7.269-2.564 10.439-1.528 3.17-3.627 6.098-6.05 8.425-2.424 2.328-5.171 4.055-8.014 5.16s-5.782 1.589-8.667 1.78c-2.885 0.192-5.718 0.091-8.282-0.406s-4.859-1.39-6.693-2.41c-1.833-1.02-3.204-2.168-4.48-3.874-1.275-1.706-2.455-3.97-3.076-6.154-0.622-2.184-0.686-4.288-0.495-6.376 0.192-2.089 0.638-4.161 1.467-5.851s2.041-2.997 3.236-3.667c1.196-0.669 2.376-0.701 3.795-0.239 1.418 0.462 3.076 1.419 4.415 1.913 1.34 0.494 2.36 0.526 3.253 0.16 0.892-0.367 1.658-1.132 2.088-1.977s0.526-1.77 0.303-2.726c-0.223-0.957-0.765-1.945-1.706-2.902-0.94-0.956-2.28-1.881-4.081-2.455s-4.065-0.797-6.217-0.398c-2.153 0.398-4.193 1.419-6.042 2.981-1.85 1.562-3.508 3.666-4.576 5.452-1.068 1.785-1.546 3.252-1.992 5.803-0.447 2.551-0.861 6.185-0.127 9.964 0.734 3.778 2.617 7.7 4.948 10.744 2.332 3.045 5.114 5.213 8.28 6.616s6.718 2.041 10.125 2.2c3.407 0.16 6.67-0.159 10.039-0.717s6.845-1.355 10.782-3.858c3.938-2.503 8.338-6.712 11.688-10.779 3.351-4.068 5.654-7.995 8.854-11.295 3.21-3.3 7.31-5.973 11.47-7.788s8.37-2.771 12.61-3.026 8.51 0.191 12.31 1.13c3.8 0.938 7.12 2.369 9.88 4.046 2.76 1.678 4.96 3.602 6.76 5.927 1.79 2.325 3.18 5.05 3.84 8.251 0.67 3.2 0.61 6.876-0.48 10.486-1.1 3.61-3.24 7.155-5.67 9.419-2.42 2.264-5.12 3.247-7.61 3.261-2.48 0.013-4.75-0.944-5.93-2.45-1.19-1.507-1.3-3.563-2.85-4.838-1.55-1.276-4.53-1.77-6.24-0.734s-2.16 3.603-1.87 5.532c0.3 1.929 1.34 3.22 3.02 4.663 1.69 1.443 4.04 3.037 6.53 3.982 2.49 0.94 5.13 1.22 8.4 0.55s7.17-2.292 10.38-4.879c3.21-2.586 5.73-6.133 7.22-9.736 1.48-3.603 1.92-7.262 1.88-11.227-0.03-3.966-0.54-8.238-1.79-12.686-1.24-4.448-3.22-9.071-5.53-13.248s-4.96-7.907-8.4-11.781-7.69-7.891-11.77-11.191-8-5.883-12.56-8.099-9.75-4.065-15.61-5.436c-5.85-1.371-12.35-2.264-18.026-2.375-5.675-0.112-10.522 0.558-15.671 1.689-5.149 1.132-10.601 2.727-16.054 4.321 2.264 1.02 4.528 2.04 7.158 3.443 2.631 1.403 5.628 3.189 8.545 5.739 2.918 2.551 5.755 5.867 8.131 9.167 2.375 3.3 4.288 6.584 5.643 10.378s2.152 8.099 2.073 11.957zm-6.17-31.565c-2.487-2.966-5.038-5.038-7.588-7.111 3.029-0.86 6.058-1.721 10.33-1.96 4.273-0.24 9.789 0.143 15.989 1.562s13.09 3.874 19.05 6.871 11 6.536 15.11 10.187c4.12 3.65 7.31 7.413 9.71 10.713 2.41 3.3 4.04 6.137 5.66 8.975-2.2-1.498-4.4-2.997-6.93-4.24-2.54-1.244-5.41-2.232-8.69-2.95-3.28-0.717-6.98-1.163-11.06-1.068-4.09 0.096-8.55 0.733-12.63 1.865s-7.78 2.758-10.62 4.735-4.81 4.304-6.789 6.632c0.096-1.786 0.189-3.571 0.048-5.819-0.144-2.248-0.526-4.958-1.276-7.987-0.749-3.029-1.865-6.377-3.634-9.979-1.77-3.603-4.193-7.461-6.68-10.426z"/>
<path d="m107.61 90.338c0.2 4.662 1.64 10.572 3.49 15.512s4.1 8.89 5.36 13.32c1.25 4.42 1.51 9.32 1 13.82-0.5 4.51-1.78 8.64-3.68 12.44s-4.42 7.27-7.13 10.09-5.61 4.98-8.447 6.54c-2.834 1.55-5.601 2.49-8.511 2.88s-5.964 0.23-9.068-0.79c-3.105-1.02-6.261-2.91-8.838-5.67-2.578-2.75-4.577-6.38-5.326-9.61-0.75-3.23-0.248-6.06 0.982-8.22 1.231-2.16 3.191-3.64 5.09-3.92 1.898-0.27 3.735 0.66 5.613-0.04 1.877-0.7 3.796-3.04 3.755-5.04-0.04-2-2.04-3.67-3.858-4.38s-3.454-0.46-5.549 0.28c-2.094 0.74-4.646 1.98-6.707 3.67-2.061 1.68-3.63 3.83-4.684 6.99-1.054 3.17-1.594 7.35-0.959 11.43 0.635 4.07 2.443 8.03 4.822 11.12 2.379 3.08 5.328 5.29 8.78 7.24 3.452 1.96 7.408 3.65 11.881 4.8 4.474 1.15 9.466 1.74 14.239 1.83 4.775 0.09 9.325-0.34 14.405-1.38 5.08-1.05 10.67-2.71 15.57-4.6 4.9-1.88 9.1-3.99 13.3-6.83s8.4-6.41 12.51-10.8c4.11-4.38 8.14-9.56 11.07-14.42 2.94-4.86 4.78-9.39 6.37-14.42 1.6-5.02 2.94-10.54 4.29-16.06-2.02 1.45-4.03 2.9-6.56 4.48-2.53 1.57-5.58 3.27-9.24 4.53-3.67 1.25-7.96 2.05-12.01 2.45-4.04 0.41-7.84 0.43-11.81-0.3-3.96-0.72-8.09-2.18-11.39-4.18s-5.78-4.53-7.76-7.44-3.47-6.191-4.27-9.454c-0.8-3.262-0.93-6.505-0.46-9.52 0.46-3.014 1.51-5.801 2.79-8.396 1.28-2.594 2.78-4.996 4.49-6.969 1.72-1.972 3.64-3.513 5.44-4.591 1.8-1.077 3.48-1.691 5.59-1.942 2.12-0.252 4.67-0.142 6.87 0.412 2.2 0.553 4.06 1.55 5.77 2.76s3.28 2.633 4.33 4.196 1.58 3.265 1.56 4.636c-0.02 1.37-0.58 2.407-1.69 3.405s-2.77 1.955-3.86 2.868c-1.1 0.912-1.64 1.78-1.77 2.737-0.13 0.956 0.15 2.001 0.67 2.797 0.52 0.795 1.27 1.34 2.21 1.625s2.07 0.31 3.36-0.027c1.3-0.336 2.77-1.033 4.17-2.306 1.4-1.274 2.72-3.122 3.45-5.186 0.74-2.063 0.87-4.34 0.44-6.723-0.42-2.382-1.42-4.87-2.43-6.688s-2.04-2.965-4.03-4.627-4.93-3.839-8.56-5.092c-3.64-1.253-7.98-1.584-11.78-1.087-3.81 0.497-7.08 1.822-9.87 3.863-2.8 2.04-5.13 4.797-6.97 7.668s-3.2 5.856-4.4 9.053-2.25 6.605-2.05 11.266zm36.81 33.772c4.01 0.27 8.56 0.1 12.37-0.57s6.88-1.85 9.95-3.02c-0.77 3.06-1.53 6.11-3.46 9.93s-5.02 8.4-9.35 13.06c-4.33 4.67-9.9 9.4-15.48 13.07-5.57 3.66-11.16 6.26-16.38 7.99-5.21 1.74-10.07 2.62-14.13 3.05-4.06 0.44-7.33 0.43-10.6 0.42 2.397-1.16 4.8-2.31 7.14-3.89 2.34-1.57 4.63-3.56 6.9-6.05 2.26-2.48 4.5-5.46 6.45-9.05 1.96-3.58 3.64-7.76 4.7-11.86s1.5-8.12 1.21-11.56c-0.29-3.45-1.32-6.33-2.35-9.2 1.5 0.97 3 1.95 5.02 2.95s4.56 2.02 7.55 2.89c3 0.86 6.46 1.57 10.46 1.84z"/>
</g>
</svg>
