<svg xmlns="http://www.w3.org/2000/svg" xmlns:xlink="http://www.w3.org/1999/xlink" viewBox="0 0 300 300" style="display: block;"><!-- 0.7636782938597166 --><mask id="background18-mask"><rect x="0" y="0" width="300" height="300" fill="white"></rect></mask><defs><linearGradient id="background18" x1="0%" y1="100%" x2="0%" y2="0%"><stop offset="0%" style="stop-color:#a2d8f4;stop-opacity:1"></stop><stop offset="100%" style="stop-color:#47b1e9;stop-opacity:1"></stop></linearGradient></defs><rect transform="translate(0,0)" mask="url(#background18-mask)" width="300" height="300" fill="url(#background18)"></rect><g transform="matrix(0.031,0,0,0.031,196.5,206)" id="1639663371202727936" class="translatable prop"><g><g class="f1" transform="matrix(1,0,0,1,0,-1218.1)"><g><g><path fill="#495a6a" colorid="129" fill-opacity="1" stroke="none" d="M-9345 310.6 Q-9422.25 296.35 -9507.75 285.1 -9678.75 263.35 -9720.75 281.35 -9750.75 294.85 -10134 651.1 -10522.5 1011.1 -10581 1042.6 L-10625.25 1218.1 10625.25 1218.1 10625.25 749.35 Q10615.80 749.35 10600.7 746.85 10233.05 420.37 9853.5 96.85 9092.25 -553.4 9036.75 -538.4 8913.75 -506.15 8820.75 -455.9 8736.75 -403.4 8704.5 -386.15 8652.75 -358.4 8599.5 -363.65 8536.5 -368.9 8418.75 -421.4 8334.75 -458.9 7205.25 -919.4 L6255.75 -479.9 Q6214.5 -461.9 5834.25 -571.4 L5461.5 -685.4 Q5340 -626.9 5211 -567.65 4951.5 -450.65 4910.25 -450.65 4871.25 -450.65 4300.5 -703.4 3696.75 -970.4 3674.25 -977.9 3618.75 -995.9 3365.25 -930.65 L3122.25 -860.9 2880 -1065.65 2376 -910.15 2196 -1036.4 Q1887 -948.65 1798.5 -919.4 1745.92 -903.70 1693.55 -888.05 1690.41 -889.41 1688.25 -890.15 1478.25 -999.65 1315.5 -1083.65 999.75 -1247.15 960 -1211.9 925.5 -1181.15 323.25 -871.4 109.21 -761.42 -38.8 -684.3 L-628.5 -802.4 Q-960 -743.9 -1070.25 -743.9 -1139.25 -743.9 -1530.75 -890.15 L-1908.75 -1036.4 -2548.5 -656.15 -2813.25 -743.9 Q-2937.75 -670.4 -3252 -509.15 L-3541.5 -362.9 -3916.5 -421.4 -4317.5 -305.5 -4843.5 -479.9 Q-5282.58 -208.39 -5479.05 -78.35 -5641.11 -85.94 -5704.5 -99.65 -5787 -117.65 -6007.5 -271.4 L-6211.5 -421.4 -7513.5 17.35 Q-7999.5 -70.4 -8065.5 -99.65 L-8484.75 -275.15 -9345 310.6 Z" _p="true"></path></g></g><g><g><path fill="#ffffff" fill-opacity="0.09" stroke="none" d="M-7028.25 281.35 Q-7068.93 299.38 -7411.75 406.3 -7105.24 500.79 -7050 515.35 -6954.75 540.85 -6239.25 628.6 -5496.75 720.1 -5329.5 720.1 -5086.5 720.1 -4071 369.1 -4029.75 351.1 -3549.75 357.85 -3304.5 361.6 -3012 369.1 -2880.75 369.1 -2457.75 292.6 -1947.75 199.6 -1820.25 105.1 -1775.63 72.26 -1725.5 35 -2057.48 17.35 -2107.5 17.35 -2176.5 17.35 -2502 -70.4 L-2813.25 -158.15 Q-2967.75 -179.9 -3138.75 -198.65 -3480.75 -234.65 -3564 -216.65 -3646.5 -198.65 -3900 -220.4 L-4137.75 -245.9 -4843.5 -479.9 Q-5282.58 -208.39 -5479.05 -78.35 -5578.84 -12.21 -5616 17.35 -5685 72.1 -6153.75 225.85 L-6609 369.1 Q-6697.5 339.85 -6793.5 314.35 -6987 263.35 -7028.25 281.35 M8026.5 28.6 Q8238 -61.4 8286 -70.4 8355.33 -83.31 9232.3 254.9 9060.96 150.19 8884.5 43.6 8438.25 -227.9 8396.25 -245.9 8330.25 -275.15 7690.5 -656.15 L6123.75 17.35 Q5936.25 3.1 5740.5 -11.9 5348.25 -41.15 5307 -41.15 5265.75 -41.15 4476.75 -318.65 L3696 -596.9 Q3144.75 -479.9 3056.25 -479.9 3000.75 -479.9 2592.75 -758.15 L2196 -1036.4 Q1887 -948.65 1798.5 -919.4 1745.92 -903.70 1693.55 -888.05 1754.25 -861.51 2176.5 -596.9 2651.25 -322.4 2880 -304.4 3114.75 -286.4 3572.25 -322.4 3801 -341.15 3983.25 -362.9 L4158 -270.65 Q4372.5 -159.65 4568.25 -66.65 5196.75 234.1 5417.25 252.1 5578.5 265.6 6126.75 380.35 6633 486.1 6786 486.1 6954.75 486.1 7585.5 219.1 7745.25 150.85 8026.5 28.6 Z" _p="true"></path></g></g><g><g><path fill="#ffffff" fill-opacity="0.29" stroke="none" d="M-10134 651.1 Q-10522.5 1011.1 -10581 1042.6 -10486.5 1026.85 -9806.25 672.85 -9104.25 307.6 -9014.25 281.35 -8889.75 244.6 -8575.5 186.1 -8418 156.85 -8286 134.35 -7720.95 311.01 -7411.75 406.3 -7068.93 299.38 -7028.25 281.35 -6987 263.35 -6793.5 314.35 -6697.5 339.85 -6609 369.1 L-6153.75 225.85 Q-5685 72.1 -5616 17.35 -5578.84 -12.21 -5479.05 -78.35 -5641.11 -85.94 -5704.5 -99.65 -5787 -117.65 -6007.5 -271.4 L-6211.5 -421.4 -7513.5 17.35 Q-7999.5 -70.4 -8065.5 -99.65 L-8484.75 -275.15 -9345 310.6 Q-9422.25 296.35 -9507.75 285.1 -9678.75 263.35 -9720.75 281.35 -9750.75 294.85 -10134 651.1 M-4317.5 -305.5 L-4137.75 -245.9 -3900 -220.4 Q-3646.5 -198.65 -3564 -216.65 -3480.75 -234.65 -3138.75 -198.65 -2967.75 -179.9 -2813.25 -158.15 L-2502 -70.4 Q-2176.5 17.35 -2107.5 17.35 -2057.48 17.35 -1725.5 35 -1552.29 -93.68 -1313.25 -275.15 L-1048.5 -158.15 -756 -300.65 Q-447 -454.4 -363.75 -509.15 -322.82 -536.26 -38.8 -684.3 L-628.5 -802.4 Q-960 -743.9 -1070.25 -743.9 -1139.25 -743.9 -1530.75 -890.15 L-1908.75 -1036.4 -2548.5 -656.15 -2813.25 -743.9 Q-2937.75 -670.4 -3252 -509.15 L-3541.5 -362.9 -3916.5 -421.4 -4317.5 -305.5 M9036.75 -538.4 Q8913.75 -506.15 8820.75 -455.9 8736.75 -403.4 8704.5 -386.15 8652.75 -358.4 8599.5 -363.65 8536.5 -368.9 8418.75 -421.4 8334.75 -458.9 7205.25 -919.4 L6255.75 -479.9 Q6214.5 -461.9 5834.25 -571.4 L5461.5 -685.4 Q5340 -626.9 5211 -567.65 4951.5 -450.65 4910.25 -450.65 4871.25 -450.65 4300.5 -703.4 3696.75 -970.4 3674.25 -977.9 3618.75 -995.9 3365.25 -930.65 L3122.25 -860.9 2880 -1065.65 2376 -910.15 2592.75 -758.15 Q3000.75 -479.9 3056.25 -479.9 3144.75 -479.9 3696 -596.9 L4476.75 -318.65 Q5265.75 -41.15 5307 -41.15 5348.25 -41.15 5740.5 -11.9 5936.25 3.1 6123.75 17.35 L7690.5 -656.15 Q8330.25 -275.15 8396.25 -245.9 8438.25 -227.9 8884.5 43.6 9060.96 150.19 9232.3 254.9 9322.96 289.88 9422.25 328.6 10419.27 717.02 10600.7 746.85 10233.05 420.37 9853.5 96.85 9092.25 -553.4 9036.75 -538.4 Z" _p="true"></path></g></g></g>
</g></g><g transform="matrix(0.3,0,0,0.3,153,278.5)" id="1639596458875424768" class="translatable prop"><g><g class="f1" transform="matrix(1,0,0,1,0,-128.7)"><g><g><path fill="#a2d8f4" colorid="197" fill-opacity="1" stroke="none" d="M725.95 128.7 L725.95 -122.7 -725.9 -122.7 -725.9 128.7 725.95 128.7 Z" _p="true"></path></g></g><g><g><path fill="#ffffff" fill-opacity="0.4" stroke="none" d="M183.8 15.3 Q194.35 16.55 203.15 17.75 164.15 8.75 155.15 7.8 149.65 7.2 139.6 7.4 129.65 7.8 127.1 7.8 126.55 7.8 116.9 9.5 113.95 10.05 111.4 10.25 115.15 10.5 120.65 10.95 144.8 12.8 153.1 12.8 162.5 12.8 183.8 15.3 M447.25 66.5 Q482.5 67.5 473.15 66.8 466.25 66.3 429.7 61.4 395 56.75 393.1 56.75 385.75 56.75 375.7 57.45 359.35 58.5 348.1 60.8 330.5 64.5 355.45 64.7 369.4 64.8 398.15 64.8 412.3 65.55 447.25 66.5 M613.1 18.8 Q606.4 18.8 576.05 13.5 551 9.15 555.1 10.8 587.6 23.9 622.6 22.7 640.4 22.05 654.1 18.8 626.15 18.8 613.1 18.8 M-639.05 9.8 Q-626.6 11.1 -618.85 12.8 -633.85 7.8 -641.9 5.75 -646.9 4.55 -670.75 7.4 -720.95 13.5 -686.9 9.8 -663.8 7.25 -639.05 9.8 M-131.65 42.2 Q-143.95 40.1 -154.15 43.1 -166.9 46.85 -174.85 48.6 -186.25 51.15 -196.1 51.8 -186.4 52.4 -174.1 50.85 -173.5 50.75 -152.9 47.55 -127.4 43.55 -110.35 47.55 -129.35 42.65 -131.65 42.2 M-18.5 92.75 Q-45.25 86.75 -55.9 86.75 -66.5 86.75 -81.2 91.4 L-93.7 96 -84.25 93.5 Q-72.85 91.2 -62.9 91.8 -46.9 92.75 6.1 98.75 -5.15 95.75 -18.5 92.75 M649.75 -113.35 Q659.5 -113.35 685 -114.85 710.5 -116.35 711.25 -116.35 714.1 -116.35 725.95 -117.25 L725.95 -122.7 -725.9 -122.7 -725.9 -116.25 Q-660.95 -115 -649.25 -116.35 -641.3 -117.25 -625.25 -115.35 -607.1 -113.35 -605.75 -113.35 -598.25 -113.35 -643.25 -107.35 L-580.25 -107.35 Q-566.45 -107.35 -557 -109 -543.85 -111.4 -538.25 -111.85 L-463.25 -117.85 -450.1 -115 Q-435.85 -112.35 -430.25 -113.35 -421.25 -114.85 -365.75 -113.35 L-412.25 -107.35 -387.65 -107.5 Q-361 -107.85 -350.75 -108.85 -343.85 -109.45 -331.25 -112.35 -320.8 -114.85 -311.75 -114.85 L-251.75 -114.85 Q-245.75 -114.85 -182.75 -113.35 -176.75 -113.35 -194.75 -108.85 L-176.75 -108.45 Q-155.75 -108.45 -140.75 -110.35 -127 -112.05 -104.35 -113.1 -79.7 -114.3 -74.75 -114.85 -65.35 -115.75 -19.6 -113.85 3.25 -112.95 24.25 -111.85 L1.75 -108.85 Q82.75 -113.35 88.75 -113.35 94.75 -113.35 54.25 -117.85 L82.75 -115.6 Q113.5 -113.35 124.75 -113.35 142.75 -113.35 193.75 -114.85 L265.75 -117.85 290.75 -113.7 Q316.6 -109.95 321.25 -111.85 327.2 -114.25 356.5 -117.25 386.5 -120.4 396.25 -119.35 409.75 -117.85 468.25 -116.35 522.25 -114.85 526.75 -114.85 531.25 -114.85 588.25 -116.35 590 -116.35 615.1 -114.85 640.25 -113.35 649.75 -113.35 Z" _p="true"></path></g></g><g><g><path fill="#000000" fill-opacity="0.2" stroke="none" d="M154.75 22.8 Q152 22.8 139.3 20.25 127.3 17.85 121 18.3 114.2 18.75 104.05 20.6 93.25 22.8 88.75 23.55 L103.6 23.25 Q119.35 23.1 124 23.55 131.5 24.3 184 25.8 162.25 22.8 154.75 22.8 M375.25 27.3 Q372.25 27.3 381.2 29.75 388.3 31.7 395.5 33.3 402.25 34.8 436 28.8 410.5 29.55 400.75 28.8 394.7 28.35 384.35 27.75 L375.25 27.3 M613.4 29.4 Q623.35 28.8 632.5 28.05 586 22.05 579.25 21.3 568.4 19.25 560.2 17.75 544.55 14.85 537.25 15.3 516.55 16.55 511.85 17 494.45 18.5 488.5 20.55 480.55 23.4 503.6 23 515.15 22.8 528.25 22.05 511.75 25.05 502 25.05 495.5 25.05 478.4 28.25 459.2 31.8 470.5 30.3 479.8 29 504.65 28.85 530.75 28.7 536.5 30.3 543.05 32.1 554.6 31.85 566.2 31.7 559.75 29.55 551.2 26.7 546.2 24.15 539.75 20.75 543.25 19.8 546.55 18.8 566.2 23.55 576.5 26 589.75 29.55 593.5 30.5 613.4 29.4 M-631 8.75 Q-639.8 5.25 -645.85 3.95 -653 2.45 -661.4 2.85 -665.9 3.05 -672.05 3.9 -679.1 4.85 -682.7 5.3 -688.9 5.9 -692 6.15 -697.55 6.65 -701.15 7.85 -673.9 8.15 -662.75 7.8 -660.25 7.7 -655.25 7.4 -650.75 7.2 -647.75 7.35 -645.5 7.5 -639.2 7.55 -633.55 7.8 -631 8.75 M-524.9 34.2 Q-521.35 35 -514.3 37.2 -506.3 39.45 -493.85 37.95 -486.85 37.1 -473.35 35.25 -478.75 32.1 -488.35 31.85 -499.3 32.3 -504.1 32.3 -508.75 32.3 -516.95 30.05 -525.65 27.6 -529.6 27.35 -535.3 27.05 -543.25 29 -543.85 29.15 -556.6 32.9 -567.55 36.2 -575.9 36.2 -585.25 36.3 -594.95 32.55 -602.75 29.45 -615.7 32.25 -620.95 33.35 -636.25 38.4 -634 38.45 -617.75 37.2 -605.8 36.3 -598.6 37.95 -588.25 40.25 -569.35 48.35 -582.35 44.4 -601 47.85 -613.6 50.15 -631.55 56.7 -629.05 57.15 -624.95 56.6 -618.8 55.8 -618.25 55.8 -611.35 55.5 -597.35 55.35 -590.3 55.25 -580.7 56.4 -575.3 57 -564.35 58.35 -531.95 61.65 -512.35 61.85 -515.8 61.55 -521.8 59.4 -529.45 56.7 -531.35 56.25 -541.1 53.7 -545.75 51.8 -548.75 50.7 -550.25 50.1 -552.95 49.05 -554.6 48.2 -556 47.45 -560.45 44.25 -564.1 41.55 -566.6 40.8 -560.5 40.05 -551 37.55 -538.85 34.5 -535.7 33.8 -530.9 32.85 -524.9 34.2 M-458.05 7.25 Q-470 3.9 -474.8 2.9 -481.6 1.55 -493.55 6.5 -504.05 10.85 -510.5 10.8 -504.85 11 -496.1 9.5 -484.7 7.55 -479.75 7.8 -456.25 9 -442.1 11.15 -448.15 10.1 -458.05 7.25 M-296 24.3 Q-302 23 -308.3 21.6 -320.8 18.75 -322.25 18.3 -324.25 17.6 -353.75 21.3 -360.55 22.1 -372.4 23 -377 23.3 -380.6 23.55 L-363.55 23.45 Q-333.05 23.25 -326 22.8 -314.75 22.05 -296 24.3 M-114.5 34.05 Q-109.3 35.9 -93.05 35.55 -84.85 35.4 -77.75 34.8 -107 31.05 -116.75 28.05 -122.65 26.25 -131.05 27.5 -141.5 29.55 -148.25 30.3 -170.5 32.3 -182.9 33.5 -205.75 35.75 -198.5 36.3 -189.25 36.95 -178.25 37.1 -164.6 37.35 -158 36.3 -148.25 34.8 -185.75 46.05 -153.5 40.8 -150.5 39.3 -149 38.55 -143.05 35.15 -136.9 31.95 -131.75 31.05 -126.35 30.05 -123.1 30.9 -120.85 31.4 -114.5 34.05 M-28.7 3.95 Q-15.5 4.05 -1.25 4.05 L-9.5 9.3 Q-37.25 9.3 -47 10.05 L-88.25 13.05 -75.85 13.7 Q-61.25 14.25 -50 13.8 -23.2 12.65 4.75 17.55 15.65 19.4 29.2 17.1 31.4 16.7 43 13.8 44.65 13.4 26.75 10.1 9.55 7.05 11.5 7.05 12.95 7.05 23.2 7.4 33.55 7.8 40 7.8 46.75 7.8 64 8.9 L81.25 10.05 Q84.1 10.05 73.6 7.35 62.75 4.55 53.5 4.05 45.7 3.65 29.75 0.35 14.45 -2.7 11.5 -2.7 6.25 -2.7 -2.65 -1.75 -11.9 -0.85 -16.25 0.3 -19.85 1.2 -30.85 1.95 -44 2.75 -50 3.3 -55.15 3.75 -28.7 3.95 M-113.3 -30.25 Q-102.1 -29.5 -90.5 -28.95 L-105.5 -34.2 Q-129.05 -34.35 -133.25 -32.7 -135.55 -31.75 -113.3 -30.25 M-265.6 -4.35 Q-267.1 -4.15 -268.25 -3.9 -261.35 -4.65 -249.4 -3.55 -242 -2.85 -236 -1.95 -244.25 -3.45 -251 -4.95 -255.1 -5.85 -265.6 -4.35 M-367.75 -28.95 L-377 -28.2 -341 -25.95 Q-350.75 -29.7 -355.25 -29.7 -358 -29.7 -367.75 -28.95 M632.8 -31.2 Q634.7 -31.8 647.45 -31.05 653.8 -30.7 659.8 -30.15 655.1 -32.2 645.2 -33.3 625.4 -35.55 599.8 -31.2 592.85 -30 611.5 -30.15 630.35 -30.3 632.8 -31.2 M323 -6.45 Q313.45 -4.45 309.35 -4.2 L352.75 -4.95 Q361.75 -4.95 397.75 -1.2 378.25 -6.45 367.75 -7.2 359.65 -7.8 350.35 -8.25 340.6 -8.7 336.25 -8.7 333.5 -8.7 323 -6.45 M220 -15.45 Q224.6 -13.15 233.3 -15.75 232.9 -15.75 232.6 -15.75 219.1 -15.9 220 -15.45 M234.5 -16.15 Q233.9 -15.9 233.3 -15.75 239.65 -15.6 246.25 -15.45 L289 -15.45 Q271 -17.7 266.5 -17.7 264.25 -17.7 256.4 -18.85 248.5 -19.95 246.25 -19.95 246.05 -19.95 234.5 -16.15 M95.3 -17.7 Q107.2 -18.45 110.5 -18.45 118 -18.45 142.75 -17.7 137 -19.2 127.4 -19.95 108.25 -21.45 89.5 -17.7 86.75 -17.1 95.3 -17.7 M708.55 78.6 Q715 76.55 721.7 76.5 702.85 70.05 670.1 72.15 643.6 73.8 617.6 79.95 663.1 83.7 690.2 99.05 638.65 102.65 566.2 103.95 577.6 98.85 589.25 96.35 598.7 94.25 613.7 93 604.45 89.25 587 88.4 567.4 88.1 558.65 87.3 552.65 86.75 534.55 83.6 519.55 80.9 510.4 81 521 75.5 540.55 74.85 541.6 74.85 572.75 75.45 553.3 66.75 527.35 63.65 507.95 61.4 479.35 61.95 483.55 59.75 492.55 57.35 502.15 54.75 505.7 53.15 467.9 49.95 447.1 50 413.05 50.1 389.2 57 406.25 56.25 438.85 61.2 473.3 66.35 488.8 66.3 480.7 68.75 462.4 69.9 444.55 71 435.7 73.95 451.75 72.3 476.8 78 500.75 83.4 515.8 91.4 504.2 96.6 483.8 95.55 457.85 94.2 451.1 95.15 448.9 95.45 438.65 97.25 431.15 98.6 426.1 99.05 423.95 99.3 409.4 98.15 397.7 97.25 394 98.9 419.75 86.85 438.2 85.55 430.6 79.55 406.9 81.5 406.3 81.6 388.1 83.45 377.45 84.6 372.25 84.35 351.8 83.3 345.25 83.55 330.95 84.05 318.7 88.5 328.75 88.4 338.95 90.6 349.85 93 358.25 97.4 349.7 102.3 336.4 102.5 326.8 102.6 313.85 100.2 298.75 96.3 289 94.25 270.95 90.5 265.1 93.35 281.45 84.8 302.95 84.3 255.25 84.3 239.3 85.4 201.25 87.95 176.2 97.8 188.9 104.3 215.2 107 229.9 108.5 256.4 109.85 215.3 114.75 171.05 112.8 159.65 112.35 130.4 108.5 104.9 105.15 89.35 105.45 117.2 95.4 142.25 94.95 124.45 86.6 91.9 86.7 55.7 88.2 39.5 87.05 44.9 81.15 59.6 79.7 67.6 78.95 82.4 78 51.1 68.45 14 67.2 -27.95 65.7 -53.6 76.5 -39.85 80.15 -19.9 81.05 -10.4 81.45 14.8 81.3 6.65 83.9 2.5 85.5 -4.75 88.25 -8.6 91.55 -6.5 91.65 -2.15 91.95 1.75 92.15 4.3 91.8 -5.9 93.8 -20 93.15 -22.55 93.05 -44.95 91.2 -76.55 88.5 -93.7 96 -87.1 96.5 -74.35 97.25 -63.2 98.1 -55.25 99.3 -49.6 100.2 -40.9 102.45 -28.25 105.75 -26.45 106.2 -38.35 105.2 -56.9 106.35 -77.2 108 -86.75 108.3 -96.7 108.65 -117.4 104.15 -136.7 99.9 -148.1 101.15 -144.65 101.75 -135.35 106.7 -126.95 111.2 -121.7 111.3 -138.55 111.3 -169.7 109.85 -202.4 108.45 -217.4 108.3 -211.6 105.45 -191.9 101.75 -172.9 98.15 -164.8 93.65 -174.85 92.55 -191.5 95.55 -211.75 99.15 -218.3 99.35 -221.5 99.5 -243.8 97.85 -258.05 96.8 -268.55 100.4 -287.5 107 -315.35 105.35 -347.6 101.85 -363.7 100.5 -337.1 90.45 -314.65 87.2 -308.45 86.3 -288.65 86.75 -271.7 87.15 -263.8 84.65 -277.4 83.55 -303.7 79.25 -330.2 74.9 -343.25 73.8 -359.35 72.45 -382.25 75 -408.05 78.45 -420.7 79.8 -411.25 82.25 -398.05 83.7 -390.55 84.6 -375.7 85.55 -390.55 85.05 -418.25 90.6 -447.95 96.45 -461.8 96.3 -468.4 96.2 -494.15 93.05 -513.1 90.75 -527.2 93.35 -518.95 92.15 -503.15 96.3 -489.35 99.95 -482.5 103.8 -494.35 107.6 -514 105.3 -536 101.75 -545.75 100.8 -559.85 99.45 -578.15 99.2 -586.15 99.15 -610.75 99.3 -584.05 98.55 -555.2 93.3 -566.9 93.05 -601.3 93.65 -630.4 94.2 -647.75 93.3 -653.3 93 -665.75 90.75 -676.9 88.7 -683.75 88.8 -707 89.25 -725.9 96.35 L-725.9 128.7 725.95 128.7 725.95 85.7 Q715.4 85.65 710.35 85.55 701.9 85.35 696.8 84.45 701.8 80.6 708.55 78.6 M693.25 43.8 Q695.35 43.8 690.5 41.75 685.3 39.6 677.5 38.4 653.6 34.55 625.75 43.05 620 44.85 634.25 43.35 655 41.15 662.5 41.55 670.75 42 682.1 42.95 691.75 43.8 693.25 43.8 Z" _p="true"></path></g></g><g><path stroke="#536e7c" stroke-opacity="1" stroke-width="0.73" stroke-linejoin="round" stroke-linecap="round" fill="none" d="M490.75 -7.2 L529.75 -7.2 M-562.25 -2.7 L-502.25 -2.7 M-307.25 73.8 Q-289.6 73.8 -256.1 76.8 -222.55 79.8 -205.25 79.8 M-508.25 87.3 L-475.25 87.3 M561.25 54.3 Q566.9 51.2 584.75 53.85 608.2 57.3 610.85 57.3 619.1 57.35 636.5 56.7 651.95 56.55 661.75 58.8 M429.25 21.3 Q436.75 21.6 450.35 19.95 464.6 18.2 471.25 18.3 M216.25 63.3 Q225.55 63.3 244.15 63.3 260 63.05 271.75 61.8 M15.25 58.8 Q40.9 58.8 87.2 65.1 136 71.7 159.25 72.3 M313.75 28.8 L351.25 28.8 M-709.25 72.3 Q-702.95 71.6 -692.65 69.65 -683.75 68.3 -676.25 69.65 -665.05 71.75 -656.3 72.75 -646.3 73.8 -635.75 73.8" _p="true"></path></g><g><path stroke="#000000" stroke-width="2.46" stroke-linejoin="round" stroke-linecap="round" fill="none" d="M725.95 -128.7 L-725.9 -128.7 M-725.9 128.7 L725.95 128.7" _p="true" stroke-opacity="1"></path></g></g>
</g></g><g transform="matrix(-0.399,0,0,0.4,256.5,232.5)" id="1646282188712448000" class="translatable prop"><g><g class="f1"><g><g><path fill="#a77739" colorid="100" fill-opacity="1" stroke="none" d="M-359.6 -29.3 Q-359.66 -30.00 -359.75 -30.7 L-368.05 -30.55 -363.6 1.75 Q-357 40 -346.55 69.85 L-334.9 69.6 Q-335.13 68.92 -335.4 68.2 L-274.15 69.9 Q-190.1 71.85 -109.5 72.15 141.22 73.07 270.85 58 L278.55 57.1 Q293.3 49.55 311.9 31.2 349 -5.55 368.05 -59.55 L364.8 -72.15 Q334.3 -64.55 281.05 -56.2 174.8 -39.4 57.4 -34.6 -60.45 -29.75 -223.15 -29 -338.44 -29.20 -359.6 -29.3 Z" _p="true"></path></g></g><g><g><path fill="#ffffff" fill-opacity="0.4" stroke="none" d="M57.95 -21.6 Q176.15 -26.5 283.4 -43.4 325.92 -50.12 354.15 -56.35 361.59 -57.95 368.05 -59.55 L364.8 -72.15 Q334.3 -64.55 281.05 -56.2 174.8 -39.4 57.4 -34.6 -60.45 -29.75 -223.15 -29 -338.44 -29.20 -359.6 -29.3 -358.75 -23.11 -357.55 -16.35 -339.90 -16.24 -277.2 -15.95 -172.9 -15.9 -80.85 -17.55 -5.5 -18.95 57.95 -21.6 Z" _p="true"></path></g></g><g><g><path fill="#000000" fill-opacity="0.2" stroke="none" d="M221.55 -22.7 Q243.4 -24.5 237.75 -14.25 232.45 -4.5 207.05 9.75 180 24.95 146.4 35.75 107.4 48.3 72.7 50.3 -13.7 55.3 -347.45 51.7 -345.1 60.5 -341.85 68 -238.65 71.65 -109.5 72.1 148.8 73.05 278.55 57.1 L288.25 50.95 Q300.25 42.6 311.9 31.15 349 -5.6 368.05 -59.6 L366.45 -65.9 Q313.35 -56.65 236.35 -46.8 82.45 -27.1 -36.7 -23.8 -155.85 -20.45 -271.15 -20.1 -328.8 -19.9 -362.6 -20.35 L-362.3 -17.15 Q-361.8 -13 -360.85 -8 -209.15 -10.8 -58.55 -14.25 186.65 -19.75 221.55 -22.7 Z" _p="true"></path></g></g><g><path stroke="#000000" stroke-width="0.99" stroke-linejoin="round" stroke-linecap="round" fill="none" d="M345.3 -37.8 Q242.85 -9.3 -69.1 -2.9 -166.5 -0.85 -273.3 -1.25 L-354.75 -2.05 Q-352.87 6.70 -350.45 16.32 L-269.65 17.7 Q-166.4 19 -71.7 17.7 231.15 13.5 333.65 -14.92 335.50 -17.98 337.3 -21.1 348.45 -40.55 354.15 -56.32 325.92 -50.12 283.4 -43.4 176.15 -26.5 57.95 -21.6 -5.5 -18.95 -80.85 -17.55 -172.9 -15.9 -277.2 -15.95 -339.90 -16.24 -357.55 -16.32 -356.34 -9.48 -354.75 -2.05 M368.05 -59.55 Q361.59 -57.95 354.15 -56.32 M333.65 -14.92 Q327.01 -4.02 319.45 6.25 310.38 18.55 300 29.95 300.27 29.87 300.55 29.8 M300 29.95 Q286.54 44.73 270.85 58 M-357.55 -16.32 Q-358.75 -23.11 -359.57 -29.3 M-350.45 16.32 Q-348.44 24.28 -346.07 32.85 L-271.3 34.9 Q-170.15 37.05 -77.7 36.45 218.5 34.5 319.45 6.25 M-346.07 32.85 Q-345.66 34.31 -345.25 35.8 -342.74 44.71 -340.37 52.52 L-261.75 54.5 Q-162.35 56.45 -72.65 56.05 213.98 54.70 300 29.95 M-335.37 68.22 Q-337.79 61.04 -340.37 52.52" _p="true" stroke-opacity="1"></path></g><g><path stroke="#000000" stroke-width="1.99" stroke-linejoin="round" stroke-linecap="round" fill="none" d="M-274.15 69.9 Q-190.1 71.85 -109.5 72.15 141.22 73.07 270.85 58 L278.55 57.1 Q293.3 49.55 311.9 31.2 349 -5.55 368.05 -59.55 L364.8 -72.15 Q334.3 -64.55 281.05 -56.2 174.8 -39.4 57.4 -34.6 -60.45 -29.75 -223.15 -29 -338.44 -29.20 -359.57 -29.3 -359.66 -30.00 -359.75 -30.7 L-368.05 -30.55 -363.6 1.75 Q-357 40 -346.55 69.85 L-334.9 69.6 Q-335.13 68.92 -335.37 68.22 L-274.15 69.9 Z" _p="true" stroke-opacity="1"></path></g></g>
</g></g><g transform="matrix(0.4,0,0,0.4,7,232.5)" id="1646281890715537408" class="translatable prop"><g><g class="f1"><g><g><path fill="#7b5f30" colorid="100" fill-opacity="1" stroke="none" d="M-359.6 -29.3 Q-359.66 -30.00 -359.75 -30.7 L-368.05 -30.55 -363.6 1.75 Q-357 40 -346.55 69.85 L-334.9 69.6 Q-335.13 68.92 -335.4 68.2 L-274.15 69.9 Q-190.1 71.85 -109.5 72.15 141.22 73.07 270.85 58 L278.55 57.1 Q293.3 49.55 311.9 31.2 349 -5.55 368.05 -59.55 L364.8 -72.15 Q334.3 -64.55 281.05 -56.2 174.8 -39.4 57.4 -34.6 -60.45 -29.75 -223.15 -29 -338.44 -29.20 -359.6 -29.3 Z" _p="true"></path></g></g><g><g><path fill="#ffffff" fill-opacity="0.4" stroke="none" d="M57.95 -21.6 Q176.15 -26.5 283.4 -43.4 325.92 -50.12 354.15 -56.35 361.59 -57.95 368.05 -59.55 L364.8 -72.15 Q334.3 -64.55 281.05 -56.2 174.8 -39.4 57.4 -34.6 -60.45 -29.75 -223.15 -29 -338.44 -29.20 -359.6 -29.3 -358.75 -23.11 -357.55 -16.35 -339.90 -16.24 -277.2 -15.95 -172.9 -15.9 -80.85 -17.55 -5.5 -18.95 57.95 -21.6 Z" _p="true"></path></g></g><g><g><path fill="#000000" fill-opacity="0.2" stroke="none" d="M221.55 -22.7 Q243.4 -24.5 237.75 -14.25 232.45 -4.5 207.05 9.75 180 24.95 146.4 35.75 107.4 48.3 72.7 50.3 -13.7 55.3 -347.45 51.7 -345.1 60.5 -341.85 68 -238.65 71.65 -109.5 72.1 148.8 73.05 278.55 57.1 L288.25 50.95 Q300.25 42.6 311.9 31.15 349 -5.6 368.05 -59.6 L366.45 -65.9 Q313.35 -56.65 236.35 -46.8 82.45 -27.1 -36.7 -23.8 -155.85 -20.45 -271.15 -20.1 -328.8 -19.9 -362.6 -20.35 L-362.3 -17.15 Q-361.8 -13 -360.85 -8 -209.15 -10.8 -58.55 -14.25 186.65 -19.75 221.55 -22.7 Z" _p="true"></path></g></g><g><path stroke="#000000" stroke-width="0.99" stroke-linejoin="round" stroke-linecap="round" fill="none" d="M345.3 -37.8 Q242.85 -9.3 -69.1 -2.9 -166.5 -0.85 -273.3 -1.25 L-354.75 -2.05 Q-352.87 6.70 -350.45 16.32 L-269.65 17.7 Q-166.4 19 -71.7 17.7 231.15 13.5 333.65 -14.92 335.50 -17.98 337.3 -21.1 348.45 -40.55 354.15 -56.32 325.92 -50.12 283.4 -43.4 176.15 -26.5 57.95 -21.6 -5.5 -18.95 -80.85 -17.55 -172.9 -15.9 -277.2 -15.95 -339.90 -16.24 -357.55 -16.32 -356.34 -9.48 -354.75 -2.05 M368.05 -59.55 Q361.59 -57.95 354.15 -56.32 M333.65 -14.92 Q327.01 -4.02 319.45 6.25 310.38 18.55 300 29.95 300.27 29.87 300.55 29.8 M300 29.95 Q286.54 44.73 270.85 58 M-357.55 -16.32 Q-358.75 -23.11 -359.57 -29.3 M-350.45 16.32 Q-348.44 24.28 -346.07 32.85 L-271.3 34.9 Q-170.15 37.05 -77.7 36.45 218.5 34.5 319.45 6.25 M-346.07 32.85 Q-345.66 34.31 -345.25 35.8 -342.74 44.71 -340.37 52.52 L-261.75 54.5 Q-162.35 56.45 -72.65 56.05 213.98 54.70 300 29.95 M-335.37 68.22 Q-337.79 61.04 -340.37 52.52" _p="true" stroke-opacity="1"></path></g><g><path stroke="#000000" stroke-width="1.99" stroke-linejoin="round" stroke-linecap="round" fill="none" d="M-274.15 69.9 Q-190.1 71.85 -109.5 72.15 141.22 73.07 270.85 58 L278.55 57.1 Q293.3 49.55 311.9 31.2 349 -5.55 368.05 -59.55 L364.8 -72.15 Q334.3 -64.55 281.05 -56.2 174.8 -39.4 57.4 -34.6 -60.45 -29.75 -223.15 -29 -338.44 -29.20 -359.57 -29.3 -359.66 -30.00 -359.75 -30.7 L-368.05 -30.55 -363.6 1.75 Q-357 40 -346.55 69.85 L-334.9 69.6 Q-335.13 68.92 -335.37 68.22 L-274.15 69.9 Z" _p="true" stroke-opacity="1"></path></g></g>
</g></g><g transform="matrix(0.52,0,0,0.52,149,356)" id="1639596534469365760" class="translatable prop"><g><g class="f1" transform="matrix(1,0,0,1,0.5,-133.6)"><g><g><path fill="#a2d8f4" colorid="197" fill-opacity="1" stroke="none" d="M313.7 -70.1 Q221.1 -79.3 191.9 -74.8 158.6 -69.7 62.9 -67.5 L-26.1 -66.4 Q-104.4 -67.4 -185.8 -68.3 -348.8 -70.3 -364.7 -70.3 -367.9 -70.3 -459.4 -75.9 -540.3 -80.8 -561 -78.4 -573.8 -76.8 -638.6 -71.2 -710 -65 -736 -62.3 L-736 79.2 736 79.2 736 -74.8 621 -74.8 Q591.8 -74.8 524.7 -70.1 474.5 -66.6 428.5 -62.4 414.1 -61.1 380.4 -63.8 368.7 -64.7 313.7 -70.1 Z" _p="true"></path></g></g><g><g><path fill="#000000" fill-opacity="0.2" stroke="none" d="M-707.4 -43.2 Q-713.1 -42.6 -716.7 -41.5 -686.2 -41.3 -677.5 -41.6 -676.6 -41.6 -669.8 -41.9 -665.2 -42.2 -662.2 -42 -659.9 -41.9 -653.4 -41.8 -647.97 -41.60 -645.3 -40.7 -654.25 -44.11 -660.2 -45.3 -667.6 -46.9 -676.1 -46.5 -680.8 -46.3 -687 -45.5 -694.2 -44.5 -697.9 -44 -704.2 -43.4 -707.4 -43.2 M-203.3 -13.2 Q-193.5 -12.5 -182.6 -12.4 -168.6 -12.2 -161.9 -13.2 -151.9 -14.7 -190.2 -3.5 -157.3 -8.7 -154.2 -10.2 -152.7 -10.9 -146.7 -14.3 -140.3 -17.5 -135.1 -18.4 -129.6 -19.4 -126.3 -18.6 -124 -18 -117.5 -15.5 -112.2 -13.6 -95.5 -14 -87.2 -14.1 -79.9 -14.7 -109.8 -18.4 -119.8 -21.4 -125.8 -23.2 -134.4 -22 -145 -19.9 -151.9 -19.2 -174.7 -17.2 -187.3 -16 -210.8 -13.7 -203.3 -13.2 M-271.8 -53.6 Q-273.4 -53.3 -274.6 -53.1 -267.6 -53.9 -255.3 -52.8 -247.7 -52.1 -241.6 -51.2 -250 -52.7 -256.9 -54.2 -261.1 -55.1 -271.8 -53.6 M-380.9 -26.4 Q-385.4 -26.1 -389 -25.9 L-371.9 -26 Q-340.7 -26.2 -333.5 -26.6 -322 -27.4 -302.9 -25.1 L-329.7 -31.1 Q-332.2 -32 -361.8 -28.1 -369.6 -27.2 -380.9 -26.4 M-504.7 -42.8 Q-515.4 -38.6 -522 -38.5 -516.3 -38.4 -507.3 -39.8 -495.6 -41.8 -490.5 -41.6 -466.7 -40.4 -452.2 -38.2 -458.2 -39.3 -468.5 -42.1 -480.5 -45.4 -485.6 -46.4 -492.6 -47.8 -504.7 -42.8 M-631.6 -12.3 Q-619.4 -13.2 -612 -11.6 -601.2 -9.3 -582.1 -1.2 -595.4 -5.2 -614.5 -1.8 -627.3 0.5 -645.7 7.1 -643.1 7.5 -638.9 6.9 -633 6.1 -632.1 6.1 -617.9 5.7 -610.7 5.7 -603.4 5.6 -593.7 6.7 -588.2 7.3 -577 8.7 -544.4 11.9 -523.9 12.1 -527.5 11.9 -533.6 9.8 -542 6.8 -543.3 6.5 -552.6 4.3 -558 2.2 -565.2 -0.5 -567 -1.4 -568.5 -2.2 -573 -5.4 -576.8 -8.1 -579.3 -8.8 -573.1 -9.6 -563.4 -12 -551 -15.1 -547.8 -15.7 -542.9 -16.7 -536.7 -15.3 -533.1 -14.5 -525.9 -12.3 -517.7 -10.1 -505 -11.6 -497.9 -12.4 -484.1 -14.3 -489.6 -17.4 -499.4 -17.6 -510.5 -17.2 -515.4 -17.2 -520.2 -17.2 -528.6 -19.5 -537.4 -21.9 -541.5 -22.1 -547.4 -22.4 -555.5 -20.5 -557.1 -20.1 -569.1 -16.6 -580.3 -13.4 -588.8 -13.3 -598.4 -13.3 -608.3 -17 -616.3 -20 -629.5 -17.3 -634.3 -16.3 -650.5 -11.2 -647.9 -11.1 -631.6 -12.3 M599.1 38.5 Q579 38.3 570.1 37.5 564.2 37 545.5 33.8 530.1 31.1 520.8 31.2 531.6 25.8 551.6 25.1 551.7 25.1 584.5 25.6 564.6 17 538.1 14 518.2 11.7 489.1 12.2 493.4 10.1 502.6 7.7 512.4 5.1 516 3.5 477.1 0.3 456.1 0.3 421.3 0.4 397 7.3 414.4 6.6 447.7 11.5 483 16.7 498.8 16.6 490.5 19.1 471.8 20.2 453.5 21.2 444.5 24.1 460.9 22.5 486.5 28.2 511 33.6 526.4 41.6 514.5 46.7 493.7 45.7 467.2 44.3 460.2 45.3 457.6 45.7 447.5 47.4 439.8 48.7 434.7 49.1 432.4 49.3 417.6 48.3 405.78 47.41 401.9 49.05 427.94 37.09 447 35.7 439.3 29.7 415.1 31.7 402 33 395.8 33.7 385 34.8 379.7 34.5 358.4 33.5 352.1 33.7 337.4 34.3 325 38.6 335.3 38.5 345.7 40.7 356.8 43.1 365.4 47.6 350.3 55.8 320 50.3 304.6 46.4 294.6 44.4 276.4 40.6 270.3 43.4 286.8 35.2 307.5 34.6 259.8 34.5 243.8 35.6 205 38.1 179.4 47.9 192.4 54.4 219.3 57.1 234.3 58.5 261.3 59.9 219.3 64.7 174.1 62.8 162.4 62.3 132.7 58.6 106.6 55.2 90.7 55.5 118.8 45.6 144.8 45 126.6 36.8 93.3 36.9 56.3 38.4 39.7 37.2 45.3 31.3 60.3 29.9 68.5 29.2 83.6 28.2 51.5 18.7 13.7 17.4 -29.1 16 -55.3 26.7 -41.2 30.4 -20.9 31.3 -10.8 31.7 14.6 31.5 6.2 34.1 2 35.7 -5.4 38.4 -9.3 41.7 -7.2 41.8 -2.7 42.1 1.2 42.3 3.9 42 -6.5 44 -20.9 43.3 -23.5 43.2 -46.5 41.4 -78.8 38.7 -96.3 46.1 -89.6 46.6 -76.5 47.4 -65 48.2 -56.9 49.4 -51.3 50.3 -42.3 52.5 -29.6 55.8 -27.6 56.2 -39.8 55.2 -58.7 56.4 -79.5 58.1 -89.2 58.4 -99.3 58.7 -120.5 54.2 -140.1 49.9 -151.8 51.2 -148.3 51.8 -138.8 56.8 -130.2 61.3 -124.8 61.4 -141.7 61.4 -173.9 59.9 -206.8 58.5 -222.6 58.4 -216.7 55.5 -196.6 51.9 -177.1 48.3 -168.9 43.8 -179.2 42.7 -196.2 45.6 -216.9 49.2 -223.6 49.5 -226.6 49.6 -249.6 47.9 -264.1 46.9 -274.9 50.5 -294.2 57.1 -322.6 55.4 -355.6 51.9 -372.1 50.6 -344.4 40.5 -322 37.4 -315.8 36.5 -295.4 37 -278.1 37.3 -270 34.8 -283.9 33.7 -310.8 29.5 -337.9 25.2 -351.1 24.1 -367.7 22.7 -391 25.2 -417.4 28.7 -430.3 30 -420.5 32.5 -407.1 33.9 -398.5 34.8 -383.3 35.7 -398.5 35.1 -427.8 40.7 -458.1 46.5 -472.2 46.4 -478.8 46.3 -505.3 43.2 -524.7 41 -539.1 43.5 -530.6 42.3 -514.5 46.4 -500.4 50 -493.4 53.9 -505.6 57.7 -525.6 55.4 -548 51.9 -558 50.9 -572.5 49.6 -591.1 49.3 -600.5 49.2 -621.5 49.4 -595.1 48.4 -567.6 43.4 -580.1 43.2 -614.7 43.8 -644.7 44.3 -662.2 43.5 -667.7 43.2 -680.5 40.9 -691.9 38.9 -698.9 39 -709.6 39.1 -718.2 41 -725.1 42.5 -736 46.5 L-736 78.6 736 78.6 736 35.9 Q726.4 35.8 722.6 35.7 716.4 35.5 711.2 34.6 721.8 26.9 736 26.7 716.7 20.3 683.6 22.3 656.9 24 630.3 30.1 677 34 704.4 49.1 650.8 52.8 577.8 54 589.5 48.9 601.3 46.5 611 44.4 626.3 43.1 616.9 39.3 599.1 38.5 M498.5 -28.9 Q490.4 -26.1 513.9 -26.5 525.7 -26.6 539.1 -27.4 522.2 -24.4 512.3 -24.4 505.7 -24.4 488.1 -21.2 468.4 -17.7 480.1 -19.2 489.6 -20.4 515 -20.6 541.6 -20.7 547.5 -19.2 554.1 -17.4 566 -17.6 577.9 -17.7 571.3 -19.9 562.5 -22.8 557.4 -25.3 550.8 -28.6 554.4 -29.6 557.8 -30.5 577.9 -25.9 588.3 -23.4 601.9 -19.9 605.7 -19 626 -20.1 636.2 -20.6 645.6 -21.4 598.1 -27.4 591.2 -28.1 580.1 -30.2 571.7 -31.7 555.7 -34.5 548.3 -34.1 522.9 -32.4 522.3 -32.4 504.5 -30.9 498.5 -28.9 M382.8 -22.2 Q379.8 -22.2 388.8 -19.8 396.2 -17.8 403.5 -16.2 410.4 -14.7 444.9 -20.7 418.8 -19.9 408.8 -20.7 L382.8 -22.2 M343 -58 Q340.1 -58 329.4 -55.7 319.6 -53.7 315.4 -53.5 L359.8 -54.2 Q369 -54.2 405.8 -50.5 385.9 -55.7 375.1 -56.5 352.2 -58 343 -58 M224.2 -64.7 Q228.9 -62.4 237.7 -65 237.3 -65 237 -65 223.3 -65.1 224.2 -64.7 M239 -65.4 Q238.3 -65.2 237.7 -65 244.3 -64.9 251 -64.7 L294.7 -64.7 Q276.3 -66.9 271.7 -66.9 269.4 -66.9 261.4 -68 253.3 -69.1 251 -69.1 250.8 -69.1 239 -65.4 M90.2 -25.9 L105.3 -26.2 Q121.4 -26.3 126.2 -25.9 133.8 -25.1 187.4 -23.7 165.2 -26.6 157.6 -26.6 154.7 -26.6 141.8 -29.1 129.6 -31.5 123.1 -31.1 116.1 -30.7 105.8 -28.8 94.8 -26.6 90.2 -25.9 M145.3 -66.9 Q139.4 -68.4 129.6 -69.1 110.1 -70.6 90.9 -66.9 88.1 -66.4 96.8 -66.9 108.9 -67.7 112.4 -67.7 120 -67.7 145.3 -66.9 M4.3 -31.9 Q15.5 -30 29.4 -32.3 34.1 -33.1 43.4 -35.6 45.1 -36 26.7 -39.2 9.2 -42.3 11.2 -42.3 12.6 -42.3 23.2 -41.9 33.8 -41.6 40.4 -41.6 51.8 -41.6 82.5 -39.3 85.4 -39.3 74.6 -42 63.6 -44.8 54.1 -45.3 46.2 -45.7 29.8 -48.9 14.1 -52 11.2 -52 5.8 -52 -3.2 -51.1 -12.7 -50.1 -17.1 -49 -20.7 -48.1 -32 -47.3 -50 -46.1 -51.6 -46 -56.8 -45.6 -29.8 -45.4 -16.3 -45.3 -1.8 -45.3 L-10.2 -40.1 Q-38.6 -40.1 -48.5 -39.3 L-90.6 -36.3 -78 -35.6 Q-63.1 -35.1 -51.6 -35.6 -24.4 -36.6 4.3 -31.9 M704.8 -7.8 Q699.5 -10 691.6 -11.2 667.1 -14.9 638.7 -6.5 632.8 -4.7 647.3 -6.2 668.6 -8.3 676.2 -8 684.5 -7.6 696.2 -6.6 705.9 -5.8 707.6 -5.8 709.8 -5.8 704.8 -7.8 Z" _p="true"></path></g></g><g><g><path fill="#ffffff" fill-opacity="0.4" stroke="none" d="M-19.5 43 Q-46.8 37 -57.6 37 -68.5 37 -83.5 41.6 L-96.3 46.1 -86.7 43.6 Q-75 41.3 -64.8 41.9 -48.4 42.9 5.7 48.9 -5.8 45.9 -19.5 43 M-702.2 -39.6 Q-678.6 -42.1 -653.3 -39.6 -640.6 -38.3 -632.7 -36.6 -648 -41.6 -656.2 -43.6 -664.4 -45.6 -702.2 -39.6 M-135.1 -7.3 Q-147.7 -9.4 -158.1 -6.5 -171.2 -2.8 -179.2 -1 -190.9 1.5 -200.9 2.2 -189.1 2.9 -156.7 -2.1 -131.24 -6.03 -113.9 -2.25 -132.83 -6.90 -135.1 -7.3 M456.3 16.9 Q492.3 17.8 482.7 17.1 475.6 16.6 438.4 11.7 402.9 7.1 401 7.1 393.6 7.1 383.3 7.8 366.6 8.8 355 11.1 337 14.8 362.6 15 376.7 15.1 406.1 15.1 420.5 15.9 456.3 16.9 M625.7 -30.7 Q618.8 -30.7 587.8 -35.9 562.3 -40.2 566.5 -38.6 599.6 -25.6 635.4 -26.8 653.6 -27.4 667.6 -30.7 639 -30.7 625.7 -30.7 M118.9 -39.9 Q115.8 -39.4 113.1 -39.2 117 -38.9 122.7 -38.5 147.3 -36.6 155.9 -36.6 171.2 -36.6 206.9 -31.6 167.1 -40.6 157.9 -41.6 152.3 -42.2 142.1 -42 131.9 -41.6 129.3 -41.6 128.7 -41.6 118.9 -39.9 Z" _p="true"></path></g></g><g><path stroke="#536e7c" stroke-opacity="1" stroke-width="0.49" stroke-linejoin="round" stroke-linecap="round" fill="none" d="M572.8 4.7 Q578.5 1.6 596.7 4.2 620.8 7.7 623.4 7.7 631.8 7.7 649.6 7.1 665.3 6.9 675.5 9.2 M438 -28.1 Q445.4 -27.9 459.5 -29.5 473.8 -31.2 480.9 -31.1 M500.8 -56.5 L540.6 -56.5 M320 -20.7 L358.3 -20.7 M-574.8 -52 L-513.5 -52 M-314.3 24.1 Q-296.4 24.1 -262.1 27.1 -227.9 30 -210.2 30 M-519.7 37.5 L-486 37.5 M220.4 13.6 L248.8 13.6 Q265 13.4 277.1 12.1 M15.1 9.2 Q41.3 9.2 88.5 15.4 138.5 22 162.2 22.6 M-725 22.6 Q-718.6 21.9 -708.1 19.9 -699.1 18.6 -691.3 20 -679.4 22.1 -670.9 23 -660.5 24.1 -649.9 24.1" _p="true"></path></g></g><g class="f2" transform="matrix(1,0,0,1,-0.5,-27.7)"><g><g><path fill="#c9ae75" colorid="254" fill-opacity="1" stroke="none" d="M736 27.7 L736 -27.7 -736 -27.7 -736 27.1 736 27.7 Z" _p="true"></path></g></g><g><g><path fill="#000000" fill-opacity="0.2" stroke="none" d="M736 27.7 L736 -5.7 -736 -4.6 -736 27.1 736 27.7 Z" _p="true"></path></g></g><g><path stroke="#000000" stroke-width="0.82" stroke-linejoin="round" stroke-linecap="round" fill="none" d="M605.7 -27.7 L659.2 -5.65 736 -5.7 M196.8 -27.7 L217.77 -5.32 217.8 -5.32 659.2 -5.65 662.9 27.67 M217.8 -5.32 L220.3 27.5 M-736 -4.6 L-605.4 -4.7 -605.17 -4.7 -551.7 -27.7 M-605.17 -4.7 L-163.92 -5.02 -163.9 -5.02 -142.5 -27.7 M-163.92 -5.02 L-166.3 27.32 M-605.4 -4.7 L-609 27.15 M-163.9 -5.02 L217.77 -5.32" _p="true" stroke-opacity="1"></path></g><g><path stroke="#000000" stroke-width="1.64" stroke-linejoin="round" stroke-linecap="round" fill="none" d="M-736 27.1 L-736 -27.7 736 -27.7 736 27.7 -736 27.1 Z" _p="true" stroke-opacity="1"></path></g></g>
</g></g></svg>