<?xml version="1.0"?><svg width="640" height="480" xmlns="http://www.w3.org/2000/svg">
 <title>Scotch Tape</title>
 <metadata id="metadata2890">image/svg+xml</metadata>
 <g>
  <title>Layer 1</title>
  <g id="layer1" display="inline" opacity="0.98"/>
  <path id="path3310" d="m489.562744,464.21994l-396.111603,-370.074829l-0.257813,-0.294785l-0.181442,-0.324448l-0.105484,-0.343597l-0.029709,-0.3526l0.045898,-0.35112l0.121307,-0.339523l0.19632,-0.317398l0.271217,-0.284927l24.592522,0.326134l0.654816,-22.038139l24.592529,0.326111l0.654785,-22.038116l134.592545,130.326111l-109.3452,-152.037992l24.592545,0.32597l0.654785,-22.03796l0.328857,-0.23119l0.361954,-0.16262l0.383331,-0.09447l0.393356,-0.02669l0.3918,0.04122l0.378754,0.10858l0.353958,0.17599l0.317978,0.24315l396.111588,370.074797l0.257813,0.294891l0.18158,0.32431l0.105469,0.343658l0.029602,0.35257l-0.045837,0.351227l-0.121338,0.339417l-0.19635,0.317383l-0.27124,0.284973l-24.592529,-0.326111l-98.654785,-25.961853l73.407593,47.673798l-0.654907,22.038147l-24.592529,-0.326111l-0.654785,22.038177l-24.59259,-0.326233l-0.654724,22.038116l-0.328918,0.23111l-0.361816,0.16272l-0.383423,0.094513l-0.393372,0.02655l-0.391785,-0.041107l-0.378662,-0.108765l-0.354065,-0.175964l-0.317993,-0.243073z" stroke-miterlimit="4" stroke-width="0.346" stroke="#000000" fill="#f4f4f4" opacity="0.588"/>
 </g>
</svg>