<?xml version="1.0" encoding="UTF-8" standalone="no"?>
<!-- Created with Inkscape (http://www.inkscape.org/) -->

<svg
   xmlns:dc="http://purl.org/dc/elements/1.1/"
   xmlns:cc="http://creativecommons.org/ns#"
   xmlns:rdf="http://www.w3.org/1999/02/22-rdf-syntax-ns#"
   xmlns:svg="http://www.w3.org/2000/svg"
   xmlns="http://www.w3.org/2000/svg"
   xmlns:sodipodi="http://sodipodi.sourceforge.net/DTD/sodipodi-0.dtd"
   xmlns:inkscape="http://www.inkscape.org/namespaces/inkscape"
   width="28.475878mm"
   height="78.992844mm"
   viewBox="0 0 28.475878 78.992844"
   version="1.1"
   id="svg8"
   inkscape:version="0.92.5 (2060ec1f9f, 2020-04-08)"
   sodipodi:docname="alice.svg">
  <defs
     id="defs2" />
  <sodipodi:namedview
     id="base"
     pagecolor="#ffffff"
     bordercolor="#666666"
     borderopacity="1.0"
     inkscape:pageopacity="0.0"
     inkscape:pageshadow="2"
     inkscape:zoom="1.979899"
     inkscape:cx="-108.07809"
     inkscape:cy="175.58862"
     inkscape:document-units="mm"
     inkscape:current-layer="layer1"
     showgrid="false"
     inkscape:window-width="1920"
     inkscape:window-height="1014"
     inkscape:window-x="0"
     inkscape:window-y="0"
     inkscape:window-maximized="1" />
  <metadata
     id="metadata5">
    <rdf:RDF>
      <cc:Work
         rdf:about="">
        <dc:format>image/svg+xml</dc:format>
        <dc:type
           rdf:resource="http://purl.org/dc/dcmitype/StillImage" />
        <dc:title></dc:title>
      </cc:Work>
    </rdf:RDF>
  </metadata>
  <g
     inkscape:label="Layer 1"
     inkscape:groupmode="layer"
     id="layer1"
     transform="translate(-77.236642,-78.010246)">
    <ellipse
       style="fill:none;stroke:#000000;stroke-width:0.26499999;stroke-miterlimit:4;stroke-dasharray:none;stroke-opacity:1"
       id="path42"
       cx="89.66893"
       cy="93.741524"
       rx="10.557146"
       ry="12.160764" />
    <path
       style="fill:#000000;fill-opacity:1;stroke:#000000;stroke-width:0.26499999;stroke-miterlimit:4;stroke-dasharray:none;stroke-opacity:1"
       id="path4556"
       d="m 83.810117,81.036495 c -0.08832,2.1664 -0.0739,4.335066 -0.06263,6.502694 -0.0011,2.024618 0.01516,4.049138 0.01786,6.073751 0.03672,0.325437 0.0641,0.652065 0.110159,0.976315 0.0979,0.689216 0.24379,1.370925 0.347364,2.05931 0.175702,1.167778 0.291719,2.337496 0.388003,3.513925 0.143383,1.92101 0.212553,3.84612 0.238369,5.77196 0.0099,1.53639 -2.65e-4,3.07289 0.0026,4.60935 0.04,1.07527 -0.10237,2.13887 -0.327764,3.1863 0,0 -3.481207,1.67513 -3.481207,1.67513 v 0 c 0.25259,-1.01552 0.392581,-2.0511 0.353639,-3.10153 0.0077,-1.53632 0.0077,-3.0726 0.0048,-4.60891 -0.0056,-1.92777 -0.01921,-3.85714 -0.158036,-5.7809 -0.188052,-2.203027 -0.529862,-4.377029 -0.905129,-6.554714 0.0027,-2.030674 0.01881,-4.061261 0.01786,-6.091941 0.01109,-2.146334 0.02699,-4.293809 -0.06264,-6.438868 0,0 3.516746,-1.791872 3.516746,-1.791872 z"
       inkscape:connector-curvature="0" />
    <path
       style="fill:#000000;fill-opacity:1;stroke:#000000;stroke-width:0.26499999;stroke-miterlimit:4;stroke-dasharray:none;stroke-opacity:1"
       id="path4558"
       d="m 86.583948,82.088455 c 0.817036,0.906089 1.280239,1.977183 1.605795,3.137775 0.404704,1.590707 -0.202662,2.922627 -0.634029,4.425786 -0.05448,0.312124 -0.173399,0.810556 -0.127296,1.14917 0.0094,0.06908 0.03837,0.190159 0.107278,0.179546 0.08357,-0.01288 0.208897,-0.252171 0.132268,-0.216439 -1.029025,0.479806 -1.973503,1.137441 -3.025177,1.565328 -0.213955,0.08705 0.304911,-0.347057 0.457364,-0.520584 0.967576,-1.442148 1.550956,-3.103734 2.140156,-4.726919 0.417494,-1.257374 0.781897,-2.549107 0.572908,-3.877164 -0.298699,-0.88202 -0.586827,-1.654942 -0.502992,-2.600008 0.424053,-1.661358 2.023933,-1.664258 3.947356,-2.45573 0.186214,-0.07663 1.073513,0.968529 1.192718,1.102786 0.13765,0.162179 0.272711,0.326591 0.412946,0.486542 0.137419,0.156742 0.264842,0.324102 0.419907,0.46341 0.497223,0.446696 1.123254,0.745948 1.644822,1.161915 0.18324,0.14614 0.347948,0.314111 0.52192,0.471168 0.971883,0.90679 1.238691,2.125982 1.38041,3.39258 0.01421,0.213127 0.02844,0.426251 0.04263,0.639379 0.01095,0.164398 0.0097,0.330062 0.03275,0.493201 0.01098,0.07761 0.02553,0.159507 0.06883,0.224843 0.01283,0.01939 0.08752,-0.03069 0.06675,-0.02024 -3.499614,1.759069 -4.295462,2.591874 -3.235076,1.529484 0.358746,-0.989679 0.346668,-2.070409 0.489551,-3.10584 0.169508,-1.292156 0.306133,-2.567411 0.833945,-3.770344 0,0 3.565734,-1.613329 3.565734,-1.613329 v 0 c -0.687332,1.213916 -0.706329,2.320925 -0.90361,3.666183 -0.165793,1.059582 -0.154982,2.13645 -0.379505,3.186827 -0.02514,0.110532 0.02199,0.273603 -0.07541,0.331597 -1.201529,0.715452 -3.241633,2.947088 -3.842292,1.68425 -0.114086,-0.239855 -0.07407,-0.574043 -0.08327,-0.815959 -0.0079,-0.207962 -0.02339,-0.415568 -0.0351,-0.62335 -0.120269,-1.173912 -0.326485,-2.304508 -1.230257,-3.148172 -1.00666,-0.882864 -2.248964,-1.482648 -3.029831,-2.610149 -0.20579,-0.215757 -0.506053,-0.57182 -0.785082,-0.725434 -0.08016,-0.04413 -0.344072,-0.0094 -0.267856,-0.06009 1.023228,-0.679881 2.14128,-1.20768 3.174973,-1.871543 0.12985,-0.08339 -0.756692,0.0076 -0.391951,0.246403 -0.191834,0.946682 0.146299,1.615864 0.431681,2.502787 0.24131,1.421937 -0.104616,2.73363 -0.548182,4.086164 -0.59359,1.64321 -1.181757,3.308474 -2.05581,4.826955 -1.197769,1.662761 -0.648039,1.056381 -4.196292,2.835164 -0.125452,0.06289 -0.281511,-0.08093 -0.380288,-0.180615 -0.396047,-0.39968 -0.06339,-1.185088 -0.03266,-1.625944 0.395465,-1.384004 1.030145,-2.760496 0.713478,-4.227145 -0.313677,-1.139399 -0.740468,-2.109078 -1.593522,-2.953295 0,0 3.399317,-2.040946 3.399317,-2.040946 z"
       inkscape:connector-curvature="0" />
    <path
       style="fill:#000000;fill-opacity:1;stroke:#000000;stroke-width:0.26499999;stroke-miterlimit:4;stroke-dasharray:none;stroke-opacity:1"
       id="path4560"
       d="m 81.682023,88.119764 c -0.04254,1.08966 -0.02619,2.18037 -0.02757,3.270543 -0.0011,1.224952 -0.0056,2.449891 -0.0038,3.674849 0.02686,1.185931 0.03935,2.359556 -0.167928,3.529949 -0.354762,1.405975 -0.4875,2.847645 -0.575035,4.290515 -0.05999,1.27006 -0.05455,2.54194 -0.06645,3.81304 -0.01188,1.0326 -0.0083,0.51197 -0.01045,1.56191 0,0 -3.447156,1.75682 -3.447156,1.75682 v 0 c -0.0041,-1.045 1.19e-4,-0.5279 -0.01236,-1.5513 -0.0085,-1.28096 0.0069,-2.56186 0.07397,-3.84139 0.07981,-1.45077 0.181205,-2.91214 0.530945,-4.32708 0.110977,-0.520018 0.165523,-0.677887 0.195993,-1.210486 0.0428,-0.74813 -0.03698,-1.503177 0.0044,-2.251863 0.0019,-1.223653 -0.0027,-2.447287 -0.0038,-3.670935 -0.0013,-1.080804 0.01537,-2.16218 -0.02757,-3.242448 0,0 3.53687,-1.802124 3.53687,-1.802124 z"
       inkscape:connector-curvature="0" />
    <ellipse
       style="fill:none;fill-opacity:1;stroke:#000000;stroke-width:0.26499999;stroke-miterlimit:4;stroke-dasharray:none;stroke-opacity:1"
       id="path4569"
       cx="95.813416"
       cy="90.984726"
       rx="2.0072305"
       ry="2.8904374" />
    <ellipse
       style="fill:none;fill-opacity:1;stroke:#000000;stroke-width:0.26499999;stroke-miterlimit:4;stroke-dasharray:none;stroke-opacity:1"
       id="path4569-3"
       cx="90.337105"
       cy="92.004272"
       rx="2.0072305"
       ry="2.8904374" />
    <ellipse
       style="fill:#000000;fill-opacity:1;stroke:#000000;stroke-width:0.26499999;stroke-miterlimit:4;stroke-dasharray:none;stroke-opacity:1"
       id="path4595"
       cx="90.537552"
       cy="92.538811"
       rx="0.73499119"
       ry="0.53453904" />
    <ellipse
       style="fill:#000000;fill-opacity:1;stroke:#000000;stroke-width:0.26499999;stroke-miterlimit:4;stroke-dasharray:none;stroke-opacity:1"
       id="path4595-6"
       cx="95.816124"
       cy="91.603363"
       rx="0.73499119"
       ry="0.53453904" />
    <path
       style="fill:none;fill-rule:evenodd;stroke:#000000;stroke-width:0.26458332px;stroke-linecap:butt;stroke-linejoin:miter;stroke-opacity:1"
       d="m 89.401657,98.552374 c 0.360846,0.0098 0.535088,0.490361 0.801806,0.668174 0.08288,0.05525 0.19684,0.0632 0.267272,0.133636 0.07043,0.07043 0.07838,0.18439 0.133633,0.267269 0.09173,0.137599 0.477591,0.378123 0.53454,0.400907 0.08272,0.0331 0.190876,-0.04584 0.267269,0 0.216075,0.12964 0.35636,0.35636 0.534541,0.53453 0.04454,0.0446 0.07252,0.11836 0.133633,0.13364 0.129645,0.0324 0.267268,0 0.400904,0 0.08909,0 0.187584,-0.0398 0.267269,0 1.16114,0.87085 0,0.16705 0.935445,0.40091 0.12223,0.0305 0.142991,0.24655 0.267269,0.26726 0.219694,0.0366 0.44545,0 0.668173,0 0.133636,0 0.272413,0.0367 0.400905,0 0.191545,-0.0547 0.345551,-0.20427 0.53454,-0.26726 0.08452,-0.0282 0.182751,0.0282 0.267269,0 0.05976,-0.0199 0.08122,-0.0987 0.133633,-0.13364 0.08288,-0.0553 0.189492,-0.0714 0.267272,-0.13363 0.147574,-0.11806 0.238847,-0.30368 0.400904,-0.40091 0.07639,-0.0458 0.182751,0.0282 0.267269,0 0.05976,-0.0199 0.09584,-0.0832 0.133633,-0.13363 0.09637,-0.12849 0.178181,-0.26727 0.267272,-0.400909"
       id="path4612"
       inkscape:connector-curvature="0" />
    <path
       style="fill:none;fill-rule:evenodd;stroke:#000000;stroke-width:0.26458332px;stroke-linecap:butt;stroke-linejoin:miter;stroke-opacity:1"
       d="m 89.668926,106.03592 c 0.04773,0.0838 -0.05554,1.09163 0,1.20271 0.08452,0.16904 0.316386,0.23187 0.400904,0.40091 0.02037,0.0408 0,1.30038 0,1.33635 0,0.80181 0,1.60361 0,2.40542 0,2.6727 0,5.34539 0,8.01809 0,0.89089 0,1.78179 0,2.67269 0,0.31182 0,0.62363 0,0.93545 0,0.13363 0,0.26727 0,0.4009 0,0.0891 0.02817,0.18275 0,0.26727 -0.01992,0.0598 -0.09869,0.0812 -0.133635,0.13364 -0.05525,0.0829 -0.08909,0.17817 -0.133634,0.26726 -6.681738,7.75082 -7.750816,9.08717 -7.750816,9.08717 l 16.971615,-0.13364 -9.220799,-8.95353"
       id="path4620"
       inkscape:connector-curvature="0" />
    <path
       inkscape:connector-curvature="0"
       id="path4622"
       d="m 89.668926,106.03592 c 0.04773,0.0838 -0.05554,1.09163 0,1.20271 0.08452,0.16904 0.316386,0.23187 0.400904,0.40091 0.02037,0.0408 0,1.30038 0,1.33635 0,0.80181 0,1.60361 0,2.40542 0,2.6727 0,5.34539 0,8.01809 0,0.89089 0,1.78179 0,2.67269 0,0.31182 0,0.62363 0,0.93545 0,0.13363 0,0.26727 0,0.4009 0,0.0891 0.02817,0.18275 0,0.26727 -0.01992,0.0598 -0.09869,0.0812 -0.133635,0.13364 -0.05525,0.0829 -0.08909,0.17817 -0.133634,0.26726 -6.681738,7.75082 -7.750816,9.08717 -7.750816,9.08717 l 16.971615,-0.13364 -9.220799,-8.95353"
       style="fill:none;fill-rule:evenodd;stroke:#000000;stroke-width:0.26458332px;stroke-linecap:butt;stroke-linejoin:miter;stroke-opacity:1" />
    <path
       style="fill:none;fill-rule:evenodd;stroke:#000000;stroke-width:0.26458332px;stroke-linecap:butt;stroke-linejoin:miter;stroke-opacity:1"
       d="m 85.125345,133.16378 v 14.16528 l -4.142679,9.62171 0.133635,-0.40091"
       id="path4624"
       inkscape:connector-curvature="0" />
    <path
       style="fill:none;fill-rule:evenodd;stroke:#000000;stroke-width:0.26458332px;stroke-linecap:butt;stroke-linejoin:miter;stroke-opacity:1"
       d="m 94.88068,133.29741 0.133636,12.69531 0.668173,8.81989"
       id="path4626"
       inkscape:connector-curvature="0" />
    <path
       style="fill:none;fill-rule:evenodd;stroke:#000000;stroke-width:0.26458332px;stroke-linecap:butt;stroke-linejoin:miter;stroke-opacity:1"
       d="m 89.668926,106.03592 -5.14485,7.69418 -0.334176,10.21288"
       id="path4628"
       inkscape:connector-curvature="0" />
    <path
       style="fill:none;fill-rule:evenodd;stroke:#000000;stroke-width:0.26458332px;stroke-linecap:butt;stroke-linejoin:miter;stroke-opacity:1"
       d="m 89.668926,106.03592 4.142676,8.01809 11.893498,-0.66818"
       id="path4630"
       inkscape:connector-curvature="0" />
  </g>
</svg>
