<?xml version="1.0" encoding="UTF-8" standalone="no"?>
<!-- Created with Inkscape (http://www.inkscape.org/) -->

<svg
   xmlns:dc="http://purl.org/dc/elements/1.1/"
   xmlns:cc="http://creativecommons.org/ns#"
   xmlns:rdf="http://www.w3.org/1999/02/22-rdf-syntax-ns#"
   xmlns:svg="http://www.w3.org/2000/svg"
   xmlns="http://www.w3.org/2000/svg"
   xmlns:sodipodi="http://sodipodi.sourceforge.net/DTD/sodipodi-0.dtd"
   xmlns:inkscape="http://www.inkscape.org/namespaces/inkscape"
   width="28.475878mm"
   height="78.992844mm"
   viewBox="0 0 28.475878 78.992844"
   version="1.1"
   id="svg8"
   inkscape:version="0.92.5 (2060ec1f9f, 2020-04-08)"
   sodipodi:docname="bob.svg">
  <defs
     id="defs2" />
  <sodipodi:namedview
     id="base"
     pagecolor="#ffffff"
     bordercolor="#666666"
     borderopacity="1.0"
     inkscape:pageopacity="0.0"
     inkscape:pageshadow="2"
     inkscape:zoom="1.979899"
     inkscape:cx="-108.07809"
     inkscape:cy="175.58862"
     inkscape:document-units="mm"
     inkscape:current-layer="layer1"
     showgrid="false"
     inkscape:window-width="1920"
     inkscape:window-height="1014"
     inkscape:window-x="0"
     inkscape:window-y="0"
     inkscape:window-maximized="1" />
  <metadata
     id="metadata5">
    <rdf:RDF>
      <cc:Work
         rdf:about="">
        <dc:format>image/svg+xml</dc:format>
        <dc:type
           rdf:resource="http://purl.org/dc/dcmitype/StillImage" />
        <dc:title></dc:title>
      </cc:Work>
    </rdf:RDF>
  </metadata>
  <g
     inkscape:label="Layer 1"
     inkscape:groupmode="layer"
     id="layer1"
     transform="translate(-77.236642,-78.010246)">
    <ellipse
       style="fill:none;stroke:#000000;stroke-width:0.26499999;stroke-miterlimit:4;stroke-dasharray:none;stroke-opacity:1"
       id="path42"
       cx="89.66893"
       cy="93.741524"
       rx="10.557146"
       ry="12.160764" />
    <ellipse
       style="fill:none;fill-opacity:1;stroke:#000000;stroke-width:0.26499999;stroke-miterlimit:4;stroke-dasharray:none;stroke-opacity:1"
       id="path4569"
       cx="95.813416"
       cy="90.984726"
       rx="2.0072305"
       ry="2.8904374" />
    <ellipse
       style="fill:none;fill-opacity:1;stroke:#000000;stroke-width:0.26499999;stroke-miterlimit:4;stroke-dasharray:none;stroke-opacity:1"
       id="path4569-3"
       cx="90.337105"
       cy="92.004272"
       rx="2.0072305"
       ry="2.8904374" />
    <ellipse
       style="fill:#000000;fill-opacity:1;stroke:#000000;stroke-width:0.26499999;stroke-miterlimit:4;stroke-dasharray:none;stroke-opacity:1"
       id="path4595"
       cx="90.537552"
       cy="92.538811"
       rx="0.73499119"
       ry="0.53453904" />
    <ellipse
       style="fill:#000000;fill-opacity:1;stroke:#000000;stroke-width:0.26499999;stroke-miterlimit:4;stroke-dasharray:none;stroke-opacity:1"
       id="path4595-6"
       cx="95.816124"
       cy="91.603363"
       rx="0.73499119"
       ry="0.53453904" />
    <path
       style="fill:none;fill-rule:evenodd;stroke:#000000;stroke-width:0.26458332px;stroke-linecap:butt;stroke-linejoin:miter;stroke-opacity:1"
       d="m 89.401657,98.552374 c 0.360846,0.0098 0.535088,0.490361 0.801806,0.668174 0.08288,0.05525 0.19684,0.0632 0.267272,0.133636 0.07043,0.07043 0.07838,0.18439 0.133633,0.267269 0.09173,0.137599 0.477591,0.378123 0.53454,0.400907 0.08272,0.0331 0.190876,-0.04584 0.267269,0 0.216075,0.12964 0.35636,0.35636 0.534541,0.53453 0.04454,0.0446 0.07252,0.11836 0.133633,0.13364 0.129645,0.0324 0.267268,0 0.400904,0 0.08909,0 0.187584,-0.0398 0.267269,0 1.16114,0.87085 0,0.16705 0.935445,0.40091 0.12223,0.0305 0.142991,0.24655 0.267269,0.26726 0.219694,0.0366 0.44545,0 0.668173,0 0.133636,0 0.272413,0.0367 0.400905,0 0.191545,-0.0547 0.345551,-0.20427 0.53454,-0.26726 0.08452,-0.0282 0.182751,0.0282 0.267269,0 0.05976,-0.0199 0.08122,-0.0987 0.133633,-0.13364 0.08288,-0.0553 0.189492,-0.0714 0.267272,-0.13363 0.147574,-0.11806 0.238847,-0.30368 0.400904,-0.40091 0.07639,-0.0458 0.182751,0.0282 0.267269,0 0.05976,-0.0199 0.09584,-0.0832 0.133633,-0.13363 0.09637,-0.12849 0.178181,-0.26727 0.267272,-0.400909"
       id="path4612"
       inkscape:connector-curvature="0" />
    <path
       style="fill:none;fill-rule:evenodd;stroke:#000000;stroke-width:0.26458332px;stroke-linecap:butt;stroke-linejoin:miter;stroke-opacity:1"
       d="m 89.668926,106.03592 -5.14485,7.69418 -0.334176,10.21288"
       id="path4628"
       inkscape:connector-curvature="0" />
    <path
       style="fill:none;fill-rule:evenodd;stroke:#000000;stroke-width:0.26458332px;stroke-linecap:butt;stroke-linejoin:miter;stroke-opacity:1"
       d="m 89.668926,106.03592 4.142676,8.01809 11.893498,-0.66818"
       id="path4630"
       inkscape:connector-curvature="0" />
    <path
       style="fill:#000000;fill-opacity:1;stroke:#000000;stroke-width:0.84999996;stroke-miterlimit:4;stroke-dasharray:none;stroke-opacity:1"
       id="path843"
       d="m 80.654889,84.568185 c -0.02971,1.071696 -0.0666,2.145388 -0.0016,3.216153 0.04516,0.241777 0.09603,1.214107 0.377377,1.322082 0.09332,0.03581 0.269863,-0.120416 0.312205,-0.149922 -2.380453,1.371739 -1.461963,0.940457 -0.900697,0.214413 0.29484,-0.3814 0.54642,-0.79614 0.800544,-1.204859 0.350951,-0.618095 0.631246,-1.282109 0.833182,-1.96383 0.133606,-0.515184 0.15469,-1.047877 0.170113,-1.576941 -0.0066,-0.878225 -0.220882,-0.421907 1.759448,-1.060984 0.06522,-0.02105 0.0065,0.137116 0.01625,0.204952 0.01605,0.111736 0.09329,0.459598 0.115008,0.560251 0.158055,0.654399 0.1961,1.328824 0.227264,1.998839 0.0033,0.116791 -0.001,0.234048 0.0099,0.350373 0.0062,0.06613 0.02058,0.131844 0.04136,0.194935 0.0072,0.0218 0.03289,0.07672 0.04104,0.05527 0.293416,-0.771577 -2.133961,1.542914 -1.481062,0.558007 0.318661,-0.578111 0.614756,-1.161477 0.807596,-1.793927 0.146673,-0.689233 0.369644,-1.353529 0.582565,-2.02361 0.09249,-0.288688 0.190518,-0.575808 0.291566,-0.861622 0.01002,-0.02834 0.08627,-0.246222 0.113344,-0.26131 0.594783,-0.33149 1.208651,-0.627516 1.812977,-0.941275 0.21019,0.23466 0.232162,0.542331 0.289868,0.837845 0.0389,0.19921 0.08177,0.397624 0.121996,0.596571 0.026,0.410399 0.199563,0.783239 0.3071,1.173159 0.06843,0.248123 0.09632,0.429084 0.143359,0.682436 0.02154,0.108075 0.03308,0.218638 0.06463,0.324224 0.03443,0.115194 0.08672,0.279042 0.227928,0.315041 0.03939,0.01004 0.154737,-0.04564 0.119164,-0.02596 -1.811531,1.002188 -2.007211,1.173676 -1.387268,0.685611 0.400893,-0.479562 0.52395,-1.11651 0.715069,-1.697286 0.211162,-0.547288 0.41228,-1.095751 0.680838,-1.617892 0.25055,-0.40122 0.397114,-0.834123 0.472643,-1.297914 0.147794,-0.90349 0.563269,-0.776458 1.83498,-1.419917 0.09094,-0.04601 0.286233,0.456631 0.310005,0.513229 0.216809,0.5715 0.253782,1.187484 0.290196,1.791613 0.04947,0.67288 -0.01729,1.351336 0.06962,2.020437 0.136373,0.573971 0.172615,1.177036 0.371433,1.735003 0.655404,0.02306 0.876808,0.02674 -1.69828,0.854103 -0.114186,0.03669 0.08499,-0.224406 0.122116,-0.338451 0.16805,-0.516189 0.27379,-1.040473 0.374295,-1.572994 0.226706,-0.933782 0.341081,-1.887 0.497589,-2.832936 0.144329,-0.608874 0.273731,-1.219055 0.379194,-1.835712 0.296735,-0.838555 0.912458,-0.838659 2.032644,-1.226411 0.11811,-0.04088 0.395165,0.664125 0.424916,0.741419 0.03753,0.112531 0.07383,0.225481 0.112591,0.337593 0.06185,0.17887 0.185934,0.500113 0.23057,0.683248 0.117112,0.480488 0.158113,0.980748 0.210995,1.470985 0.103987,0.755568 0.108563,1.555001 0.439951,2.255197 0.0279,0.03207 0.04532,0.07791 0.08369,0.0962 0.01677,0.008 0.05902,-0.04454 0.04251,-0.03603 -0.561521,0.289446 -1.106811,0.611258 -1.678778,0.879472 -0.04052,0.019 0.04681,-0.0774 0.05973,-0.12025 0.03911,-0.129706 0.0506,-0.329324 0.06299,-0.458632 -0.0015,-0.568425 0.141675,-1.10084 0.408777,-1.598282 0.257838,-0.348435 0.409826,-0.753251 0.581301,-1.14722 0,0 1.789874,-0.821658 1.789874,-0.821658 v 0 c -0.172374,0.399812 -0.314009,0.825826 -0.580095,1.173475 -0.29529,0.454927 -0.462805,0.969733 -0.44766,1.516939 -0.0023,0.04522 -0.03321,0.651834 -0.0516,0.664169 -1.014849,0.681042 -1.488824,1.598473 -1.980239,0.814267 -0.304576,-0.738488 -0.333106,-1.544753 -0.428918,-2.329888 -0.08582,-0.852737 -0.213975,-1.639102 -0.560863,-2.429774 -0.06462,-0.165446 -0.111679,-0.328467 -0.225292,-0.46936 -0.03301,-0.04094 -0.165458,-0.06769 -0.123034,-0.09878 0.500362,-0.366614 1.058619,-0.64685 1.586114,-0.973219 0.03916,-0.02423 -0.08758,0.035 -0.120963,0.06671 -0.04544,0.04317 -0.07325,0.101721 -0.109874,0.152582 -0.117468,0.619189 -0.225224,1.238845 -0.402894,1.845423 -0.168855,0.950409 -0.284692,1.910648 -0.524671,2.848175 -0.09239,0.53105 -0.195505,1.051515 -0.326155,1.574273 -0.02701,0.108065 0.01163,0.259414 -0.07854,0.324806 -1.696345,1.230136 -1.432504,1.601117 -1.833908,0.938644 -0.152376,-0.584818 -0.228553,-1.185968 -0.359721,-1.775543 -0.01797,-0.115417 -0.04462,-0.229813 -0.05391,-0.34625 -0.04436,-0.556174 0.03245,-1.130749 -0.02429,-1.688395 -0.03135,-0.579826 -0.06281,-1.17289 -0.27631,-1.719683 -0.02794,-0.06057 -0.05415,-0.121971 -0.08382,-0.181711 -0.01527,-0.03074 -0.02394,-0.06829 -0.05091,-0.08952 -0.0116,-0.0091 -0.01998,0.05125 -0.0073,0.04371 0.539401,-0.320514 1.067098,-0.660328 1.600648,-0.990493 -0.02733,0.03673 -0.06418,0.06801 -0.08199,0.110188 -0.02439,0.05773 -0.02799,0.122186 -0.04198,0.183279 -0.06802,0.48219 -0.181949,0.947082 -0.45185,1.360958 -0.02748,0.05055 -0.239535,0.439119 -0.259999,0.483429 -0.167253,0.362154 -0.263651,0.754546 -0.44349,1.111522 -0.213218,0.59353 -0.326797,1.232781 -0.662364,1.775275 -0.480444,0.558592 -1.888328,1.75651 -2.382443,0.957018 -0.116485,-0.188476 -0.131555,-0.382359 -0.172457,-0.594576 -0.05138,-0.281325 -0.06284,-0.382496 -0.139765,-0.655422 -0.111674,-0.396244 -0.283667,-0.777291 -0.31509,-1.193677 -0.131844,-0.642457 0.0096,0.03594 -0.128596,-0.594686 -0.03853,-0.175806 -0.04716,-0.473753 -0.185388,-0.605636 0.550374,-0.319023 1.10531,-0.630301 1.65112,-0.957069 0.02883,-0.01726 -0.07267,0.0038 -0.09718,0.02675 -0.04242,0.03975 -0.0675,0.09568 -0.09047,0.149086 -0.119585,0.278127 -0.186135,0.582134 -0.30212,0.862032 -0.102582,0.330815 -0.237027,0.655074 -0.333654,0.986905 -0.0987,0.33895 -0.153879,0.692938 -0.250029,1.032872 -0.07787,0.278989 -0.102956,0.398266 -0.211893,0.668842 -0.159673,0.396598 -0.388698,0.760554 -0.557031,1.153198 -0.361809,0.819886 -0.13013,0.395479 -1.878457,1.324447 -0.0538,0.02859 -0.11614,-0.04639 -0.159581,-0.08911 -0.132303,-0.130092 -0.07416,-0.556704 -0.09651,-0.699121 -0.02577,-0.658902 -0.06302,-1.321112 -0.217846,-1.964673 -0.01402,-0.06023 -0.185539,-0.787059 -0.180937,-0.790373 2.048358,-1.475302 1.778438,-1.622344 1.756118,-0.723503 -0.007,0.544878 -0.0375,1.090956 -0.154404,1.62496 -0.192192,0.705455 -0.495054,1.383105 -0.839996,2.025991 -0.253966,0.412579 -0.507732,0.825837 -0.786543,1.222378 -0.06746,0.09594 -0.372567,0.531653 -0.50252,0.616077 -0.622637,0.40449 -1.275579,0.760299 -1.913368,1.140449 -0.08087,0.01333 -0.161145,0.04894 -0.242621,0.04 -0.53467,-0.05869 -0.533957,-1.182362 -0.59185,-1.551408 -0.05467,-1.063687 -0.01592,-2.129678 -0.06557,-3.193861 0,0 1.758374,-0.895936 1.758374,-0.895936 z"
       inkscape:connector-curvature="0" />
    <path
       style="fill:none;fill-rule:evenodd;stroke:#000000;stroke-width:0.26458332px;stroke-linecap:butt;stroke-linejoin:miter;stroke-opacity:1"
       d="m 89.668926,106.03592 c 0.530288,21.96843 0.530288,21.96843 0.530288,21.96843 l -6.013564,25.12333 v 0 h 0.133634"
       id="path845"
       inkscape:connector-curvature="0" />
    <path
       style="fill:none;fill-rule:evenodd;stroke:#000000;stroke-width:0.26458332px;stroke-linecap:butt;stroke-linejoin:miter;stroke-opacity:1"
       d="m 90.199214,128.00435 5.483275,26.80826"
       id="path847"
       inkscape:connector-curvature="0" />
  </g>
</svg>
