<?xml version="1.0" encoding="UTF-8" standalone="no"?>
<!-- Created with Inkscape (http://www.inkscape.org/) -->

<svg
   xmlns:dc="http://purl.org/dc/elements/1.1/"
   xmlns:cc="http://creativecommons.org/ns#"
   xmlns:rdf="http://www.w3.org/1999/02/22-rdf-syntax-ns#"
   xmlns:svg="http://www.w3.org/2000/svg"
   xmlns="http://www.w3.org/2000/svg"
   xmlns:sodipodi="http://sodipodi.sourceforge.net/DTD/sodipodi-0.dtd"
   xmlns:inkscape="http://www.inkscape.org/namespaces/inkscape"
   width="57.255016mm"
   height="69.710045mm"
   viewBox="0 0 57.255016 69.710045"
   version="1.1"
   id="svg8"
   inkscape:version="0.92.5 (2060ec1f9f, 2020-04-08)"
   sodipodi:docname="fire.svg">
  <defs
     id="defs2" />
  <sodipodi:namedview
     id="base"
     pagecolor="#ffffff"
     bordercolor="#666666"
     borderopacity="1.0"
     inkscape:pageopacity="0.0"
     inkscape:pageshadow="2"
     inkscape:zoom="0.35"
     inkscape:cx="-403.67921"
     inkscape:cy="-66.295064"
     inkscape:document-units="mm"
     inkscape:current-layer="layer1"
     showgrid="false"
     inkscape:window-width="1920"
     inkscape:window-height="1014"
     inkscape:window-x="0"
     inkscape:window-y="0"
     inkscape:window-maximized="1" />
  <metadata
     id="metadata5">
    <rdf:RDF>
      <cc:Work
         rdf:about="">
        <dc:format>image/svg+xml</dc:format>
        <dc:type
           rdf:resource="http://purl.org/dc/dcmitype/StillImage" />
        <dc:title></dc:title>
      </cc:Work>
    </rdf:RDF>
  </metadata>
  <g
     inkscape:label="Layer 1"
     inkscape:groupmode="layer"
     id="layer1"
     transform="translate(-66.363338,-61.58272)">
    <path
       style="fill:#ff0000;fill-opacity:1;stroke:#ff0000;stroke-width:0.84999996;stroke-miterlimit:4;stroke-dasharray:none;stroke-opacity:1"
       id="path815"
       d="m 76.788906,82.28201 c 0.05391,0.628198 0.02342,1.269442 0.161716,1.884588 0.209156,0.930246 0.575389,1.818108 0.874358,2.723491 0.835771,2.530991 1.764371,5.031295 2.567567,7.572811 3.66192,11.58725 -1.098574,-2.644288 2.770785,8.76398 1.472012,4.0697 2.93134,8.14718 4.203867,12.28481 0.839816,2.73068 1.48232,5.25434 2.696765,7.84389 3.512074,2.27957 2.663233,1.39575 -8.314573,4.9851 -0.631777,0.20657 0.731988,-1.13106 0.92243,-1.76789 0.348798,-1.16636 0.513678,-2.38238 0.679379,-3.58845 0.534418,-3.88983 0.634658,-7.12055 0.861837,-11.06669 0.485609,-10.93741 0.43537,-21.886949 0.285915,-32.830875 -0.179063,-7.936224 -2.249546,-5.283769 9.753568,-9.96161 0.261564,-0.101936 0.120975,0.548815 0.202054,0.817576 0.141126,0.467804 0.30938,0.926994 0.464071,1.390491 1.214607,4.462833 1.652188,9.074457 1.969474,13.672754 -0.119184,7.250094 -4.664916,13.161391 -8.314994,19.083954 -0.646073,1.15402 -5.133176,7.26556 -3.624093,8.78099 0.295796,0.29705 2.28537,0.14776 2.324121,0.14692 0.576027,-0.16198 1.155837,-0.31104 1.728075,-0.48593 0.630891,-0.19282 1.265376,-0.3785 1.880479,-0.61693 0.63804,-0.24732 2.458635,-1.19382 1.873898,-0.83837 -2.312146,1.40553 -4.637064,2.80341 -7.06646,3.99487 -0.870468,0.42691 1.612408,-1.08151 2.367084,-1.69014 0.827323,-0.66721 1.580989,-1.42092 2.371482,-2.13138 3.256505,-3.375 5.650545,-7.45899 7.512129,-11.73837 0.649862,-2.641176 1.717932,-5.16078 2.71333,-7.684841 0.69698,-1.76734 1.33044,-3.563787 2.36416,-5.164323 3.42712,-1.492771 6.6849,-3.459022 10.28136,-4.478313 0.49576,-0.140505 0.10693,1.030155 0.0713,1.544211 -0.0422,0.609034 -0.1897,1.20636 -0.30334,1.806181 -0.465,2.454309 -0.94246,4.888042 -1.3229,7.358472 -0.8195,6.291207 0.31994,3.960445 -10.05794,7.606313 -0.48136,0.16911 0.70309,-0.742682 1.00861,-1.151302 0.42299,-0.565746 0.78146,-1.176978 1.17219,-1.765464 3.15726,-4.804532 5.92411,-9.810237 7.77594,-15.25928 1.14281,-3.404029 1.33128,-6.975076 1.42549,-10.531107 0.0428,-6.528044 -1.41047,-4.821299 9.92829,-8.428482 0.47604,-0.151443 -0.0724,0.99659 -0.0952,1.495613 -0.0377,0.821401 -0.0576,1.64352 -0.0864,2.465279 -0.46906,8.655891 -2.59084,17.076136 -5.20556,25.302267 -0.59873,1.641417 -1.16922,3.293412 -1.7962,4.924248 -1.2914,3.359088 -2.71232,6.667198 -4.02116,10.019538 -1.37357,3.51813 -2.65471,7.06198 -4.1056,10.5493 -2.78854,5.32782 -4.96592,5.16638 -12.272165,8.9226 -0.417134,0.21445 -1.758825,-0.36716 -2.011624,-0.59881 -0.385996,-0.3537 -0.6129,-0.84897 -0.919351,-1.27345 -0.146727,-0.66697 -0.411911,-1.31857 -0.440184,-2.0009 -0.08197,-1.97795 0.548296,-4.18634 1.07134,-6.0364 1.110348,-3.92741 2.471073,-7.79361 3.697438,-11.68597 1.659565,-5.19936 2.868756,-10.498672 3.002354,-15.962032 -0.01392,-2.811209 -0.0024,-1.353942 -0.03697,-4.37178 0,0 9.724382,-4.982657 9.724382,-4.982657 v 0 c 0.10258,3.020799 0.0699,1.554065 0.1039,4.400061 -0.049,1.55348 -0.0593,2.946903 -0.25636,4.499221 -0.51499,4.057039 -1.75855,7.975814 -2.91223,11.881767 -1.24271,3.84634 -2.55057,7.67608 -3.62083,11.57554 -0.45485,1.65721 -1.05253,3.70484 -1.05321,5.48267 -1.9e-4,0.51066 0.18008,1.00532 0.27011,1.50797 0.55288,0.62295 0.51408,0.87604 1.38409,0.83277 0.26106,-0.013 0.97807,-0.34328 0.75735,-0.20328 -2.84157,1.80239 -5.765167,3.47207 -8.647744,5.2081 0.364657,-0.28516 0.791173,-0.50532 1.093973,-0.85547 0.482737,-0.55821 0.82329,-1.22505 1.234934,-1.83758 1.651606,-3.50516 3.032917,-7.08906 4.481117,-10.68266 1.98875,-4.93494 4.09484,-9.82653 5.82702,-14.861025 2.56528,-8.051326 4.69049,-16.310083 4.92797,-24.804655 -0.0224,-0.797182 -0.0379,-1.594583 -0.0672,-2.391543 -0.0175,-0.477644 -0.46455,-1.157663 -0.0732,-1.43203 11.98423,-8.40132 9.87528,-8.196797 9.95076,-1.643468 -0.0532,3.668078 -0.18084,7.369384 -1.37147,10.879587 -0.64702,1.905138 -0.95998,2.959548 -1.79746,4.837803 -1.64971,3.699886 -3.86014,7.105624 -5.82804,10.63529 -0.35343,0.592616 -0.71405,1.180997 -1.06028,1.777846 -0.2625,0.452533 -0.30991,1.113274 -0.76574,1.37 -13.338282,7.512015 -11.14809,8.085965 -10.10555,1.380429 0.44317,-2.981598 1.03416,-5.940073 1.49135,-8.916101 0.0504,-0.327732 -0.19956,-0.811192 0.0786,-0.991619 3.12508,-2.026841 6.52083,-3.602154 9.78125,-5.403231 -0.28363,0.196713 -0.64389,0.313931 -0.8509,0.590143 -0.53688,0.716354 -1.79314,3.719446 -2.03415,4.31646 -0.99512,2.465088 -2.06938,4.966586 -2.49645,7.603781 -1.65337,4.454826 -4.49884,8.661463 -7.5455,12.271593 -5.599756,5.458 -7.569243,5.96312 -16.257649,10.71359 -0.802114,0.43856 -3.012837,1.12045 -3.912452,1.30704 -0.642845,0.13333 -1.301311,0.1752 -1.951964,0.2628 -1.183195,-0.19979 -2.290476,-0.11838 -3.071243,-1.26003 -1.737466,-2.54056 2.463577,-7.81185 3.639137,-9.79317 3.515349,-5.71864 8.056369,-11.376756 8.329573,-18.354758 -0.263012,-4.486915 -0.607915,-9.013171 -1.948048,-13.330525 -0.175514,-0.449813 -0.33977,-0.904182 -0.526539,-1.349439 -0.159324,-0.379833 -0.851051,-0.891953 -0.511363,-1.124916 12.072149,-8.279198 9.936469,-7.678848 9.791837,0.02842 -0.17332,11.009513 -0.305231,22.020199 -0.570211,33.027848 -0.1705,4.86892 -0.197901,9.78113 -0.827164,14.62069 -0.104363,0.80263 0.244887,1.92622 -0.416986,2.39208 -9.946606,7.00092 -8.183372,8.28447 -11.669763,4.43126 -1.041895,-2.6621 -1.686367,-5.35475 -2.458429,-8.10443 -1.169884,-4.16652 -2.587741,-8.25786 -4.092771,-12.31365 -0.495141,-1.45376 -0.990279,-2.90752 -1.485421,-4.36128 -0.444407,-1.4543 -0.852156,-2.92032 -1.333219,-4.362927 -0.403791,-1.210876 -2.238637,-6.109269 -2.761517,-7.454469 -0.369173,-0.949764 -0.831636,-1.865201 -1.140516,-2.836254 -0.200408,-0.630052 -0.253889,-1.297715 -0.380833,-1.946574 0,0 9.946862,-5.068181 9.946862,-5.068181 z"
       inkscape:connector-curvature="0" />
    <g
       id="g830"
       style="fill:#ffc800;fill-opacity:1;stroke:#ffc800;stroke-opacity:1"
       transform="translate(-15.231901,-65.756844)">
      <path
         inkscape:connector-curvature="0"
         d="m 106.16579,194.78584 c 0.19006,-5.52843 0.16083,-11.06197 0.1275,-16.59277 -0.11222,-3.73586 0.27282,-7.5301 -0.29901,-11.24573 -0.27036,-1.75676 -0.79986,-3.34034 -1.30128,-5.03672 -0.68798,-1.95534 -1.48209,-3.86857 -2.20997,-5.80886 0,0 9.63699,-5.33893 9.63699,-5.33893 v 0 c 0.68957,1.98429 1.43428,3.94732 2.11963,5.93322 0.39565,1.34266 1.18278,3.86554 1.40473,5.23395 0.60549,3.7331 0.13832,7.58433 0.31233,11.33931 -0.0329,5.48746 -0.065,10.97785 0.12749,16.46285 0,0 -9.91841,5.05368 -9.91841,5.05368 z"
         id="path821"
         style="fill:#ffc800;fill-opacity:1;stroke:#ffc800;stroke-width:0.84999996;stroke-miterlimit:4;stroke-dasharray:none;stroke-opacity:1" />
      <path
         inkscape:connector-curvature="0"
         d="m 103.41749,194.36176 c 2.88128,-1.8488 4.89338,-4.61398 6.35958,-7.65375 1.23892,-3.84958 2.28951,-7.77257 3.18448,-11.72045 0.94641,-4.42514 2.44307,-8.70373 3.67869,-13.05363 1.07171,-3.40262 3.55983,-5.94447 5.65333,-8.72411 0,0 10.1322,-4.38373 10.1322,-4.38373 v 0 c -1.96547,2.79435 -4.55385,5.16745 -5.84289,8.40008 -1.9777,6.3134 0.94994,-3.11686 -1.15178,3.96742 -0.89275,3.00921 -2.13205,5.92506 -2.63723,9.04107 -0.79917,4.01874 -1.93193,7.94665 -3.00864,11.89144 -1.29283,3.14486 -3.20175,6.03653 -5.91524,8.14588 0,0 -10.4525,4.08978 -10.4525,4.08978 z"
         id="path823"
         style="fill:#ffc800;fill-opacity:1;stroke:#ffc800;stroke-width:0.84999996;stroke-miterlimit:4;stroke-dasharray:none;stroke-opacity:1" />
      <path
         inkscape:connector-curvature="0"
         d="m 102.04373,189.99977 c -2.729027,-5.37966 -5.668024,-10.64934 -8.457225,-15.99741 -1.781577,-3.74297 -3.742579,-7.3963 -5.800796,-10.99308 0,0 9.442503,-5.42874 9.442503,-5.42874 v 0 c 1.958975,3.66234 3.837828,7.36697 5.617448,11.12018 2.86685,5.31238 5.73549,10.63346 8.89684,15.77672 0,0 -9.69877,5.52233 -9.69877,5.52233 z"
         id="path825"
         style="fill:#ffc800;fill-opacity:1;stroke:#ffc800;stroke-width:0.84999996;stroke-miterlimit:4;stroke-dasharray:none;stroke-opacity:1" />
    </g>
  </g>
</svg>
