<svg xmlns="http://www.w3.org/2000/svg" xmlns:xlink="http://www.w3.org/1999/xlink" viewBox="0 0 300 300" style="display: block;"><!-- 0.5412813294872627 --><rect width="300" height="300" fill="#ffffff"></rect><g class="character" data-priority="1" data-movemode="x" transform="matrix(0.65,0,0,0.65,52.5,123.47)"><g transform="matrix(1,0,0,1,172.46,70.26)" class="body"><g></g></g><g transform="matrix(0.95,0.33,-0.3256,0.95,158.35,124.17)" class="body"><g></g></g><g transform="matrix(0.81,0.028,-0.0261,0.75,169.84,89.61)" class="head"><g><g><g class="c2" transform="matrix(1,0,0,1,0.05,0)"><g><g><path fill="#f4d47a" fill-opacity="1" stroke="none" d="M-20.8 -14.25 L-21.9 -14.85 Q-22.9 -15.3 -23.9 -14.5 -25.25 -13.4 -27.2 -10.5 -30.65 -5.25 -31.75 -1.95 -33.45 2.95 -32.4 7.7 -31.25 13.05 -26.85 15.4 -26.5 15.6 -25.85 15.95 -25.25 16.3 -24.8 16.4 -25.15 14.55 -25.15 14.15 -25.15 12.3 -24.95 11.5 -24.9 11.25 -24.5 10.2 -23.9 9.2 -23.9 9.15 L-23.55 11.5 Q-22.85 13.95 -20.8 14.65 L-20.45 8.55 -20 11.45 Q-19.3 14.5 -17.75 15.3 -15.35 16.55 -12.5 16.4 -12.9 15.65 -13.2 14.95 -13.85 13.55 -13.5 13.8 -13.3 13.9 -12.25 15.1 -11.3 16.15 -10.95 16.15 -7.1 16.15 -5.8 15.55 L-3.55 14.4 Q-5.9 13.65 -8.4 11.85 -13.45 8.2 -14.15 2.8 -14.6 -1.25 -13.65 -4.2 -13.2 -5.3 -13.15 -5.65 -13.05 -6.15 -13.35 -7 -14 -8.6 -17.3 -11.65 -19.05 -13.25 -20.8 -14.25 M17.85 -6.4 Q15.3 -7.75 12.85 -4.7 11.25 -2.7 12.15 -0.1 12.55 1 13.45 3.25 13.55 3.65 13.65 4.8 13.75 5.8 13.95 6.35 15.1 9.55 14.3 15.05 L15.3 11.2 15.95 15.55 18.95 15.2 19.95 10.2 20.1 15.2 22.6 14.7 Q24.45 7.85 20.65 -1.65 19.5 -4.4 19.5 -4.5 18.75 -5.95 17.85 -6.4 Z" _p="true"></path></g></g><g><g><path fill="#000000" fill-opacity="0.2" stroke="none" d="M21.6 14.9 Q22.2 10.05 20.6 4.1 19.8 1.15 18.9 -0.85 16.15 -3.85 13.85 1.6 13.45 5 13.95 6.35 14.7 8.3 14.6 11.9 14.5 13.65 14.3 15.05 L15.3 11.2 15.95 15.55 17.1 15.4 19.15 9.4 18.15 15.3 18.95 15.2 19.95 10.2 20.1 15.2 21.6 14.9 M-19.45 -13.4 Q-25.2 -7.3 -27.85 -1.85 -31.2 5.1 -30.15 11.95 -28.55 14.1 -25.65 15.8 -25.5 11.6 -24.25 9.3 -24.9 3.15 -21.5 -2.85 -22 -0.45 -22.3 2.8 -22.85 9.35 -21.7 13.7 -21.3 14 -20.8 14.15 L-20.45 8.05 -20 10.95 Q-19.3 14 -17.75 14.8 -15.55 15.9 -12.75 15.9 -14.15 13.45 -13.55 13.8 -13.7 13.15 -13.5 13.3 -13.3 13.4 -12.25 14.6 -11.3 15.65 -10.95 15.65 -7.1 15.65 -5.8 15.05 L-4.1 14.2 Q-7.15 13 -9.55 11 -13.55 7.55 -14.15 2.8 -14.55 -0.5 -13.9 -3.4 -13.6 -5.05 -13.15 -6.35 L-13.35 -7 Q-14 -8.6 -17.3 -11.65 -18.5 -12.75 -19.45 -13.4 Z" _p="true"></path></g></g><g><path stroke="#000000" stroke-width="1.53" stroke-linejoin="round" stroke-linecap="round" fill="none" d="M19.4 -4.6 L21.95 1.25 Q24.2 8.3 22.55 14.15 M-23.15 -14.95 Q-30.65 -8 -32.4 0.45 -34.5 10.55 -25.77 16.07" _p="true" stroke-opacity="1"></path><path stroke="#000000" stroke-width="0.76" stroke-linejoin="round" stroke-linecap="round" fill="none" d="M19.3 6.8 Q19.5 7.4 19.6 8.15 L20 9.8 Q20.65 13.2 20.1 15.2 M15.4 10.05 L15.85 12.35 Q16.25 14.75 15.95 15.55 L18.95 15.2 Q19.3 13.95 19.55 12.25 19.85 9.85 19.6 8.15 M12.9 1.15 L14 5.85 Q15 11.3 14.3 15.05 M-24 -7.45 Q-27.55 -4.1 -28.3 2.4 -28.9 7.65 -27.65 11.7 -27.4 12.4 -26.8 14.4 -26.38 15.44 -25.77 16.07 -25.35 16.47 -24.85 16.7 -25.15 15.9 -25.15 13.45 -25.1 12.35 -24.7 10.8 L-23.95 8.2 Q-23.75 10.75 -23.4 11.85 -22.65 14.25 -20.85 14.65 -20.75 13.6 -20.85 11.15 -20.9 8.9 -20.75 7.65 -20.55 8.05 -19.75 11.8 -19.15 14.7 -17.45 15.55 -16.6 15.95 -14.75 16.2 -13.15 16.4 -12.1 16.3 -15.7 12.95 -16.7 9.65 -17.88 5.80 -17.12 -1.85 -17.11 -1.98 -17.1 -2.1 M-12.45 -6.45 Q-15.45 -0.35 -13.45 5.65 -11.25 12.55 -3.35 14.3 -4.3 15.35 -6.9 15.65 -9.4 15.3 -11.95 12.9 -16.3 8.8 -16.9 0.9 L-16.75 4.9 Q-15.5 12.4 -10.65 16.15 M-16.9 0.9 Q-17 -0.45 -17.12 -1.85" _p="true" stroke-opacity="1"></path></g><g><g><path fill="#f4d47a" fill-opacity="1" stroke="none" d="M-21.65 -14.75 Q-24.05 -16.45 -25.4 -15.65 L-26.35 -14.85 Q-27.15 -13.65 -26.2 -11.8 -23.8 -11.1 -20.6 -9.05 -17.55 -7.05 -16.05 -5.5 -15.65 -5.1 -14.75 -3.8 -13.85 -2.75 -13 -3.1 -12.2 -3.45 -12.1 -4.6 -12 -5.55 -12.35 -6.4 -13.15 -8.6 -16.4 -10.8 L-18.35 -12.1 Q-20.35 -13.85 -21.65 -14.75 Z" _p="true"></path></g><path stroke="#000000" stroke-width="1.53" stroke-linejoin="round" stroke-linecap="round" fill="none" d="M-16.4 -10.8 L-18.35 -12.1 Q-20.35 -13.85 -21.65 -14.75 -24.05 -16.45 -25.4 -15.65 L-26.35 -14.85 Q-27.15 -13.65 -26.2 -11.8 -23.8 -11.1 -20.6 -9.05 -17.55 -7.05 -16.05 -5.5 -15.65 -5.1 -14.75 -3.8 -13.85 -2.75 -13 -3.1 -12.2 -3.45 -12.1 -4.6 -12 -5.55 -12.35 -6.4 -13.15 -8.6 -16.4 -10.8 Z" _p="true" stroke-opacity="1"></path></g><g><g><path fill="#000000" fill-opacity="0.6" stroke="none" d="M-21.65 -14.75 Q-24.05 -16.45 -25.4 -15.65 L-26.35 -14.85 Q-27.15 -13.65 -26.2 -11.8 -23.8 -11.1 -20.6 -9.05 -17.55 -7.05 -16.05 -5.5 -15.65 -5.1 -14.75 -3.8 -13.85 -2.75 -13 -3.1 -12.2 -3.45 -12.1 -4.6 -12 -5.55 -12.35 -6.4 -13.15 -8.6 -16.4 -10.8 L-18.35 -12.1 Q-20.35 -13.85 -21.65 -14.75 Z" _p="true"></path></g></g></g></g>
</g></g><g transform="matrix(0.65,0.16,-0.1621,0.65,167.85,109.47)" class="body"><g><g><g class="c1"><g class="tb"><g><g><path fill="#fee9ca" fill-opacity="1" stroke="none" d="M-1.6 -7.65 Q-4.8 -6.95 -6.6 -4.3 -7.9 -2.3 -7.85 0 -7.85 0.75 -7.7 1.6 -7.05 4.8 -4.35 6.55 -2.3 7.9 0 7.85 0.75 7.85 1.55 7.7 4.75 7.05 6.5 4.35 7.85 2.3 7.85 0 7.85 -0.75 7.65 -1.55 7 -4.75 4.3 -6.55 2.3 -7.85 0 -7.85 -0.75 -7.85 -1.6 -7.65 Z" _p="true"></path></g><path stroke="#000000" stroke-width="1.53" stroke-linejoin="miter" stroke-linecap="round" stroke-miterlimit="1" fill="none" d="M6.5 4.35 Q4.75 7.05 1.55 7.7 0.75 7.85 0 7.85 -2.3 7.9 -4.35 6.55 -7.05 4.8 -7.7 1.6 -7.85 0.75 -7.85 0 -7.9 -2.3 -6.6 -4.3 -4.8 -6.95 -1.6 -7.65 -0.75 -7.85 0 -7.85 2.3 -7.85 4.3 -6.55 7 -4.75 7.65 -1.55 7.85 -0.75 7.85 0 7.85 2.3 6.5 4.35 Z" _p="true" stroke-opacity="1"></path></g></g><g class="ta" transform="matrix(1,0,0,1,0,39.95)"><g><g><path fill="#fee9ca" fill-opacity="1" stroke="none" d="M-1.3 -6.25 Q-3.9 -5.7 -5.4 -3.5 -6.45 -1.85 -6.4 0 -6.4 0.65 -6.3 1.3 -5.8 3.9 -3.55 5.35 -1.9 6.45 0 6.4 0.65 6.4 1.25 6.3 3.85 5.8 5.3 3.6 6.4 1.9 6.4 0 6.4 -0.65 6.25 -1.25 5.75 -3.85 3.55 -5.35 1.85 -6.4 0 -6.4 -0.65 -6.4 -1.3 -6.25 Z" _p="true"></path></g><path stroke="#000000" stroke-width="1.53" stroke-linejoin="miter" stroke-linecap="round" stroke-miterlimit="1" fill="none" d="M5.3 3.6 Q3.85 5.8 1.25 6.3 0.65 6.4 0 6.4 -1.9 6.45 -3.55 5.35 -5.8 3.9 -6.3 1.3 -6.4 0.65 -6.4 0 -6.45 -1.85 -5.4 -3.5 -3.9 -5.7 -1.3 -6.25 -0.65 -6.4 0 -6.4 1.85 -6.4 3.55 -5.35 5.75 -3.85 6.25 -1.25 6.4 -0.65 6.4 0 6.4 1.9 5.3 3.6 Z" _p="true" stroke-opacity="1"></path></g></g><g><g><path fill="#fee9ca" fill-opacity="1" stroke="none" d="M6.45 39.9 Q6.8 36.1 7.15 32.4 7.8 25 7.85 19.15 7.85 10.75 7.85 0.05 7.83 0.02 7.8 0 -0.06 -1.09 -7.75 0 -7.80 0.04 -7.85 0.1 L-6.35 39.9 6.45 39.9 Z" _p="true"></path></g><path stroke="#000000" stroke-width="1.53" stroke-linejoin="miter" stroke-linecap="round" stroke-miterlimit="1" fill="none" d="M7.85 0.05 Q7.85 10.75 7.85 19.15 7.8 25 7.15 32.4 6.8 36.1 6.45 39.9 M-6.35 39.9 L-7.85 0.1" _p="true" stroke-opacity="1"></path></g></g></g>
</g></g><g transform="matrix(-0.1394,-0.6556,0.66,-0.1394,161.37,135.45)" class="body"><g><g><g class="c1"><g class="tb" display="none"><g><g><path fill="#fee9ca" fill-opacity="1" stroke="none" d="M-1.3 -6.25 Q-3.9 -5.7 -5.4 -3.5 -6.45 -1.85 -6.4 0 -6.4 0.65 -6.3 1.3 -5.8 3.9 -3.55 5.35 -1.9 6.45 0 6.4 0.65 6.4 1.25 6.3 3.85 5.8 5.3 3.6 6.4 1.9 6.4 0 6.4 -0.65 6.25 -1.25 5.75 -3.85 3.55 -5.35 1.85 -6.4 0 -6.4 -0.65 -6.4 -1.3 -6.25 Z" _p="true"></path></g><path stroke="#000000" stroke-width="1.53" stroke-linejoin="miter" stroke-linecap="round" stroke-miterlimit="1" fill="none" d="M5.3 3.6 Q3.85 5.8 1.25 6.3 0.65 6.4 0 6.4 -1.9 6.45 -3.55 5.35 -5.8 3.9 -6.3 1.3 -6.4 0.65 -6.4 0 -6.45 -1.85 -5.4 -3.5 -3.9 -5.7 -1.3 -6.25 -0.65 -6.4 0 -6.4 1.85 -6.4 3.55 -5.35 5.75 -3.85 6.25 -1.25 6.4 -0.65 6.4 0 6.4 1.9 5.3 3.6 Z" _p="true" stroke-opacity="1"></path></g></g><g class="ta" transform="matrix(1,0,0,1,0,34.45)"><g><g><path fill="#fee9ca" fill-opacity="1" stroke="none" d="M-0.7 -3.35 Q-2.1 -3.05 -2.85 -1.85 -3.45 -1 -3.45 0 -3.45 0.35 -3.35 0.7 -3.05 2.1 -1.9 2.85 -1 3.45 0 3.45 0.35 3.45 0.7 3.35 2.05 3.1 2.85 1.9 3.45 1 3.4 0 3.4 -0.35 3.35 -0.65 3.05 -2.05 1.9 -2.85 1 -3.45 0 -3.4 -0.35 -3.4 -0.7 -3.35 Z" _p="true"></path></g><path stroke="#000000" stroke-width="1.53" stroke-linejoin="miter" stroke-linecap="round" stroke-miterlimit="1" fill="none" d="M2.85 1.9 Q2.05 3.1 0.7 3.35 0.35 3.45 0 3.45 -1 3.45 -1.9 2.85 -3.05 2.1 -3.35 0.7 -3.45 0.35 -3.45 0 -3.45 -1 -2.85 -1.85 -2.1 -3.05 -0.7 -3.35 -0.35 -3.4 0 -3.4 1 -3.45 1.9 -2.85 3.05 -2.05 3.35 -0.65 3.4 -0.35 3.4 0 3.45 1 2.85 1.9 Z" _p="true" stroke-opacity="1"></path></g></g><g><g><path fill="#fee9ca" fill-opacity="1" stroke="none" d="M-4.9 12 Q-4.3 15.05 -3.7 24.25 -3.45 27.65 -3.5 31.3 -3.5 34.4 -3.45 34.65 L3.4 34.9 Q3.75 33.5 4.75 18.6 4.96 15.30 5.65 9.4 6.5 2.1 6.4 -0.15 L-6.4 -0.15 Q-6.35 4.5 -4.9 12 Z" _p="true"></path></g><path stroke="#000000" stroke-width="1.53" stroke-linejoin="miter" stroke-linecap="square" stroke-miterlimit="3" fill="none" d="M-3.45 34.65 Q-3.5 34.4 -3.5 31.3 -3.45 27.65 -3.7 24.25 -4.3 15.05 -4.9 12 -6.35 4.5 -6.4 -0.15 M6.4 -0.15 Q6.5 2.1 5.65 9.42 4.96 15.30 4.75 18.6 3.75 33.5 3.4 34.9" _p="true" stroke-opacity="1"></path></g></g></g>
</g></g><g transform="matrix(-0.1057,-0.5996,0.6,-0.1057,183.95,130.65)" class="body"><g><g><g class="c1" transform="matrix(0.96,-0.25,0.25,0.96,0,0)"><g class="tb" display="none"><g><g><path fill="#fee9ca" fill-opacity="1" stroke="none" d="M-0.65 -3.2 Q-2 -2.9 -2.75 -1.8 -3.3 -0.95 -3.3 0 -3.3 0.3 -3.2 0.65 -2.95 2 -1.8 2.75 -0.95 3.3 0 3.3 0.3 3.3 0.65 3.2 2 2.95 2.7 1.8 3.3 0.95 3.3 0 3.3 -0.3 3.2 -0.65 2.95 -2 1.8 -2.75 0.95 -3.3 0 -3.3 -0.3 -3.3 -0.65 -3.2 Z" _p="true"></path></g><path stroke="#000000" stroke-width="1.53" stroke-linejoin="miter" stroke-linecap="round" stroke-miterlimit="1" fill="none" d="M2.7 1.8 Q2 2.95 0.65 3.2 0.3 3.3 0 3.3 -0.95 3.3 -1.8 2.75 -2.95 2 -3.2 0.65 -3.3 0.3 -3.3 0 -3.3 -0.95 -2.75 -1.8 -2 -2.9 -0.65 -3.2 -0.3 -3.3 0 -3.3 0.95 -3.3 1.8 -2.75 2.95 -2 3.2 -0.65 3.3 -0.3 3.3 0 3.3 0.95 2.7 1.8 Z" _p="true" stroke-opacity="1"></path></g></g><g><g><path fill="#fee9ca" fill-opacity="1" stroke="none" d="M-0.85 18.15 Q-0.15 18.7 -0.05 18.75 0.4 19 0.9 18.7 1.95 18.2 2.85 17.3 3.4 18.45 3.95 18.9 4.7 19.45 5.85 19.15 6.5 19 6.95 18.1 7.05 18 7.6 16.6 8.45 14.35 8.25 12.7 L7.95 6.05 2.95 0.2 -2.55 -1.55 Q-7.05 2.35 -9.05 12.3 -9.25 13.5 -8.5 15.3 -8 16.45 -7.3 16.5 -6.95 16.5 -6.25 16.25 -5.75 16.25 -5.2 16.95 -4.55 17.65 -4.15 17.75 -3.9 17.8 -3 17.6 -1.8 17.35 -0.85 18.15 Z" _p="true"></path></g></g><g><path stroke="#000000" stroke-width="1.15" stroke-linejoin="round" stroke-linecap="round" fill="none" d="M2.85 17.15 Q2.05 17.9 1 18.45 0.4 18.8 -0.55 18.15 -1.65 17.35 -2.05 17.3 -2.25 17.3 -2.8 17.5 -3.35 17.7 -3.65 17.65 -4.55 17.5 -5.15 16.9 L-5.7 16.3 Q-6.05 16.1 -6.6 16.1 -7.25 16.2 -7.6 16.2 -7.9 16.2 -8 16.1 -8.15 16.05 -8.25 15.75 -9.1 13.6 -9.15 13.35 -9.2 13.1 -8.9 11.2 -8.35 7.8 -6.6 4.15 -4.85 0.5 -2.7 -1.6" _p="true" stroke-opacity="1"></path></g></g></g>
</g></g><g transform="matrix(-0.1057,-0.5996,0.6,-0.1057,183.95,130.65)" class="body"><g><g><g class="c1" transform="matrix(0.96,-0.25,0.25,0.96,0,0)"><g><g><path fill="#fee9ca" fill-opacity="1" stroke="none" d="M1.9 9.2 Q0.9 9 0.45 9.5 -2 7.5 -3 9.4 -3.45 8.15 -5.1 9.15 -5.7 9.55 -6.55 10.95 -7.3 12.2 -8.2 12.5 L-8.8 12.7 Q-9.35 13 -9.15 13.8 -9 14.5 -8.45 15.3 -7.85 16.2 -7.25 16.3 -6.8 16.4 -5.95 16.35 -5.55 16.45 -5 17 -4.4 17.6 -4.05 17.7 -3.7 17.8 -2.95 17.5 -2.3 17.2 -1.85 17.4 -1.4 17.65 -0.5 18.25 0.3 18.65 0.9 18.35 2.1 17.7 2.85 16.9 3.45 18.2 4.05 18.7 5.1 19.55 6.05 18.95 6.5 18.65 6.9 17.8 7.65 16.3 7.85 15.05 8.05 13.85 7.9 12.15 7.9 11.55 7.65 11.15 7.3 10.65 6.3 10.45 L3.35 10 Q2.9 9.4 1.9 9.2 Z" _p="true"></path></g></g><g><path stroke="#988c79" stroke-opacity="1" stroke-width="0.53" stroke-linejoin="round" stroke-linecap="round" fill="none" d="M2.95 17.6 L3.4 12.3 M3.15 9.8 Q2.55 9.4 1.8 9.3 1 9.15 0.45 9.47 L0.4 9.5 Q0.1 10.6 -0.55 13.3 -1.15 15.75 -1.55 17.1 M0.45 9.47 Q-0.5 8.75 -1.55 8.6 -2.05 8.5 -2.25 8.6 -2.52 8.73 -2.8 9.32 -2.82 9.38 -2.85 9.45 L-4.75 14.8 Q-5.05 15.6 -5.35 15.9 M-2.8 9.32 Q-3 8.85 -3.5 8.7 -3.95 8.55 -4.45 8.8 -5 9 -6 10.2 L-7.5 12.25" _p="true"></path></g><g><g><path fill="#fee9ca" fill-opacity="1" stroke="none" d="M11 10.4 L11.05 9.3 Q10.8 6 7.7 2.9 6.15 1.3 5.35 0.7 3.7 -0.5 2.35 -0.25 0.9 0.05 0.1 1.75 -0.7 3.35 -0.4 4.8 -0.1 6.4 0.6 7.35 1.25 8.15 2.65 8.8 3.1 9 4.55 9.4 3.25 9.45 2.65 10.65 2 11.85 3.45 12.35 L8 13.9 Q8.3 14 8.4 13.95 9.15 13.9 10.05 12.5 10.85 11.25 11 10.4 Z" _p="true"></path></g></g><g><path stroke="#988c79" stroke-opacity="1" stroke-width="0.53" stroke-linejoin="round" stroke-linecap="round" fill="none" d="M8.1 13.55 Q4.45 12.55 2.6 11.95 2.3 11.35 2.7 10.6 3.05 9.9 3.75 9.6 4.39 9.36 5.27 9.42 3.34 9.02 2.65 8.75 1 8.15 0.35 6.85 0 6.2 -0.2 5.05 M6 5.35 Q5 7.15 5.47 9.45 5.53 9.45 5.6 9.47 6.07 9.51 6.6 9.65 6.45 9.1 7 8.8 M5.47 9.45 Q5.36 9.43 5.27 9.42 5.42 9.46 5.6 9.47" _p="true"></path></g><g><path stroke="#000000" stroke-width="1.15" stroke-linejoin="round" stroke-linecap="round" fill="none" d="M2.85 17.15 Q3.35 18.1 3.75 18.6 3.9 18.9 4.2 19.05 4.55 19.25 5.1 19.15 6.05 19.05 6.35 18.75 6.55 18.55 6.65 18.25 7.05 17.45 7.5 16.05 8 14.35 8.2 13.8 M2.85 17.15 Q2.05 17.9 1 18.45 0.4 18.8 -0.55 18.15 -1.65 17.35 -2.05 17.3 -2.25 17.3 -2.8 17.5 -3.35 17.7 -3.65 17.65 -4.55 17.5 -5.15 16.9 L-5.7 16.3 Q-6.05 16.1 -6.6 16.1 -7.25 16.2 -7.6 16.2 -7.9 16.2 -8 16.1 -8.15 16.05 -8.25 15.75 L-8.85 14.2 Q-9.25 13.1 -9.1 12.35" _p="true" stroke-opacity="1"></path></g><g><path stroke="#000000" stroke-width="1.15" stroke-linejoin="round" stroke-linecap="round" fill="none" d="M8.15 14.4 Q9.05 13.6 10.65 11.8 L10.9 11.4 10.95 10.8 Q10.75 7.9 10.7 7.6 10.35 5.7 9.5 4.75 6.05 1 3.2 -0.3" _p="true" stroke-opacity="1"></path></g></g></g>
</g></g><g transform="matrix(0.65,0.16,-0.1621,0.65,167.85,109.47)" class="body"><g><g><g class="c4"><g class="tb" transform="matrix(-1,0,0,-1,0,0)"><g><g><path fill="#d6d7d2" fill-opacity="1" stroke="none" d="M7.65 -1.55 Q7.24 -3.54 6.05 -5 1.34 1.01 -6.1 -5 -6.34 -4.66 -6.6 -4.3 -7.9 -2.3 -7.85 0 -7.85 0.75 -7.7 1.6 -7.05 4.8 -4.35 6.55 -2.3 7.9 0 7.85 0.75 7.85 1.55 7.7 4.75 7.05 6.5 4.35 7.85 2.3 7.85 0 7.85 -0.75 7.65 -1.55 Z" _p="true"></path></g><path stroke="#000000" stroke-width="1.53" stroke-linejoin="miter" stroke-linecap="round" stroke-miterlimit="1" fill="none" d="M6.05 -5 Q7.24 -3.54 7.65 -1.55 7.85 -0.75 7.85 0 7.85 2.3 6.5 4.35 4.75 7.05 1.55 7.7 0.75 7.85 0 7.85 -2.3 7.9 -4.35 6.55 -7.05 4.8 -7.7 1.6 -7.85 0.75 -7.85 0 -7.9 -2.3 -6.6 -4.3 -6.34 -4.66 -6.07 -5" _p="true" stroke-opacity="1"></path></g></g><g><g><path fill="#d6d7d2" fill-opacity="1" stroke="none" d="M1.85 7.3 Q9.55 5.15 10.25 4.15 10.9 3.15 7.35 -2.55 L-7.65 -1.85 -8.75 7.15 -8.25 8.45 Q-6.25 9.6 1.85 7.3 Z" _p="true"></path></g></g><g><path stroke="#000000" stroke-width="1.53" stroke-linejoin="round" stroke-linecap="round" fill="none" d="M7.45 -2.55 Q10.9 3.15 10.25 4.15 9.55 5.15 1.85 7.3 -6.25 9.6 -8.25 8.45 -8.75 8.1 -8.75 7.15 -8.75 6.2 -7.6 -2.05" _p="true" stroke-opacity="1"></path></g></g></g>
</g></g><g transform="matrix(-0.6214,0.25,0.25,0.62,151.68,155.02)" class="body"><g><g><g class="c1"><g class="ta" transform="matrix(1,0,0,1,0,62.75)"><g><g><path fill="#fee9ca" fill-opacity="1" stroke="none" d="M-1.65 -8 Q-5 -7.3 -6.9 -4.5 -8.25 -2.4 -8.2 0 -8.2 0.8 -8.05 1.65 -7.35 5 -4.55 6.85 -2.45 8.25 0 8.2 0.8 8.2 1.6 8.05 4.95 7.35 6.8 4.55 8.2 2.45 8.2 0 8.2 -0.8 8 -1.6 7.35 -4.95 4.5 -6.85 2.4 -8.2 0 -8.2 -0.8 -8.2 -1.65 -8 Z" _p="true"></path></g><path stroke="#000000" stroke-width="1.53" stroke-linejoin="miter" stroke-linecap="round" stroke-miterlimit="1" fill="none" d="M6.8 4.55 Q4.95 7.35 1.6 8.05 0.8 8.2 0 8.2 -2.45 8.25 -4.55 6.85 -7.35 5 -8.05 1.65 -8.2 0.8 -8.2 0 -8.25 -2.4 -6.9 -4.5 -5 -7.3 -1.65 -8 -0.8 -8.2 0 -8.2 2.4 -8.2 4.5 -6.85 7.35 -4.95 8 -1.6 8.2 -0.8 8.2 0 8.2 2.45 6.8 4.55 Z" _p="true" stroke-opacity="1"></path></g></g><g><g><path fill="#fee9ca" fill-opacity="1" stroke="none" d="M9.8 42.25 Q10.45 37.7 10.75 35.3 11.3 30.95 11.4 27.7 L11.75 9.95 Q4.55 9.45 -0.5 9.45 -5.35 9.45 -11.25 11.3 -11.1 12.45 -10.7 18.6 -10.05 23.3 -9.7 35.95 -9.55 40.1 -8.75 48.1 -8.42 50.54 -8.3 52.65 L-8.2 54.9 Q-8.10 55.69 -8.25 62.75 L8.25 62.75 Q8.41 59.87 8.5 55.85 8.6 52 8.7 51.2 9.75 43.1 9.8 42.25 Z" _p="true"></path></g><path stroke="#000000" stroke-width="1.53" stroke-linejoin="miter" stroke-linecap="round" stroke-miterlimit="1" fill="none" d="M11.75 9.95 L11.4 27.7 Q11.3 30.95 10.75 35.3 10.45 37.7 9.8 42.25 9.75 43.1 8.7 51.2 8.6 52 8.5 55.85 8.41 59.87 8.25 62.75 M-8.22 62.75 Q-8.10 55.69 -8.2 54.9 L-8.27 52.65 Q-8.42 50.54 -8.75 48.1 -9.55 40.1 -9.7 35.95 -10.05 23.3 -10.7 18.6 -11.1 12.45 -11.25 11.3" _p="true" stroke-opacity="1"></path></g></g><g class="c5"><g class="tb"><g><g><path fill="#ffffff" fill-opacity="1" stroke="none" d="M9.7 -9.7 Q5.7 -13.75 0 -13.75 -5.7 -13.75 -9.7 -9.7 -13.75 -5.7 -13.75 0 -13.75 5.7 -9.7 9.75 -5.7 13.75 0 13.75 5.7 13.75 9.7 9.75 13.75 5.7 13.75 0 13.75 -5.7 9.7 -9.7 Z" _p="true"></path></g><path stroke="#000000" stroke-width="1.53" stroke-linejoin="round" stroke-linecap="round" fill="none" d="M13.75 0 Q13.75 5.7 9.7 9.75 5.7 13.75 0 13.75 -5.7 13.75 -9.7 9.75 -13.75 5.7 -13.75 0 -13.75 -5.7 -9.7 -9.7 -5.7 -13.75 0 -13.75 5.7 -13.75 9.7 -9.7 13.75 -5.7 13.75 0 Z" _p="true" stroke-opacity="1"></path></g></g><g><g><path fill="#ffffff" fill-opacity="1" stroke="none" d="M4.45 13.55 Q7.95 13.3 11.9 12.25 13.9 5.4 13.75 -0.2 -0.05 -1.3 -13.75 -0.2 -13.7 2.7 -12.75 7.3 -11.8 11.75 -11.8 11.8 -5.65 13.4 -1.75 13.55 2.35 13.7 4.45 13.55 Z" _p="true"></path></g><path stroke="#000000" stroke-width="1.53" stroke-linejoin="miter" stroke-linecap="round" stroke-miterlimit="1" fill="none" d="M13.75 -0.2 Q13.9 5.4 11.9 12.25 7.95 13.3 4.45 13.55 2.35 13.7 -1.75 13.55 -5.65 13.4 -11.8 11.8 -11.8 11.75 -12.75 7.3 -13.7 2.7 -13.75 -0.2" _p="true" stroke-opacity="1"></path></g></g></g>
</g></g><g transform="matrix(0.49,-0.3664,0.37,0.49,173.96,230.97)" class="body"><g><g><g class="c1"><g class="ta"><g><g><path fill="#fee9ca" fill-opacity="1" stroke="none" d="M5.75 -1.15 Q5.3 -3.55 3.25 -4.9 1.7 -5.95 0 -5.9 -0.6 -5.9 -1.2 -5.75 -3.6 -5.25 -4.95 -3.25 -5.95 -1.7 -5.95 0 -5.95 0.6 -5.8 1.2 -5.3 3.6 -3.3 4.9 -1.75 5.95 0 5.95 0.6 5.95 1.15 5.8 3.55 5.35 4.9 3.3 5.95 1.75 5.9 0 5.9 -0.6 5.75 -1.15 Z" _p="true"></path></g><path stroke="#000000" stroke-width="1.53" stroke-linejoin="miter" stroke-linecap="round" stroke-miterlimit="1" fill="none" d="M0 -5.9 Q1.7 -5.95 3.25 -4.9 5.3 -3.55 5.75 -1.15 5.9 -0.6 5.9 0 5.95 1.75 4.9 3.3 3.55 5.35 1.15 5.8 0.6 5.95 0 5.95 -1.75 5.95 -3.3 4.9 -5.3 3.6 -5.8 1.2 -5.95 0.6 -5.95 0 -5.95 -1.7 -4.95 -3.25 -3.6 -5.25 -1.2 -5.75 -0.6 -5.9 0 -5.9 Z" _p="true" stroke-opacity="1"></path></g></g><g><g><g><path fill="#fee9ca" fill-opacity="1" stroke="none" d="M22.9 21.8 Q25.35 21.3 26.75 20.25 27.45 19.75 27.85 19.2 29.2 17.05 26.45 14.3 26.4 14.3 26.35 14.25 24.65 12.7 21.55 11.1 20.25 10.55 19.2 10.05 17.3 9.15 16.3 8.65 15.4 8.25 14.05 7.25 13.8 7.05 13.6 6.9 L9.65 4.65 Q8.55 4.05 7.35 2.55 6.1 1.05 5.9 -0.05 L-5.95 -0.05 Q-6.05 0.7 -6.45 2.05 -6.9 3.75 -7.3 6.95 L-7.35 7.45 Q-7.4 7.75 -7.4 8 -7.6 10.05 -7.55 11.75 -7.45 13.25 -6.45 14.25 -6.2 14.5 -5.9 14.75 -5.45 15.05 -4.25 15.35 -2.5 15.75 -1.95 15.95 0.15 16.65 1.8 17.7 2.8 18.35 4.9 19.9 6.7 21.2 8.65 22 9.5 22.4 10.4 22.7 13.05 23.45 16.65 23 17.6 22.9 22.9 21.8 Z" _p="true"></path></g><path stroke="#000000" stroke-width="1.53" stroke-linejoin="miter" stroke-linecap="round" stroke-miterlimit="3" fill="none" d="M5.9 -0.05 Q6.1 1.05 7.35 2.55 8.55 4.05 9.65 4.65 L13.6 6.9 Q13.8 7.05 14.05 7.25 15.4 8.25 16.3 8.65 17.3 9.15 19.2 10.05 20.25 10.55 21.55 11.1 24.65 12.7 26.35 14.25 26.4 14.3 26.45 14.3 29.2 17.05 27.85 19.2 27.45 19.75 26.75 20.25 25.35 21.3 22.9 21.8 17.6 22.9 16.65 23 13.05 23.45 10.4 22.7 9.5 22.4 8.65 22 6.7 21.2 4.9 19.9 2.8 18.35 1.8 17.7 0.15 16.65 -1.95 15.95 -2.5 15.75 -4.25 15.35 -5.45 15.05 -5.9 14.75 -6.2 14.5 -6.45 14.25 -7.45 13.25 -7.55 11.75 -7.6 10.05 -7.4 8 -7.4 7.75 -7.35 7.45 L-7.3 6.95 Q-6.9 3.75 -6.45 2.05 -6.05 0.7 -5.95 -0.05" _p="true" stroke-opacity="1"></path></g></g><g><path stroke="#988c79" stroke-opacity="1" stroke-width="0.46" stroke-linejoin="miter" stroke-linecap="round" stroke-miterlimit="3" fill="none" d="M25.65 20.4 Q26.2 19.9 26.3 19.5 26.45 19.15 26.3 18.7 26.05 17.85 25.15 17.3 M23.35 21.35 Q23.95 20.75 24.1 20.3 24.2 19.9 24.05 19.35 23.75 18.3 22.65 17.85 M20.45 22.25 Q21.15 21.55 21.35 21.05 21.5 20.55 21.3 19.9 20.95 18.7 19.4 18.25 M16.35 22.85 Q17.35 22.25 17.7 21.85 18.2 21.2 18 20.3 17.75 19.15 16.8 18.6 15.65 17.95 13.4 17.8 M-4.2 0.65 Q-4.1 1.3 -5.05 3.15 -5.65 4.35 -4.25 5.25" _p="true"></path></g></g></g>
</g></g><g transform="matrix(0.66,-0.1164,0.12,0.66,167.45,194.04)" class="body"><g><g><g class="c1"><g class="ta" transform="matrix(1,0,0,1,0,55.75)" display="none"><g><g><path fill="#fee9ca" fill-opacity="1" stroke="none" d="M5.75 -1.15 Q5.3 -3.55 3.25 -4.9 1.7 -5.95 0 -5.9 -0.6 -5.9 -1.2 -5.75 -3.6 -5.25 -4.95 -3.25 -5.95 -1.7 -5.95 0 -5.95 0.6 -5.8 1.2 -5.3 3.6 -3.3 4.9 -1.75 5.95 0 5.95 0.6 5.95 1.15 5.8 3.55 5.35 4.9 3.3 5.95 1.75 5.9 0 5.9 -0.6 5.75 -1.15 Z" _p="true"></path></g><path stroke="#000000" stroke-width="1.53" stroke-linejoin="miter" stroke-linecap="round" stroke-miterlimit="1" fill="none" d="M0 -5.9 Q1.7 -5.95 3.25 -4.9 5.3 -3.55 5.75 -1.15 5.9 -0.6 5.9 0 5.95 1.75 4.9 3.3 3.55 5.35 1.15 5.8 0.6 5.95 0 5.95 -1.75 5.95 -3.3 4.9 -5.3 3.6 -5.8 1.2 -5.95 0.6 -5.95 0 -5.95 -1.7 -4.95 -3.25 -3.6 -5.25 -1.2 -5.75 -0.6 -5.9 0 -5.9 Z" _p="true" stroke-opacity="1"></path></g></g><g class="tb" display="none"><g><g><path fill="#fee9ca" fill-opacity="1" stroke="none" d="M-1.65 -8 Q-5 -7.3 -6.9 -4.5 -8.25 -2.4 -8.2 0 -8.2 0.8 -8.05 1.65 -7.35 5 -4.55 6.85 -2.45 8.25 0 8.2 0.8 8.2 1.6 8.05 4.95 7.35 6.8 4.55 8.2 2.45 8.2 0 8.2 -0.8 8 -1.6 7.35 -4.95 4.5 -6.85 2.4 -8.2 0 -8.2 -0.8 -8.2 -1.65 -8 Z" _p="true"></path></g><path stroke="#000000" stroke-width="1.53" stroke-linejoin="miter" stroke-linecap="round" stroke-miterlimit="1" fill="none" d="M6.8 4.55 Q4.95 7.35 1.6 8.05 0.8 8.2 0 8.2 -2.45 8.25 -4.55 6.85 -7.35 5 -8.05 1.65 -8.2 0.8 -8.2 0 -8.25 -2.4 -6.9 -4.5 -5 -7.3 -1.65 -8 -0.8 -8.2 0 -8.2 2.4 -8.2 4.5 -6.85 7.35 -4.95 8 -1.6 8.2 -0.8 8.2 0 8.2 2.45 6.8 4.55 Z" _p="true" stroke-opacity="1"></path></g></g><g><g><path fill="#fee9ca" fill-opacity="1" stroke="none" d="M5.75 44.35 Q5.8 41.55 6.35 36.8 7 31.05 7.15 29.15 L7.95 15.55 Q7.98 14.67 8 13.8 8.15 10.35 8.25 0 2.93 -0.44 -0.9 -0.45 -4.68 -0.45 -8.2 0.1 -8.15 1.3 -9.15 8.1 -10.1 14.4 -9.4 20.9 -8.75 26.8 -8 29.6 -6.85 33.9 -6.6 37.1 -6 44.3 -5.95 56 L5.9 56 5.75 44.35 Z" _p="true"></path></g><path stroke="#000000" stroke-width="1.53" stroke-linejoin="miter" stroke-linecap="round" stroke-miterlimit="1" fill="none" d="M8.25 0 Q8.15 10.35 8.02 13.82 7.98 14.67 7.95 15.55 L7.15 29.15 Q7 31.05 6.35 36.8 5.8 41.55 5.75 44.35 L5.9 56 M-5.95 56 Q-6 44.3 -6.6 37.1 -6.85 33.9 -8 29.6 -8.75 26.8 -9.4 20.9 -10.1 14.4 -9.15 8.1 -8.15 1.3 -8.2 0.1" _p="true" stroke-opacity="1"></path></g></g></g>
</g></g><g transform="matrix(0.49,-0.3664,0.37,0.49,173.96,230.97)" class="body"><g><g><g class="c21" transform="matrix(1,0,0,1,-0.2,0)"><g><g><path fill="#b3b3ab" fill-opacity="1" stroke="none" d="M31 20.75 L28.8 20.45 Q23.15 23.3 14.4 22.75 5.65 22.2 0.85 18.65 -0.25 17.9 -0.45 16.4 L-10.3 15.05 Q-10.1 15.8 -9.85 17.85 -9.5 19.7 -8.85 20.45 -7.85 21.5 -5.05 22.05 -3.45 22.35 -0.65 22.7 1.9 23.15 4.3 23.95 7.85 25.25 8 25.3 8.4 25.5 9.15 26 9.8 26.5 10.25 26.65 11.65 27.25 13.95 27.55 15.3 27.75 17.8 27.95 23.5 28.5 27.4 27.35 29.35 26.8 30.15 26.1 L31 20.75 Z" _p="true"></path></g></g><g><g><path fill="#000000" fill-opacity="0.4" stroke="none" d="M31 20.75 L28.8 20.45 Q23.15 23.3 14.4 22.75 5.65 22.2 0.85 18.65 -0.25 17.9 -0.45 16.4 L-10.3 15.05 Q-10.1 15.8 -9.85 17.85 -9.5 19.7 -8.85 20.45 -7.85 21.5 -5.05 22.05 -3.45 22.35 -0.65 22.7 1.9 23.15 4.3 23.95 7.85 25.25 8 25.3 8.4 25.5 9.15 26 9.8 26.5 10.25 26.65 11.65 27.25 13.95 27.55 15.3 27.75 17.8 27.95 23.5 28.5 27.4 27.35 29.35 26.8 30.15 26.1 L31 20.75 Z" _p="true"></path></g></g><g><g><path fill="#b3b3ab" fill-opacity="1" stroke="none" d="M23.45 23.15 Q30.48 22.52 30.8 20.7 30.86 20.49 30.8 20.25 30.6 19.6 29.6 18.8 L28.65 18.2 28.4 18.15 Q28.15 18.85 27.3 19.5 25.55 20.75 22.5 21.4 19.9 21.95 17.25 21.9 L14.25 21.85 Q2.1 21.35 0.6 17.65 0.25 16.7 -3.1 16.05 -6.35 15.4 -6.85 14.05 L-6.95 13.8 -7.05 13.75 -8.7 14.3 Q-10.17 14.40 -9.85 14.9 -9.55 15.34 -7.8 16.1 -5.9 16.9 -3.5 17.65 3.2 20.85 7.8 22.05 15 23.9 23.45 23.15 Z" _p="true"></path></g><path stroke="#000000" stroke-width="1.53" stroke-linejoin="round" stroke-linecap="round" fill="none" d="M30.82 20.72 Q30.86 20.49 30.8 20.25 30.6 19.6 29.6 18.8 L28.65 18.2 28.4 18.15 Q28.15 18.85 27.3 19.5 25.55 20.75 22.5 21.4 19.9 21.95 17.25 21.9 L14.25 21.85 Q2.1 21.35 0.6 17.65 0.25 16.7 -3.1 16.05 -6.35 15.4 -6.85 14.05 L-6.95 13.8 -7.05 13.75 -8.7 14.3 Q-10.17 14.40 -9.85 14.9" _p="true" stroke-opacity="1"></path><path stroke="#000000" stroke-width="1.38" stroke-linejoin="miter" stroke-linecap="round" stroke-miterlimit="10" fill="none" d="M-9.85 14.9 Q-9.6 15.4 -9 20.4 -6.95 21.4 -5.65 21.55 -0.1 22.35 3.35 23.6 4.5 24 7.2 25.35 9.65 26.5 11.2 26.95 12.55 27.35 14.45 27.6 15.6 27.75 17.8 27.95 23.5 28.5 27.4 27.35 29.35 26.8 30.15 26.1 L30.82 20.72" _p="true" stroke-opacity="1"></path><path stroke="#000000" stroke-width="0.76" stroke-linejoin="round" stroke-linecap="round" fill="none" d="M30.82 20.72 Q30.48 22.52 23.45 23.15 15 23.9 7.8 22.05 3.2 20.85 -3.5 17.65 -5.9 16.9 -7.8 16.1 -9.55 15.34 -9.85 14.9" _p="true" stroke-opacity="1"></path></g></g><g class="c6" transform="matrix(1,0,0,1,-0.2,0)"><g><g><path fill="#ffffff" fill-opacity="1" stroke="none" d="M4.7 1.55 Q7.1 1.25 8.1 0.75 L7.7 -2.45 Q1.7 -1.15 -2.8 -1.65 -5.05 -1.9 -6.1 -2.4 L-6.9 1.05 Q-0.1 2.1 4.7 1.55 Z" _p="true"></path></g><path stroke="#000000" stroke-width="1.53" stroke-linejoin="round" stroke-linecap="round" fill="none" d="M7.7 -2.45 L8.1 0.75 Q7.1 1.25 4.7 1.55 -0.1 2.1 -6.9 1.05 L-6.1 -2.4 Q-5.05 -1.9 -2.8 -1.65 1.7 -1.15 7.7 -2.45 Z" _p="true" stroke-opacity="1"></path></g><g><g><path fill="#ffffff" fill-opacity="1" stroke="none" d="M-6.55 2.6 Q-8.5 5.2 -8.95 9.75 -9.15 12 -9 13.75 -8.3 15.15 -5.95 15.75 -4.8 16.1 -3.8 16.1 -2.8 11 -4.55 6.3 -5.45 3.95 -6.55 2.6 M11.05 17.05 Q17.65 13.05 26.35 13.75 25.95 12.75 24.6 11.55 21.85 9.25 16.95 8.55 14 8.5 10.2 9.6 2.65 11.7 -1.4 17.2 1.2 18.85 6.25 21.2 7.8 19.05 11.05 17.05 Z" _p="true"></path></g></g><g><g><path fill="#ffffff" fill-opacity="0.4" stroke="none" d="M20.85 12.75 L23.25 12.4 Q22.35 11.65 20.9 10.9 18.1 9.45 15.65 9.55 L14.25 10.2 Q14.8 10.1 15.9 10.35 18.05 10.9 20.85 12.75 Z" _p="true"></path></g></g><g><path stroke="#000000" stroke-width="1.53" stroke-linejoin="round" stroke-linecap="round" fill="none" d="M26.35 13.75 Q25.95 12.75 24.6 11.55 21.85 9.25 16.95 8.55 14 8.5 10.2 9.6 2.65 11.7 -1.4 17.2 1.2 18.85 6.25 21.2 7.8 19.05 11.05 17.05 17.65 13.05 26.35 13.75 Z M-6.55 2.6 Q-5.45 3.95 -4.55 6.3 -2.8 11 -3.8 16.1 -4.8 16.1 -5.95 15.75 -8.3 15.15 -9 13.75 -9.15 12 -8.95 9.75 -8.5 5.2 -6.55 2.6 Z" _p="true" stroke-opacity="1"></path></g></g></g>
</g></g><g transform="matrix(-0.6214,0.25,0.25,0.62,151.68,155.02)" class="body"><g><g><g class="c5"><g class="tb"><g><g><path fill="#ffffff" fill-opacity="1" stroke="none" d="M9.7 -9.7 Q5.7 -13.75 0 -13.75 -5.7 -13.75 -9.7 -9.7 -13.75 -5.7 -13.75 0 -13.75 5.7 -9.7 9.75 -5.7 13.75 0 13.75 5.7 13.75 9.7 9.75 13.75 5.7 13.75 0 13.75 -5.7 9.7 -9.7 Z" _p="true"></path></g><path stroke="#000000" stroke-width="1.53" stroke-linejoin="round" stroke-linecap="round" fill="none" d="M13.75 0 Q13.75 5.7 9.7 9.75 5.7 13.75 0 13.75 -5.7 13.75 -9.7 9.75 -13.75 5.7 -13.75 0 -13.75 -5.7 -9.7 -9.7 -5.7 -13.75 0 -13.75 5.7 -13.75 9.7 -9.7 13.75 -5.7 13.75 0 Z" _p="true" stroke-opacity="1"></path></g></g><g><g><path fill="#ffffff" fill-opacity="1" stroke="none" d="M13.7 -0.15 Q13.71 -0.31 13.7 -0.5 6.97 -0.59 0.05 0 -7.05 0.65 -13.7 0.55 -13.57 2.55 -13.5 4.45 L-11.25 42.55 Q-11.25 42.70 -11.25 42.8 -11.25 42.85 -11.25 42.9 -11.25 42.97 -11.25 43.05 -11.25 43.16 -11.25 43.25 -11.25 43.31 -11.25 43.35 -11.25 43.42 -11.25 43.5 -11.25 43.61 -11.25 43.7 -11.23 43.98 -11.25 44.2 -11.22 44.32 -11.25 44.4 -11.20 44.72 -11.2 45 -11.10 48.81 -10.9 51.55 -10.70 54.41 -10.4 56.1 L9.1 55.8 9.6 51.85 11.1 41.35 Q13.15 17.65 13.65 9.15 13.98 3.86 13.7 -0.15 M13.75 -0.5 L13.7 -0.5 Q13.71 -0.31 13.7 -0.15 L13.75 -0.5 Z" _p="true"></path></g><path stroke="#000000" stroke-width="1.46" stroke-linejoin="miter" stroke-linecap="round" stroke-miterlimit="10" fill="none" d="M13.7 -0.5 Q13.71 -0.31 13.72 -0.12 13.98 3.86 13.65 9.15 13.15 17.65 11.1 41.35 L9.62 51.85 M-10.9 51.55 Q-11.10 48.81 -11.2 45 -11.20 44.72 -11.22 44.42 -11.22 44.32 -11.22 44.22 -11.23 43.98 -11.25 43.72 -11.25 43.61 -11.25 43.5 -11.25 43.42 -11.25 43.35 -11.25 43.31 -11.25 43.27 -11.25 43.16 -11.25 43.05 -11.25 42.97 -11.25 42.9 -11.25 42.85 -11.25 42.82 -11.25 42.70 -11.25 42.57 L-13.47 4.47 Q-13.57 2.55 -13.7 0.55" _p="true" stroke-opacity="1"></path></g><g transform="matrix(1,0,0,1,-13.85,-14.45)"><g><path fill="#ffffff" fill-opacity="1" stroke="none" d="M24.15 70.95 L24.95 65.95 Q21.35 67.35 11.3 66.65 6.25 66.3 1.95 65.65 L2.05 70.5 Q8.85 72.95 17.15 72.2 21.35 71.8 24.15 70.95 Z" _p="true"></path></g></g><g><g><path fill="#ffffff" fill-opacity="0.4" stroke="none" d="M10.3 56.5 L11.1 51.5 Q7.5 52.9 -2.55 52.2 -7.6 51.85 -11.9 51.2 L-11.8 56.05 Q-5 58.5 3.3 57.75 7.5 57.35 10.3 56.5 Z" _p="true"></path></g></g><g><path stroke="#000000" stroke-width="1.46" stroke-linejoin="miter" stroke-linecap="round" stroke-miterlimit="10" fill="none" d="M9.82 51.87 Q10.54 51.71 11.1 51.5 L10.3 56.5 Q7.5 57.35 3.3 57.75 -5 58.5 -11.8 56.05 L-12.45 51.35 Q-11.68 51.45 -10.9 51.55 -7.12 52.00 -2.85 52.25 5.66 52.78 9.82 51.87 Z" _p="true" stroke-opacity="1"></path></g></g></g>
</g></g><g transform="matrix(0.63,0.22,-0.2182,0.63,162.37,99.22)" class="body"><g><g><g class="c22" transform="matrix(1,0,0,1,-0.7,0.4)"><g><g><path fill="#d6d7d2" fill-opacity="1" stroke="none" d="M10 -1.1 Q10.15 -4.55 8.85 -5.4 6.55 -6.85 5.55 -7.15 4.95 -7.35 3.15 -7.45 -1.2 -7.75 -4.05 -7.55 -6.1 -7.5 -6.75 -7.3 -8.45 -6.95 -8.75 -5.75 -8.9 -5.15 -9.1 -3.65 -9.3 -2.1 -9.25 -1.55 -9.25 -0.45 -9.4 1.85 -5.65 1.7 0.1 1.85 3.25 1.95 9.6 2.15 9.95 0.6 10 -1.1 Z" _p="true"></path></g></g><g><path stroke="#000000" stroke-width="1.53" stroke-linejoin="round" stroke-linecap="round" fill="none" d="M8.85 -5.4 Q6.55 -6.85 5.55 -7.15 4.95 -7.35 3.15 -7.45 -1.2 -7.75 -4.05 -7.55 -6.1 -7.5 -6.75 -7.3 -8.45 -6.95 -8.75 -5.75 -8.9 -5.15 -9.1 -3.65 -9.3 -2.1 -9.25 -1.55 -9.25 -0.45 -9.4 1.85 -5.65 1.7 0.1 1.85 3.25 1.95 9.6 2.15 9.95 0.6 10 -1.1 10.15 -4.55 8.85 -5.4 Z" _p="true" stroke-opacity="1"></path></g></g></g>
</g></g><g transform="matrix(0.63,0.22,-0.2182,0.63,147.51,150)" class="body"><g><g><g class="c1" transform="matrix(0.91,-0.40,0.40,0.91,0,0)"><g class="tb" transform="matrix(0.86,0.5,-0.5,0.86,35.55,-57.55)" display="none"><g><g><path fill="#fee9ca" fill-opacity="1" stroke="none" d="M-1.55 -7.7 Q-4.75 -7.05 -6.55 -4.35 -7.9 -2.35 -7.85 -0.05 -7.85 0.75 -7.65 1.55 -7 4.75 -4.3 6.5 -2.3 7.9 0.05 7.85 0.85 7.85 1.6 7.65 4.8 7 6.55 4.3 7.95 2.3 7.9 -0.05 7.9 -0.85 7.7 -1.6 7.1 -4.8 4.35 -6.6 2.35 -7.95 0.05 -7.9 -0.75 -7.9 -1.55 -7.7 Z" _p="true"></path></g><path stroke="#000000" stroke-width="1.53" stroke-linejoin="miter" stroke-linecap="round" stroke-miterlimit="1" fill="none" d="M6.55 4.3 Q4.8 7 1.6 7.65 0.85 7.85 0.05 7.85 -2.3 7.9 -4.3 6.5 -7 4.75 -7.65 1.55 -7.85 0.75 -7.85 -0.05 -7.9 -2.35 -6.55 -4.35 -4.75 -7.05 -1.55 -7.7 -0.75 -7.9 0.05 -7.9 2.35 -7.95 4.35 -6.6 7.1 -4.8 7.7 -1.6 7.9 -0.85 7.9 -0.05 7.95 2.3 6.55 4.3 Z" _p="true" stroke-opacity="1"></path></g></g><g class="ta" transform="matrix(0.86,0.5,-0.5,0.86,6.25,-69.95)"><g><g><path fill="#fee9ca" fill-opacity="1" stroke="none" d="M-1.55 -7.7 Q-4.75 -7.05 -6.55 -4.35 -7.9 -2.35 -7.85 -0.05 -7.85 0.75 -7.65 1.55 -7 4.75 -4.3 6.5 -2.3 7.9 0.05 7.85 0.85 7.85 1.6 7.65 4.8 7 6.55 4.3 7.95 2.3 7.9 -0.05 7.9 -0.85 7.7 -1.6 7.1 -4.8 4.35 -6.6 2.35 -7.95 0.05 -7.9 -0.75 -7.9 -1.55 -7.7 Z" _p="true"></path></g><path stroke="#000000" stroke-width="1.53" stroke-linejoin="miter" stroke-linecap="round" stroke-miterlimit="1" fill="none" d="M6.55 4.3 Q4.8 7 1.6 7.65 0.85 7.85 0.05 7.85 -2.3 7.9 -4.3 6.5 -7 4.75 -7.65 1.55 -7.85 0.75 -7.85 -0.05 -7.9 -2.35 -6.55 -4.35 -4.75 -7.05 -1.55 -7.7 -0.75 -7.9 0.05 -7.9 2.35 -7.95 4.35 -6.6 7.1 -4.8 7.7 -1.6 7.9 -0.85 7.9 -0.05 7.95 2.3 6.55 4.3 Z" _p="true" stroke-opacity="1"></path></g></g><g><g><path fill="#fee9ca" fill-opacity="1" stroke="none" d="M34.6 -69.95 Q22.95 -76.25 22.5 -76.4 21.3 -76.9 18.65 -77.4 16.15 -77.9 14.65 -78 L5.35 -77.8 Q5.18 -70.60 -1.45 -68.5 -1.65 -65.3 -2.6 -61.2 -3.85 -56.1 -6.05 -51.15 -10.65 -40.6 -17.55 -13.25 -18.2 -10.15 -18.5 -6.2 -18.8 -2.5 -18.55 -1.4 0 0.58 18.55 -1.4 L18.35 -6.3 Q18.35 -7.35 18.55 -8.3 21.5 -20.35 26.55 -30.75 29.1 -35.95 31.95 -40.8 36 -47.6 39.1 -50.9 36.8 -52.5 37.6 -57.2 38.3 -61.65 40.5 -63.65 40.05 -64.6 34.6 -69.95 Z" _p="true"></path></g><path stroke="#000000" stroke-width="1.53" stroke-linejoin="round" stroke-linecap="round" fill="none" d="M34.6 -69.95 Q40.05 -64.6 40.52 -63.65 M39.12 -50.9 Q36 -47.6 31.95 -40.8 29.1 -35.95 26.55 -30.75 21.5 -20.35 18.57 -8.3 18.35 -7.35 18.35 -6.3 L18.55 -1.4 M-18.55 -1.4 Q-18.8 -2.5 -18.5 -6.2 -18.2 -10.15 -17.55 -13.25 -10.65 -40.6 -6.05 -51.15 -3.85 -56.1 -2.6 -61.2 -1.65 -65.3 -1.45 -68.5 M5.35 -77.8 L14.65 -78 Q16.15 -77.9 18.65 -77.4 21.3 -76.9 22.5 -76.4" _p="true" stroke-opacity="1"></path></g><g><g><path fill="#000000" fill-opacity="0.09" stroke="none" d="M11.75 -13.85 Q11.35 -13.6 11.3 -12.6 11.25 -11.6 11.5 -11.1 11.95 -11.4 12.4 -11.75 13.15 -12.6 12.65 -13.3 12.1 -14.1 11.75 -13.85 Z" _p="true"></path></g></g></g></g>
</g></g><g transform="matrix(0.67,0.035,-0.0351,0.67,147.51,150)" class="body"><g><g><g class="c5"><g class="tb" transform="matrix(1,0,0,1,6.35,7.15)" display="none"><g><g><path fill="#ffffff" fill-opacity="1" stroke="none" d="M13.5 -2.75 Q13.37 -3.36 13.2 -3.95 L-13.35 -3.95 Q-13.90 -2.02 -13.85 0 -13.85 1.35 -13.55 2.8 -12.6 7.65 -12.4 8.15 -11.5 10.85 -9.45 12.2 -6.9 14 0 13.85 1.35 13.85 2.75 13.55 8.35 12.45 11.45 7.65 13.85 4.1 13.8 0 13.8 -1.35 13.5 -2.75 Z" _p="true"></path></g><path stroke="#000000" stroke-width="1.53" stroke-linejoin="miter" stroke-linecap="round" stroke-miterlimit="1" fill="none" d="M13.2 -3.95 Q13.37 -3.36 13.5 -2.75 13.8 -1.35 13.8 0 13.85 4.1 11.45 7.65 8.35 12.45 2.75 13.55 1.35 13.85 0 13.85 -6.9 14 -9.45 12.2 -11.5 10.85 -12.4 8.15 -12.6 7.65 -13.55 2.8 -13.85 1.35 -13.85 0 -13.90 -2.02 -13.32 -3.95" _p="true" stroke-opacity="1"></path></g></g><g class="ta" transform="matrix(-1,0,0,1,-7.2,9.15)"><g><g><path fill="#ffffff" fill-opacity="1" stroke="none" d="M13.5 -2.75 Q13.37 -3.36 13.2 -3.95 L-13.35 -3.95 Q-13.90 -2.02 -13.85 0 -13.85 1.35 -13.55 2.8 -12.6 7.65 -12.4 8.15 -11.5 10.85 -9.45 12.2 -6.9 14 0 13.85 1.35 13.85 2.75 13.55 8.35 12.45 11.45 7.65 13.85 4.1 13.8 0 13.8 -1.35 13.5 -2.75 Z" _p="true"></path></g><path stroke="#000000" stroke-width="1.53" stroke-linejoin="miter" stroke-linecap="round" stroke-miterlimit="1" fill="none" d="M13.2 -3.95 Q13.37 -3.36 13.5 -2.75 13.8 -1.35 13.8 0 13.85 4.1 11.45 7.65 8.35 12.45 2.75 13.55 1.35 13.85 0 13.85 -6.9 14 -9.45 12.2 -11.5 10.85 -12.4 8.15 -12.6 7.65 -13.55 2.8 -13.85 1.35 -13.85 0 -13.90 -2.02 -13.32 -3.95" _p="true" stroke-opacity="1"></path></g></g><g><g><path fill="#ffffff" fill-opacity="1" stroke="none" d="M15.45 8.75 Q17.55 6.45 20.1 6.25 L18.75 -4.95 Q-0.65 -4.1 -19.25 -5.35 L-20.6 6.25 Q-17.8 6.4 -12.15 11.05 -10.7 12.25 -6.9 16.6 -3.7 20.3 -2.6 20.75 0.4 22.05 2.85 20.7 5.15 19.35 5.25 19.3 L7.05 19.15 Q7.1 19.1 8.85 16.25 10.1 14.3 11.9 12.75 13.25 11.6 15.45 8.75 Z" _p="true"></path></g></g><g class="ta"><g><g><path fill="#ffffff" fill-opacity="1" stroke="none" d="M4.35 22.05 Q7.65 21.3 8.95 19.9 8.75 18.95 9.6 17.25 9.7 17.1 9.75 16.95 9.85 16.8 9.95 16.6 3.8 16.05 -1.7 18.65 -0.8 20.2 -0.45 21.85 0.95 22.75 4.35 22.05 Z" _p="true"></path></g></g><g><path stroke="#b5b5b5" stroke-opacity="1" stroke-width="0.92" stroke-linejoin="miter" stroke-linecap="round" stroke-miterlimit="1" fill="none" d="M6.6 7.45 Q6.75 12.8 5.9 17.55 5.4 20.25 4.55 22.05 M6 -4.45 L6.6 7.45" _p="true"></path></g><g><path stroke="#000000" stroke-width="1.53" stroke-linejoin="miter" stroke-linecap="square" stroke-miterlimit="1" fill="none" d="M-0.45 21.85 Q0.95 22.75 4.35 22.05 7.65 21.3 8.95 19.9" _p="true" stroke-opacity="1"></path></g></g><g><path stroke="#000000" stroke-width="1.53" stroke-linejoin="miter" stroke-linecap="round" stroke-miterlimit="1" fill="none" d="M20.1 6.25 L18.75 -4.95 Q-0.65 -4.1 -19.25 -5.35 L-20.6 6.25" _p="true" stroke-opacity="1"></path></g></g></g>
</g></g><g transform="matrix(0.095,0.6,-0.6014,0.095,99.25,205.88)" class="body"><g><g><g class="c1"><g class="ta"><g><g><path fill="#fee9ca" fill-opacity="1" stroke="none" d="M5.75 -1.15 Q5.3 -3.55 3.25 -4.9 1.7 -5.95 0 -5.9 -0.6 -5.9 -1.2 -5.75 -3.6 -5.25 -4.95 -3.25 -5.95 -1.7 -5.95 0 -5.95 0.6 -5.8 1.2 -5.3 3.6 -3.3 4.9 -1.75 5.95 0 5.95 0.6 5.95 1.15 5.8 3.55 5.35 4.9 3.3 5.95 1.75 5.9 0 5.9 -0.6 5.75 -1.15 Z" _p="true"></path></g><path stroke="#000000" stroke-width="1.53" stroke-linejoin="miter" stroke-linecap="round" stroke-miterlimit="1" fill="none" d="M0 -5.9 Q1.7 -5.95 3.25 -4.9 5.3 -3.55 5.75 -1.15 5.9 -0.6 5.9 0 5.95 1.75 4.9 3.3 3.55 5.35 1.15 5.8 0.6 5.95 0 5.95 -1.75 5.95 -3.3 4.9 -5.3 3.6 -5.8 1.2 -5.95 0.6 -5.95 0 -5.95 -1.7 -4.95 -3.25 -3.6 -5.25 -1.2 -5.75 -0.6 -5.9 0 -5.9 Z" _p="true" stroke-opacity="1"></path></g></g><g><g><g><path fill="#fee9ca" fill-opacity="1" stroke="none" d="M22.9 21.8 Q25.35 21.3 26.75 20.25 27.45 19.75 27.85 19.2 29.2 17.05 26.45 14.3 26.4 14.3 26.35 14.25 24.65 12.7 21.55 11.1 20.25 10.55 19.2 10.05 17.3 9.15 16.3 8.65 15.4 8.25 14.05 7.25 13.8 7.05 13.6 6.9 L9.65 4.65 Q8.55 4.05 7.35 2.55 6.1 1.05 5.9 -0.05 L-5.95 -0.05 Q-6.05 0.7 -6.45 2.05 -6.9 3.75 -7.3 6.95 L-7.35 7.45 Q-7.4 7.75 -7.4 8 -7.6 10.05 -7.55 11.75 -7.45 13.25 -6.45 14.25 -6.2 14.5 -5.9 14.75 -5.45 15.05 -4.25 15.35 -2.5 15.75 -1.95 15.95 0.15 16.65 1.8 17.7 2.8 18.35 4.9 19.9 6.7 21.2 8.65 22 9.5 22.4 10.4 22.7 13.05 23.45 16.65 23 17.6 22.9 22.9 21.8 Z" _p="true"></path></g><path stroke="#000000" stroke-width="1.53" stroke-linejoin="miter" stroke-linecap="round" stroke-miterlimit="3" fill="none" d="M5.9 -0.05 Q6.1 1.05 7.35 2.55 8.55 4.05 9.65 4.65 L13.6 6.9 Q13.8 7.05 14.05 7.25 15.4 8.25 16.3 8.65 17.3 9.15 19.2 10.05 20.25 10.55 21.55 11.1 24.65 12.7 26.35 14.25 26.4 14.3 26.45 14.3 29.2 17.05 27.85 19.2 27.45 19.75 26.75 20.25 25.35 21.3 22.9 21.8 17.6 22.9 16.65 23 13.05 23.45 10.4 22.7 9.5 22.4 8.65 22 6.7 21.2 4.9 19.9 2.8 18.35 1.8 17.7 0.15 16.65 -1.95 15.95 -2.5 15.75 -4.25 15.35 -5.45 15.05 -5.9 14.75 -6.2 14.5 -6.45 14.25 -7.45 13.25 -7.55 11.75 -7.6 10.05 -7.4 8 -7.4 7.75 -7.35 7.45 L-7.3 6.95 Q-6.9 3.75 -6.45 2.05 -6.05 0.7 -5.95 -0.05" _p="true" stroke-opacity="1"></path></g></g><g><path stroke="#988c79" stroke-opacity="1" stroke-width="0.46" stroke-linejoin="miter" stroke-linecap="round" stroke-miterlimit="3" fill="none" d="M25.65 20.4 Q26.2 19.9 26.3 19.5 26.45 19.15 26.3 18.7 26.05 17.85 25.15 17.3 M23.35 21.35 Q23.95 20.75 24.1 20.3 24.2 19.9 24.05 19.35 23.75 18.3 22.65 17.85 M20.45 22.25 Q21.15 21.55 21.35 21.05 21.5 20.55 21.3 19.9 20.95 18.7 19.4 18.25 M16.35 22.85 Q17.35 22.25 17.7 21.85 18.2 21.2 18 20.3 17.75 19.15 16.8 18.6 15.65 17.95 13.4 17.8 M-4.2 0.65 Q-4.1 1.3 -5.05 3.15 -5.65 4.35 -4.25 5.25" _p="true"></path></g></g></g>
</g></g><g transform="matrix(-0.662,-0.1048,-0.1048,0.66,142.37,155.87)" class="body"><g><g><g class="c1"><g class="ta" transform="matrix(1,0,0,1,0,62.75)"><g><g><path fill="#fee9ca" fill-opacity="1" stroke="none" d="M-1.65 -8 Q-5 -7.3 -6.9 -4.5 -8.25 -2.4 -8.2 0 -8.2 0.8 -8.05 1.65 -7.35 5 -4.55 6.85 -2.45 8.25 0 8.2 0.8 8.2 1.6 8.05 4.95 7.35 6.8 4.55 8.2 2.45 8.2 0 8.2 -0.8 8 -1.6 7.35 -4.95 4.5 -6.85 2.4 -8.2 0 -8.2 -0.8 -8.2 -1.65 -8 Z" _p="true"></path></g><path stroke="#000000" stroke-width="1.53" stroke-linejoin="miter" stroke-linecap="round" stroke-miterlimit="1" fill="none" d="M6.8 4.55 Q4.95 7.35 1.6 8.05 0.8 8.2 0 8.2 -2.45 8.25 -4.55 6.85 -7.35 5 -8.05 1.65 -8.2 0.8 -8.2 0 -8.25 -2.4 -6.9 -4.5 -5 -7.3 -1.65 -8 -0.8 -8.2 0 -8.2 2.4 -8.2 4.5 -6.85 7.35 -4.95 8 -1.6 8.2 -0.8 8.2 0 8.2 2.45 6.8 4.55 Z" _p="true" stroke-opacity="1"></path></g></g><g><g><path fill="#fee9ca" fill-opacity="1" stroke="none" d="M9.8 42.25 Q10.45 37.7 10.75 35.3 11.3 30.95 11.4 27.7 L11.75 9.95 Q4.55 9.45 -0.5 9.45 -5.35 9.45 -11.25 11.3 -11.1 12.45 -10.7 18.6 -10.05 23.3 -9.7 35.95 -9.55 40.1 -8.75 48.1 -8.42 50.54 -8.3 52.65 L-8.2 54.9 Q-8.10 55.69 -8.25 62.75 L8.25 62.75 Q8.41 59.87 8.5 55.85 8.6 52 8.7 51.2 9.75 43.1 9.8 42.25 Z" _p="true"></path></g><path stroke="#000000" stroke-width="1.53" stroke-linejoin="miter" stroke-linecap="round" stroke-miterlimit="1" fill="none" d="M11.75 9.95 L11.4 27.7 Q11.3 30.95 10.75 35.3 10.45 37.7 9.8 42.25 9.75 43.1 8.7 51.2 8.6 52 8.5 55.85 8.41 59.87 8.25 62.75 M-8.22 62.75 Q-8.10 55.69 -8.2 54.9 L-8.27 52.65 Q-8.42 50.54 -8.75 48.1 -9.55 40.1 -9.7 35.95 -10.05 23.3 -10.7 18.6 -11.1 12.45 -11.25 11.3" _p="true" stroke-opacity="1"></path></g></g><g class="c5"><g class="tb" display="none"><g><g><path fill="#ffffff" fill-opacity="1" stroke="none" d="M9.7 -9.7 Q5.7 -13.75 0 -13.75 -5.7 -13.75 -9.7 -9.7 -13.75 -5.7 -13.75 0 -13.75 5.7 -9.7 9.75 -5.7 13.75 0 13.75 5.7 13.75 9.7 9.75 13.75 5.7 13.75 0 13.75 -5.7 9.7 -9.7 Z" _p="true"></path></g><path stroke="#000000" stroke-width="1.53" stroke-linejoin="round" stroke-linecap="round" fill="none" d="M13.75 0 Q13.75 5.7 9.7 9.75 5.7 13.75 0 13.75 -5.7 13.75 -9.7 9.75 -13.75 5.7 -13.75 0 -13.75 -5.7 -9.7 -9.7 -5.7 -13.75 0 -13.75 5.7 -13.75 9.7 -9.7 13.75 -5.7 13.75 0 Z" _p="true" stroke-opacity="1"></path></g></g><g><g><path fill="#ffffff" fill-opacity="1" stroke="none" d="M4.45 13.55 Q7.95 13.3 11.9 12.25 13.9 5.4 13.75 -0.2 -0.05 -1.3 -13.75 -0.2 -13.7 2.7 -12.75 7.3 -11.8 11.75 -11.8 11.8 -5.65 13.4 -1.75 13.55 2.35 13.7 4.45 13.55 Z" _p="true"></path></g><path stroke="#000000" stroke-width="1.53" stroke-linejoin="miter" stroke-linecap="round" stroke-miterlimit="1" fill="none" d="M13.75 -0.2 Q13.9 5.4 11.9 12.25 7.95 13.3 4.45 13.55 2.35 13.7 -1.75 13.55 -5.65 13.4 -11.8 11.8 -11.8 11.75 -12.75 7.3 -13.7 2.7 -13.75 -0.2" _p="true" stroke-opacity="1"></path></g></g></g>
</g></g><g transform="matrix(0.15,0.65,-0.6531,0.15,135.79,197.45)" class="body"><g><g><g class="c1"><g class="ta" transform="matrix(1,0,0,1,0,55.75)" display="none"><g><g><path fill="#fee9ca" fill-opacity="1" stroke="none" d="M5.75 -1.15 Q5.3 -3.55 3.25 -4.9 1.7 -5.95 0 -5.9 -0.6 -5.9 -1.2 -5.75 -3.6 -5.25 -4.95 -3.25 -5.95 -1.7 -5.95 0 -5.95 0.6 -5.8 1.2 -5.3 3.6 -3.3 4.9 -1.75 5.95 0 5.95 0.6 5.95 1.15 5.8 3.55 5.35 4.9 3.3 5.95 1.75 5.9 0 5.9 -0.6 5.75 -1.15 Z" _p="true"></path></g><path stroke="#000000" stroke-width="1.53" stroke-linejoin="miter" stroke-linecap="round" stroke-miterlimit="1" fill="none" d="M0 -5.9 Q1.7 -5.95 3.25 -4.9 5.3 -3.55 5.75 -1.15 5.9 -0.6 5.9 0 5.95 1.75 4.9 3.3 3.55 5.35 1.15 5.8 0.6 5.95 0 5.95 -1.75 5.95 -3.3 4.9 -5.3 3.6 -5.8 1.2 -5.95 0.6 -5.95 0 -5.95 -1.7 -4.95 -3.25 -3.6 -5.25 -1.2 -5.75 -0.6 -5.9 0 -5.9 Z" _p="true" stroke-opacity="1"></path></g></g><g class="tb" display="none"><g><g><path fill="#fee9ca" fill-opacity="1" stroke="none" d="M-1.65 -8 Q-5 -7.3 -6.9 -4.5 -8.25 -2.4 -8.2 0 -8.2 0.8 -8.05 1.65 -7.35 5 -4.55 6.85 -2.45 8.25 0 8.2 0.8 8.2 1.6 8.05 4.95 7.35 6.8 4.55 8.2 2.45 8.2 0 8.2 -0.8 8 -1.6 7.35 -4.95 4.5 -6.85 2.4 -8.2 0 -8.2 -0.8 -8.2 -1.65 -8 Z" _p="true"></path></g><path stroke="#000000" stroke-width="1.53" stroke-linejoin="miter" stroke-linecap="round" stroke-miterlimit="1" fill="none" d="M6.8 4.55 Q4.95 7.35 1.6 8.05 0.8 8.2 0 8.2 -2.45 8.25 -4.55 6.85 -7.35 5 -8.05 1.65 -8.2 0.8 -8.2 0 -8.25 -2.4 -6.9 -4.5 -5 -7.3 -1.65 -8 -0.8 -8.2 0 -8.2 2.4 -8.2 4.5 -6.85 7.35 -4.95 8 -1.6 8.2 -0.8 8.2 0 8.2 2.45 6.8 4.55 Z" _p="true" stroke-opacity="1"></path></g></g><g><g><path fill="#fee9ca" fill-opacity="1" stroke="none" d="M5.75 44.35 Q5.8 41.55 6.35 36.8 7 31.05 7.15 29.15 L7.95 15.55 Q7.98 14.67 8 13.8 8.15 10.35 8.25 0 2.93 -0.44 -0.9 -0.45 -4.68 -0.45 -8.2 0.1 -8.15 1.3 -9.15 8.1 -10.1 14.4 -9.4 20.9 -8.75 26.8 -8 29.6 -6.85 33.9 -6.6 37.1 -6 44.3 -5.95 56 L5.9 56 5.75 44.35 Z" _p="true"></path></g><path stroke="#000000" stroke-width="1.53" stroke-linejoin="miter" stroke-linecap="round" stroke-miterlimit="1" fill="none" d="M8.25 0 Q8.15 10.35 8.02 13.82 7.98 14.67 7.95 15.55 L7.15 29.15 Q7 31.05 6.35 36.8 5.8 41.55 5.75 44.35 L5.9 56 M-5.95 56 Q-6 44.3 -6.6 37.1 -6.85 33.9 -8 29.6 -8.75 26.8 -9.4 20.9 -10.1 14.4 -9.15 8.1 -8.15 1.3 -8.2 0.1" _p="true" stroke-opacity="1"></path></g></g></g>
</g></g><g transform="matrix(0.095,0.6,-0.6014,0.095,99.25,205.88)" class="body"><g><g><g class="c21" transform="matrix(1,0,0,1,-0.2,0)"><g><g><path fill="#b3b3ab" fill-opacity="1" stroke="none" d="M31 20.75 L28.8 20.45 Q23.15 23.3 14.4 22.75 5.65 22.2 0.85 18.65 -0.25 17.9 -0.45 16.4 L-10.3 15.05 Q-10.1 15.8 -9.85 17.85 -9.5 19.7 -8.85 20.45 -7.85 21.5 -5.05 22.05 -3.45 22.35 -0.65 22.7 1.9 23.15 4.3 23.95 7.85 25.25 8 25.3 8.4 25.5 9.15 26 9.8 26.5 10.25 26.65 11.65 27.25 13.95 27.55 15.3 27.75 17.8 27.95 23.5 28.5 27.4 27.35 29.35 26.8 30.15 26.1 L31 20.75 Z" _p="true"></path></g></g><g><g><path fill="#000000" fill-opacity="0.4" stroke="none" d="M31 20.75 L28.8 20.45 Q23.15 23.3 14.4 22.75 5.65 22.2 0.85 18.65 -0.25 17.9 -0.45 16.4 L-10.3 15.05 Q-10.1 15.8 -9.85 17.85 -9.5 19.7 -8.85 20.45 -7.85 21.5 -5.05 22.05 -3.45 22.35 -0.65 22.7 1.9 23.15 4.3 23.95 7.85 25.25 8 25.3 8.4 25.5 9.15 26 9.8 26.5 10.25 26.65 11.65 27.25 13.95 27.55 15.3 27.75 17.8 27.95 23.5 28.5 27.4 27.35 29.35 26.8 30.15 26.1 L31 20.75 Z" _p="true"></path></g></g><g><g><path fill="#b3b3ab" fill-opacity="1" stroke="none" d="M23.45 23.15 Q30.48 22.52 30.8 20.7 30.86 20.49 30.8 20.25 30.6 19.6 29.6 18.8 L28.65 18.2 28.4 18.15 Q28.15 18.85 27.3 19.5 25.55 20.75 22.5 21.4 19.9 21.95 17.25 21.9 L14.25 21.85 Q2.1 21.35 0.6 17.65 0.25 16.7 -3.1 16.05 -6.35 15.4 -6.85 14.05 L-6.95 13.8 -7.05 13.75 -8.7 14.3 Q-10.17 14.40 -9.85 14.9 -9.55 15.34 -7.8 16.1 -5.9 16.9 -3.5 17.65 3.2 20.85 7.8 22.05 15 23.9 23.45 23.15 Z" _p="true"></path></g><path stroke="#000000" stroke-width="1.53" stroke-linejoin="round" stroke-linecap="round" fill="none" d="M30.82 20.72 Q30.86 20.49 30.8 20.25 30.6 19.6 29.6 18.8 L28.65 18.2 28.4 18.15 Q28.15 18.85 27.3 19.5 25.55 20.75 22.5 21.4 19.9 21.95 17.25 21.9 L14.25 21.85 Q2.1 21.35 0.6 17.65 0.25 16.7 -3.1 16.05 -6.35 15.4 -6.85 14.05 L-6.95 13.8 -7.05 13.75 -8.7 14.3 Q-10.17 14.40 -9.85 14.9" _p="true" stroke-opacity="1"></path><path stroke="#000000" stroke-width="1.38" stroke-linejoin="miter" stroke-linecap="round" stroke-miterlimit="10" fill="none" d="M-9.85 14.9 Q-9.6 15.4 -9 20.4 -6.95 21.4 -5.65 21.55 -0.1 22.35 3.35 23.6 4.5 24 7.2 25.35 9.65 26.5 11.2 26.95 12.55 27.35 14.45 27.6 15.6 27.75 17.8 27.95 23.5 28.5 27.4 27.35 29.35 26.8 30.15 26.1 L30.82 20.72" _p="true" stroke-opacity="1"></path><path stroke="#000000" stroke-width="0.76" stroke-linejoin="round" stroke-linecap="round" fill="none" d="M30.82 20.72 Q30.48 22.52 23.45 23.15 15 23.9 7.8 22.05 3.2 20.85 -3.5 17.65 -5.9 16.9 -7.8 16.1 -9.55 15.34 -9.85 14.9" _p="true" stroke-opacity="1"></path></g></g><g class="c6" transform="matrix(1,0,0,1,-0.2,0)"><g><g><path fill="#ffffff" fill-opacity="1" stroke="none" d="M4.7 1.55 Q7.1 1.25 8.1 0.75 L7.7 -2.45 Q1.7 -1.15 -2.8 -1.65 -5.05 -1.9 -6.1 -2.4 L-6.9 1.05 Q-0.1 2.1 4.7 1.55 Z" _p="true"></path></g><path stroke="#000000" stroke-width="1.53" stroke-linejoin="round" stroke-linecap="round" fill="none" d="M7.7 -2.45 L8.1 0.75 Q7.1 1.25 4.7 1.55 -0.1 2.1 -6.9 1.05 L-6.1 -2.4 Q-5.05 -1.9 -2.8 -1.65 1.7 -1.15 7.7 -2.45 Z" _p="true" stroke-opacity="1"></path></g><g><g><path fill="#ffffff" fill-opacity="1" stroke="none" d="M-6.55 2.6 Q-8.5 5.2 -8.95 9.75 -9.15 12 -9 13.75 -8.3 15.15 -5.95 15.75 -4.8 16.1 -3.8 16.1 -2.8 11 -4.55 6.3 -5.45 3.95 -6.55 2.6 M11.05 17.05 Q17.65 13.05 26.35 13.75 25.95 12.75 24.6 11.55 21.85 9.25 16.95 8.55 14 8.5 10.2 9.6 2.65 11.7 -1.4 17.2 1.2 18.85 6.25 21.2 7.8 19.05 11.05 17.05 Z" _p="true"></path></g></g><g><g><path fill="#ffffff" fill-opacity="0.4" stroke="none" d="M20.85 12.75 L23.25 12.4 Q22.35 11.65 20.9 10.9 18.1 9.45 15.65 9.55 L14.25 10.2 Q14.8 10.1 15.9 10.35 18.05 10.9 20.85 12.75 Z" _p="true"></path></g></g><g><path stroke="#000000" stroke-width="1.53" stroke-linejoin="round" stroke-linecap="round" fill="none" d="M26.35 13.75 Q25.95 12.75 24.6 11.55 21.85 9.25 16.95 8.55 14 8.5 10.2 9.6 2.65 11.7 -1.4 17.2 1.2 18.85 6.25 21.2 7.8 19.05 11.05 17.05 17.65 13.05 26.35 13.75 Z M-6.55 2.6 Q-5.45 3.95 -4.55 6.3 -2.8 11 -3.8 16.1 -4.8 16.1 -5.95 15.75 -8.3 15.15 -9 13.75 -9.15 12 -8.95 9.75 -8.5 5.2 -6.55 2.6 Z" _p="true" stroke-opacity="1"></path></g></g></g>
</g></g><g transform="matrix(-0.662,-0.1048,-0.1048,0.66,142.37,155.87)" class="body"><g><g><g class="c5"><g class="tb" display="none"><g><g><path fill="#ffffff" fill-opacity="1" stroke="none" d="M9.7 -9.7 Q5.7 -13.75 0 -13.75 -5.7 -13.75 -9.7 -9.7 -13.75 -5.7 -13.75 0 -13.75 5.7 -9.7 9.75 -5.7 13.75 0 13.75 5.7 13.75 9.7 9.75 13.75 5.7 13.75 0 13.75 -5.7 9.7 -9.7 Z" _p="true"></path></g><path stroke="#000000" stroke-width="1.53" stroke-linejoin="round" stroke-linecap="round" fill="none" d="M13.75 0 Q13.75 5.7 9.7 9.75 5.7 13.75 0 13.75 -5.7 13.75 -9.7 9.75 -13.75 5.7 -13.75 0 -13.75 -5.7 -9.7 -9.7 -5.7 -13.75 0 -13.75 5.7 -13.75 9.7 -9.7 13.75 -5.7 13.75 0 Z" _p="true" stroke-opacity="1"></path></g></g><g><g><path fill="#ffffff" fill-opacity="1" stroke="none" d="M13.7 -0.15 Q13.71 -0.31 13.7 -0.5 6.97 -0.59 0.05 0 -7.05 0.65 -13.7 0.55 -13.57 2.55 -13.5 4.45 L-11.25 42.55 Q-11.25 42.70 -11.25 42.8 -11.25 42.85 -11.25 42.9 -11.25 42.97 -11.25 43.05 -11.25 43.16 -11.25 43.25 -11.25 43.31 -11.25 43.35 -11.25 43.42 -11.25 43.5 -11.25 43.61 -11.25 43.7 -11.23 43.98 -11.25 44.2 -11.22 44.32 -11.25 44.4 -11.20 44.72 -11.2 45 -11.10 48.81 -10.9 51.55 -10.70 54.41 -10.4 56.1 L9.1 55.8 9.6 51.85 11.1 41.35 Q13.15 17.65 13.65 9.15 13.98 3.86 13.7 -0.15 M13.75 -0.5 L13.7 -0.5 Q13.71 -0.31 13.7 -0.15 L13.75 -0.5 Z" _p="true"></path></g><path stroke="#000000" stroke-width="1.46" stroke-linejoin="miter" stroke-linecap="round" stroke-miterlimit="10" fill="none" d="M13.7 -0.5 Q13.71 -0.31 13.72 -0.12 13.98 3.86 13.65 9.15 13.15 17.65 11.1 41.35 L9.62 51.85 M-10.9 51.55 Q-11.10 48.81 -11.2 45 -11.20 44.72 -11.22 44.42 -11.22 44.32 -11.22 44.22 -11.23 43.98 -11.25 43.72 -11.25 43.61 -11.25 43.5 -11.25 43.42 -11.25 43.35 -11.25 43.31 -11.25 43.27 -11.25 43.16 -11.25 43.05 -11.25 42.97 -11.25 42.9 -11.25 42.85 -11.25 42.82 -11.25 42.70 -11.25 42.57 L-13.47 4.47 Q-13.57 2.55 -13.7 0.55" _p="true" stroke-opacity="1"></path></g><g transform="matrix(1,0,0,1,-13.85,-14.45)"><g><path fill="#ffffff" fill-opacity="1" stroke="none" d="M24.15 70.95 L24.95 65.95 Q21.35 67.35 11.3 66.65 6.25 66.3 1.95 65.65 L2.05 70.5 Q8.85 72.95 17.15 72.2 21.35 71.8 24.15 70.95 Z" _p="true"></path></g></g><g><g><path fill="#ffffff" fill-opacity="0.4" stroke="none" d="M10.3 56.5 L11.1 51.5 Q7.5 52.9 -2.55 52.2 -7.6 51.85 -11.9 51.2 L-11.8 56.05 Q-5 58.5 3.3 57.75 7.5 57.35 10.3 56.5 Z" _p="true"></path></g></g><g><path stroke="#000000" stroke-width="1.46" stroke-linejoin="miter" stroke-linecap="round" stroke-miterlimit="10" fill="none" d="M9.82 51.87 Q10.54 51.71 11.1 51.5 L10.3 56.5 Q7.5 57.35 3.3 57.75 -5 58.5 -11.8 56.05 L-12.45 51.35 Q-11.68 51.45 -10.9 51.55 -7.12 52.00 -2.85 52.25 5.66 52.78 9.82 51.87 Z" _p="true" stroke-opacity="1"></path></g></g></g>
</g></g><g transform="matrix(0.63,0.22,-0.2182,0.63,147.51,150)" class="body"><g><g><g class="c4" transform="matrix(0.91,-0.40,0.40,0.91,0,0)"><g class="tb" transform="matrix(0.86,-0.5,0.5,0.86,35.45,-57.5)" display="none"><g><g><path fill="#d6d7d2" fill-opacity="1" stroke="none" d="M7.65 -1.55 Q7.24 -3.54 6.05 -5 1.34 1.01 -6.1 -5 -6.34 -4.66 -6.6 -4.3 -7.9 -2.3 -7.85 0 -7.85 0.75 -7.7 1.6 -7.05 4.8 -4.35 6.55 -2.3 7.9 0 7.85 0.75 7.85 1.55 7.7 4.75 7.05 6.5 4.35 7.85 2.3 7.85 0 7.85 -0.75 7.65 -1.55 Z" _p="true"></path></g><path stroke="#000000" stroke-width="1.53" stroke-linejoin="miter" stroke-linecap="round" stroke-miterlimit="1" fill="none" d="M6.05 -5 Q7.24 -3.54 7.65 -1.55 7.85 -0.75 7.85 0 7.85 2.3 6.5 4.35 4.75 7.05 1.55 7.7 0.75 7.85 0 7.85 -2.3 7.9 -4.35 6.55 -7.05 4.8 -7.7 1.6 -7.85 0.75 -7.85 0 -7.9 -2.3 -6.6 -4.3 -6.34 -4.66 -6.07 -5" _p="true" stroke-opacity="1"></path></g></g><g class="ta" transform="matrix(0,1,-1,0,6.15,-69.95)"><g><g><path fill="#d6d7d2" fill-opacity="1" stroke="none" d="M7.65 -1.55 Q7.24 -3.54 6.05 -5 1.34 1.01 -6.1 -5 -6.34 -4.66 -6.6 -4.3 -7.9 -2.3 -7.85 0 -7.85 0.75 -7.7 1.6 -7.05 4.8 -4.35 6.55 -2.3 7.9 0 7.85 0.75 7.85 1.55 7.7 4.75 7.05 6.5 4.35 7.85 2.3 7.85 0 7.85 -0.75 7.65 -1.55 Z" _p="true"></path></g><path stroke="#000000" stroke-width="1.53" stroke-linejoin="miter" stroke-linecap="round" stroke-miterlimit="1" fill="none" d="M6.05 -5 Q7.24 -3.54 7.65 -1.55 7.85 -0.75 7.85 0 7.85 2.3 6.5 4.35 4.75 7.05 1.55 7.7 0.75 7.85 0 7.85 -2.3 7.9 -4.35 6.55 -7.05 4.8 -7.7 1.6 -7.85 0.75 -7.85 0 -7.9 -2.3 -6.6 -4.3 -6.34 -4.66 -6.07 -5" _p="true" stroke-opacity="1"></path></g></g><g><g><g><path fill="#d6d7d2" fill-opacity="1" stroke="none" d="M40.6 -63.45 L40.6 -63.5 40.2 -64.2 Q39.65 -65.05 39 -65.65 38.45 -66.2 35.6 -69.25 28.3 -66.3 20.15 -77.35 16.9 -78.45 15.05 -78.7 11.5 -79.25 9.55 -79.15 5.6 -79 2.1 -76.65 L2.05 -76.6 1.65 -76.3 Q-1.65 -73.9 -1.8 -69.75 -2.05 -65.05 -2.45 -62.65 17.85 -51.51 38.95 -50.7 39 -51.6 38.4 -57.05 38.3 -62.4 40.6 -63.45 Z" _p="true"></path></g><path stroke="#000000" stroke-width="1.53" stroke-linejoin="miter" stroke-linecap="round" stroke-miterlimit="1" fill="none" d="M40.6 -63.5 L40.2 -64.2 Q39.65 -65.05 39 -65.65 38.45 -66.2 35.6 -69.25 28.3 -66.3 20.15 -77.35 16.9 -78.45 15.05 -78.7 11.5 -79.25 9.55 -79.15 5.6 -79 2.1 -76.65 M1.65 -76.3 Q-1.65 -73.9 -1.8 -69.75 -2.05 -65.05 -2.45 -62.65" _p="true" stroke-opacity="1"></path></g></g><g><g><path fill="#d6d7d2" fill-opacity="1" stroke="none" d="M-2.3 -63.5 Q-2.26 -63.83 -2.25 -64.2 -2.27 -63.83 -2.35 -63.5 L-2.3 -63.5 M20.9 -12.25 L20.75 -12.25 23.35 -7 20.9 -12.25 M38.95 -50.7 L38.85 -50.75 Q38.86 -50.72 38.85 -50.7 L38.95 -50.7 M38.95 -50.9 Q38.86 -50.95 38.8 -51.05 L-1.85 -69.1 Q-1.98 -66.56 -2.2 -64.75 -2.17 -64.70 -2.2 -64.7 L-2.25 -64.2 Q-2.26 -63.83 -2.3 -63.5 L-2.3 -63.5 Q-2.42 -62.95 -2.45 -62.8 -3.40 -57.92 -5.75 -52.3 L-6.1 -51.5 Q-6.13 -51.30 -6.2 -51.15 -7.45 -48.35 -9.5 -42.45 L-9.55 -42.45 -16.55 -24.15 Q-17.9 -20.45 -20.2 -11.8 L-20.25 -11.75 Q-20.26 -11.59 -20.3 -11.5 L-20.35 -11.45 -27.35 -0.5 -26.4 1.75 Q-25.1 3.9 -23.25 3.5 -16.8 2.2 -15.85 3.65 -15 5 -11.9 7.15 L-9.55 7.3 Q-6.8 7.55 -5.1 8.15 -3.4 8.8 0.5 8.6 2.45 8.5 4.05 8.3 L7.05 7.8 Q10.4 7.4 11.85 8.05 13.6 8.85 15.45 8.65 17.25 8.5 18.15 7.5 19 6.55 20.6 5.8 22.1 5.1 23.5 4.85 25.3 4.55 26.1 4.35 L27.6 1.7 23.35 -7 20.75 -12.25 20.75 -12.3 Q20.87 -13.59 21.25 -15.6 L22.85 -20.65 24.6 -24.65 27.35 -29.15 Q29.25 -31.35 30.4 -33.3 31.6 -35.5 32.35 -36.9 33.34 -38.63 38.85 -50.7 38.86 -50.72 38.85 -50.75 38.91 -50.82 38.95 -50.9 Z" _p="true"></path></g><path stroke="#000000" stroke-width="1.53" stroke-linejoin="round" stroke-linecap="round" fill="none" d="M-1.82 -69.1 Q-1.98 -66.56 -2.17 -64.75 -2.17 -64.70 -2.17 -64.67 L-2.22 -64.2 Q-2.26 -63.83 -2.3 -63.5 M-5.75 -52.27 L-6.07 -51.47 Q-6.13 -51.30 -6.2 -51.15 -7.45 -48.35 -9.5 -42.45 L-9.55 -42.45 -16.55 -24.15 Q-17.9 -20.45 -20.2 -11.8 L-20.22 -11.72 M20.75 -12.27 Q20.87 -13.59 21.25 -15.6 L22.85 -20.65 24.6 -24.65 27.35 -29.15 Q29.25 -31.35 30.4 -33.3 31.6 -35.5 32.35 -36.9 33.34 -38.63 38.85 -50.7 38.86 -50.72 38.87 -50.75 38.91 -50.82 38.95 -50.9 M-2.3 -63.5 Q-2.67 -62.06 -3.2 -60.2 -4.61 -55.18 -5.75 -52.27 M-20.22 -11.72 Q-20.27 -11.58 -20.32 -11.45" _p="true" stroke-opacity="1"></path><path stroke="#000000" stroke-width="1.53" stroke-linejoin="round" stroke-linecap="round" fill="none" d="M-20.32 -11.45 L-27.35 -0.5 -26.4 1.75 Q-25.1 3.9 -23.25 3.5 -16.8 2.2 -15.85 3.65 -15 5 -11.9 7.15 L-9.55 7.3 Q-6.8 7.55 -5.1 8.15 -3.4 8.8 0.5 8.6 2.45 8.5 4.05 8.3 L7.05 7.8 Q10.4 7.4 11.85 8.05 13.6 8.85 15.45 8.65 17.25 8.5 18.15 7.5 19 6.55 20.6 5.8 22.1 5.1 23.5 4.85 25.3 4.55 26.1 4.35 L27.6 1.7 23.37 -7 20.75 -12.25 20.75 -12.27" _p="true" stroke-opacity="1"></path></g><g><g><path fill="#000000" fill-opacity="0.09" stroke="none" d="M-5.1 8.15 Q-4.35 8.45 -3.2 8.5 -3.6 -0.15 -4.3 -3.75 -5 -7.5 -7.7 7.5 -6.15 7.75 -5.1 8.15 M-13.15 -5.9 Q-12.45 -7.55 -16.5 -3.3 -20.5 0.85 -22.25 3.35 -16.8 2.25 -15.85 3.65 L-15.8 3.75 Q-14 -3.85 -13.15 -5.9 M5.5 -12 L1.6 -18.65 Q0 -20.75 -1.7 -23.5 -5.1 -29 -5.4 -32.15 -5.9 -37.2 -6 -39.6 -6.2 -44 -5.7 -46.95 -4.95 -49.75 -4.55 -51.45 -3.75 -54.65 -4.2 -56.4 -4.85 -54.4 -6.2 -51.15 -7.45 -48.35 -9.5 -42.45 L-9.55 -42.45 -16.55 -24.15 Q-17.9 -20.45 -20.2 -11.8 -20.26 -11.62 -20.35 -11.45 L-20.25 -11.55 -3.65 -11.85 Q-5.58 -14.51 -6.9 -17.15 -7.5 -18.4 -9 -23.9 L-10.4 -29.15 -8.45 -25.7 Q-6.1 -21.85 -3.9 -19.65 -0.95 -16.70 4.45 -12 L5.5 -12 M5.65 -2.6 Q4.55 -5.9 4.35 -0.75 4.25 2.6 4.5 8.2 6.4 7.7 8.85 7.65 5.85 -2 5.65 -2.6 M13 -3.7 Q11.05 -8.2 12.3 -2.25 12.85 0.35 14.9 8.65 16.6 8.65 17.7 7.85 15.7 2.7 13 -3.7 Z" _p="true"></path></g></g></g><g class="c33" transform="matrix(0.91,-0.40,0.40,0.91,0,0)"><g><path stroke="#999999" stroke-opacity="1" stroke-width="1.53" stroke-linejoin="round" stroke-linecap="round" fill="none" d="M30.15 -68.45 Q29.55 -64.55 28.6 -60 26.75 -50.95 25.1 -47.85 22.75 -43.5 17.1 -30.2 11.1 -16 10.4 -12.55 9.4 -7.55 9.75 6.8" _p="true"></path></g></g><g class="c33" transform="matrix(0.91,-0.40,0.40,0.91,0,0)"><g><g><path fill="#ffffff" fill-opacity="1" stroke="none" d="M9.9 -18.3 Q9.9 -18.8 9.55 -19.1 9.25 -19.45 8.75 -19.45 8.3 -19.45 8 -19.1 7.65 -18.8 7.65 -18.3 7.65 -17.85 8 -17.5 8.3 -17.2 8.75 -17.2 9.25 -17.2 9.55 -17.5 9.9 -17.85 9.9 -18.3 M15.55 -33.05 Q15.55 -33.55 15.2 -33.85 14.9 -34.2 14.4 -34.2 13.95 -34.2 13.65 -33.85 13.3 -33.55 13.3 -33.05 13.3 -32.6 13.65 -32.25 13.95 -31.95 14.4 -31.95 14.9 -31.95 15.2 -32.25 15.55 -32.6 15.55 -33.05 M20.9 -44.4 Q21.2 -44.7 21.2 -45.2 21.2 -45.65 20.9 -45.95 20.55 -46.3 20.1 -46.3 19.6 -46.3 19.3 -45.95 18.95 -45.65 18.95 -45.2 18.95 -44.7 19.3 -44.4 19.6 -44.05 20.1 -44.05 20.55 -44.05 20.9 -44.4 M26.1 -56.55 Q26.1 -57 25.75 -57.3 25.45 -57.65 24.95 -57.65 24.5 -57.65 24.2 -57.3 23.85 -57 23.85 -56.55 23.85 -56.05 24.2 -55.75 24.5 -55.4 24.95 -55.4 25.45 -55.4 25.75 -55.75 26.1 -56.05 26.1 -56.55 Z" _p="true"></path></g><path stroke="#000000" stroke-width="0.76" stroke-linejoin="round" stroke-linecap="round" fill="none" d="M26.1 -56.55 Q26.1 -56.05 25.75 -55.75 25.45 -55.4 24.95 -55.4 24.5 -55.4 24.2 -55.75 23.85 -56.05 23.85 -56.55 23.85 -57 24.2 -57.3 24.5 -57.65 24.95 -57.65 25.45 -57.65 25.75 -57.3 26.1 -57 26.1 -56.55 Z M21.2 -45.2 Q21.2 -44.7 20.9 -44.4 20.55 -44.05 20.1 -44.05 19.6 -44.05 19.3 -44.4 18.95 -44.7 18.95 -45.2 18.95 -45.65 19.3 -45.95 19.6 -46.3 20.1 -46.3 20.55 -46.3 20.9 -45.95 21.2 -45.65 21.2 -45.2 Z M15.55 -33.05 Q15.55 -32.6 15.2 -32.25 14.9 -31.95 14.4 -31.95 13.95 -31.95 13.65 -32.25 13.3 -32.6 13.3 -33.05 13.3 -33.55 13.65 -33.85 13.95 -34.2 14.4 -34.2 14.9 -34.2 15.2 -33.85 15.55 -33.55 15.55 -33.05 Z M9.9 -18.3 Q9.9 -17.85 9.55 -17.5 9.25 -17.2 8.75 -17.2 8.3 -17.2 8 -17.5 7.65 -17.85 7.65 -18.3 7.65 -18.8 8 -19.1 8.3 -19.45 8.75 -19.45 9.25 -19.45 9.55 -19.1 9.9 -18.8 9.9 -18.3 Z" _p="true" stroke-opacity="1"></path></g></g></g>
</g></g><g transform="matrix(0.63,0.23,-0.2732,0.75,162.37,99.22)" class="body"><g><g><g class="c1"><g><g><path fill="#fee9ca" fill-opacity="1" stroke="none" d="M9.05 -14.15 Q5.55 -15.75 2.9 -16.25 L2.85 -16.25 2.8 -16.25 Q0.15 -16.75 -3.65 -16.35 -6.50 -8.65 -6.85 0 -0.44 2.87 6.75 1 6.84 -6.19 9.05 -14.15 Z" _p="true"></path></g><path stroke="#000000" stroke-width="1.53" stroke-linejoin="miter" stroke-linecap="round" stroke-miterlimit="1" fill="none" d="M6.75 1 Q6.84 -6.19 9.05 -14.15 M-3.65 -16.35 Q-6.50 -8.65 -6.85 0" _p="true" stroke-opacity="1"></path></g></g></g>
</g></g><g transform="matrix(0.63,0.22,-0.2182,0.63,162.37,99.22)" class="body"><g><g><g class="c1"><g><g><path fill="#fee9ca" fill-opacity="1" stroke="none" d="M9.85 1.85 L6.85 0.75 Q5.35 0.3 -5.85 -0.2 -1.6 5 4.5 8.05 L9.85 1.85 Z" _p="true"></path></g><path stroke="#000000" stroke-width="1.53" stroke-linejoin="miter" stroke-linecap="round" stroke-miterlimit="1" fill="none" d="M6.85 0.75 L9.85 1.85" _p="true" stroke-opacity="1"></path></g></g><g class="c9"><g><g><path fill="#ffffff" fill-opacity="1" stroke="none" d="M4.4 8 Q3.7 8.05 3.55 8.45 2.95 10.75 0.8 14.8 -1.35 18.95 -2.05 21.2 -2.6 23.15 -2.5 24.15 -2.3 25.8 -0.55 25.95 1.35 26.05 3.15 24.75 L3.2 24.75 Q2.8 26.3 1.95 28.4 0.25 32.55 0.2 32.65 -1.15 36.45 -1.5 38.7 -2 42.25 -0.55 44.75 -0.25 45.2 0.45 44.95 1.1 44.65 0.8 44.15 -0.95 41.2 0.35 36.35 0.7 35.25 3.25 28.7 4.2 26.4 4.7 23.25 4.95 22.85 5.15 22.5 6 24.9 7.6 25.95 9.45 35.2 8.35 41.5 8.3 41.85 9.05 41.8 9.75 41.65 9.8 41.35 10.85 35.35 9.25 26.7 9.7 26.8 10.25 26.85 11.7 26.95 12.55 26.25 14 25.1 12.9 22.6 12.5 21.8 10.65 19 8.35 15.4 7.6 13.95 6.5 11.8 6.05 9.85 6.05 9.8 6.05 9.75 5.85 9.05 5.8 8.4 5.85 8.2 5.05 8.35 L5 8.35 Q5.15 7.9 4.4 8 M0.55 18.05 Q1 17 2.95 13.3 3.55 12.15 3.95 11.15 3.85 12.2 3.95 13.5 4 14.3 4.1 15.75 4.1 16.35 4.05 17 4 17.05 4 17.1 4 17.2 4.05 17.3 4 17.7 4 18.1 3.85 20.95 3.55 22.85 3.45 23 3.35 23.15 2.65 24.1 1.15 24.6 -0.55 25.25 -1 24.2 -1.45 23.25 -0.7 21.05 -0.5 20.65 0.55 18.05 M7.05 23.25 Q6.55 22.05 6.15 20.35 6.15 20.3 5.9 19 5.9 18 5.85 16.85 6.35 19.5 7.05 23.25 M10.6 21.6 Q12 23.8 11.8 24.45 11.65 25.15 10.5 25.4 9.6 25.65 9 25.45 7.9 19.85 7.25 16.3 8.45 18.25 10.6 21.6 Z" _p="true"></path></g></g></g><g class="c22"><g><g><path fill="#d6d7d2" fill-opacity="1" stroke="none" d="M0.45 9.8 Q2.65 8.75 4.45 8.45 -1.85 4.75 -6.1 -1.05 -8.25 -3.9 -9.15 -6.05 L-12.7 -0.35 Q-12.25 3.8 -8.9 10 -7.25 13.1 -5.7 15.4 -3.95 11.9 0.45 9.8 M8.85 -4.25 L8.65 -4.25 Q9.15 0.45 6.9 4.9 5.8 7.15 4.55 8.4 7.95 8.8 11.45 11 13.2 12.1 14.25 13.1 14.45 9.8 13.45 5.25 12.9 2.95 12.35 1.3 L8.85 -4.25 Z" _p="true"></path></g></g><g><path stroke="#000000" stroke-width="1.53" stroke-linejoin="round" stroke-linecap="round" fill="none" d="M4.55 8.4 Q5.8 7.15 6.9 4.9 9.15 0.45 8.65 -4.25 L8.85 -4.25 12.35 1.3 Q12.9 2.95 13.45 5.25 14.45 9.8 14.25 13.1 13.2 12.1 11.45 11 7.95 8.8 4.55 8.4 Z M-9.15 -6.05 Q-8.25 -3.9 -6.1 -1.05 -1.85 4.75 4.45 8.45 2.65 8.75 0.45 9.8 -3.95 11.9 -5.7 15.4 -7.25 13.1 -8.9 10 -12.25 3.8 -12.7 -0.35 L-9.15 -6.05 Z" _p="true" stroke-opacity="1"></path></g></g></g>
</g></g><g transform="matrix(-0.1735,-0.6474,-0.6474,0.17,147.59,102.92)" class="body"><g><g><g class="c1"><g class="tb" display="none"><g><g><path fill="#fee9ca" fill-opacity="1" stroke="none" d="M-1.6 -7.65 Q-4.8 -6.95 -6.6 -4.3 -7.9 -2.3 -7.85 0 -7.85 0.75 -7.7 1.6 -7.05 4.8 -4.35 6.55 -2.3 7.9 0 7.85 0.75 7.85 1.55 7.7 4.75 7.05 6.5 4.35 7.85 2.3 7.85 0 7.85 -0.75 7.65 -1.55 7 -4.75 4.3 -6.55 2.3 -7.85 0 -7.85 -0.75 -7.85 -1.6 -7.65 Z" _p="true"></path></g><path stroke="#000000" stroke-width="1.53" stroke-linejoin="miter" stroke-linecap="round" stroke-miterlimit="1" fill="none" d="M6.5 4.35 Q4.75 7.05 1.55 7.7 0.75 7.85 0 7.85 -2.3 7.9 -4.35 6.55 -7.05 4.8 -7.7 1.6 -7.85 0.75 -7.85 0 -7.9 -2.3 -6.6 -4.3 -4.8 -6.95 -1.6 -7.65 -0.75 -7.85 0 -7.85 2.3 -7.85 4.3 -6.55 7 -4.75 7.65 -1.55 7.85 -0.75 7.85 0 7.85 2.3 6.5 4.35 Z" _p="true" stroke-opacity="1"></path></g></g><g class="ta" transform="matrix(1,0,0,1,0,39.95)"><g><g><path fill="#fee9ca" fill-opacity="1" stroke="none" d="M-1.3 -6.25 Q-3.9 -5.7 -5.4 -3.5 -6.45 -1.85 -6.4 0 -6.4 0.65 -6.3 1.3 -5.8 3.9 -3.55 5.35 -1.9 6.45 0 6.4 0.65 6.4 1.25 6.3 3.85 5.8 5.3 3.6 6.4 1.9 6.4 0 6.4 -0.65 6.25 -1.25 5.75 -3.85 3.55 -5.35 1.85 -6.4 0 -6.4 -0.65 -6.4 -1.3 -6.25 Z" _p="true"></path></g><path stroke="#000000" stroke-width="1.53" stroke-linejoin="miter" stroke-linecap="round" stroke-miterlimit="1" fill="none" d="M5.3 3.6 Q3.85 5.8 1.25 6.3 0.65 6.4 0 6.4 -1.9 6.45 -3.55 5.35 -5.8 3.9 -6.3 1.3 -6.4 0.65 -6.4 0 -6.45 -1.85 -5.4 -3.5 -3.9 -5.7 -1.3 -6.25 -0.65 -6.4 0 -6.4 1.85 -6.4 3.55 -5.35 5.75 -3.85 6.25 -1.25 6.4 -0.65 6.4 0 6.4 1.9 5.3 3.6 Z" _p="true" stroke-opacity="1"></path></g></g><g><g><path fill="#fee9ca" fill-opacity="1" stroke="none" d="M6.45 39.9 Q6.8 36.1 7.15 32.4 7.8 25 7.85 19.15 7.85 10.75 7.85 0.05 7.83 0.02 7.8 0 -0.06 -1.09 -7.75 0 -7.80 0.04 -7.85 0.1 L-6.35 39.9 6.45 39.9 Z" _p="true"></path></g><path stroke="#000000" stroke-width="1.53" stroke-linejoin="miter" stroke-linecap="round" stroke-miterlimit="1" fill="none" d="M7.85 0.05 Q7.85 10.75 7.85 19.15 7.8 25 7.15 32.4 6.8 36.1 6.45 39.9 M-6.35 39.9 L-7.85 0.1" _p="true" stroke-opacity="1"></path></g></g></g>
</g></g><g transform="matrix(-0.1735,-0.6474,-0.6474,0.17,147.59,102.92)" class="body"><g><g><g class="c4"><g class="tb" transform="matrix(-1,0,0,-1,0,0)" display="none"><g><g><path fill="#d6d7d2" fill-opacity="1" stroke="none" d="M7.65 -1.55 Q7.24 -3.54 6.05 -5 1.34 1.01 -6.1 -5 -6.34 -4.66 -6.6 -4.3 -7.9 -2.3 -7.85 0 -7.85 0.75 -7.7 1.6 -7.05 4.8 -4.35 6.55 -2.3 7.9 0 7.85 0.75 7.85 1.55 7.7 4.75 7.05 6.5 4.35 7.85 2.3 7.85 0 7.85 -0.75 7.65 -1.55 Z" _p="true"></path></g><path stroke="#000000" stroke-width="1.53" stroke-linejoin="miter" stroke-linecap="round" stroke-miterlimit="1" fill="none" d="M6.05 -5 Q7.24 -3.54 7.65 -1.55 7.85 -0.75 7.85 0 7.85 2.3 6.5 4.35 4.75 7.05 1.55 7.7 0.75 7.85 0 7.85 -2.3 7.9 -4.35 6.55 -7.05 4.8 -7.7 1.6 -7.85 0.75 -7.85 0 -7.9 -2.3 -6.6 -4.3 -6.34 -4.66 -6.07 -5" _p="true" stroke-opacity="1"></path></g></g><g><g><path fill="#d6d7d2" fill-opacity="1" stroke="none" d="M1.85 7.3 Q9.55 5.15 10.25 4.15 10.9 3.15 7.35 -2.55 L-7.65 -1.85 -8.75 7.15 -8.25 8.45 Q-6.25 9.6 1.85 7.3 Z" _p="true"></path></g></g><g><path stroke="#000000" stroke-width="1.53" stroke-linejoin="round" stroke-linecap="round" fill="none" d="M7.45 -2.55 Q10.9 3.15 10.25 4.15 9.55 5.15 1.85 7.3 -6.25 9.6 -8.25 8.45 -8.75 8.1 -8.75 7.15 -8.75 6.2 -7.6 -2.05" _p="true" stroke-opacity="1"></path></g></g></g>
</g></g><g transform="matrix(0.81,0.028,-0.0261,0.75,169.84,89.61)" class="head"><g><g><g class="c2"><g><g><path fill="#f4d47a" fill-opacity="1" stroke="none" d="M26.1 -26.15 Q25.35 -31.15 21.1 -37.45 18.25 -41.8 13.8 -44.1 11.2 -45.4 8.8 -45.2 7.7 -45.05 6.7 -44.7 5.95 -45.35 4.4 -45.7 2.55 -45.95 1.8 -46.1 -3.7 -47.2 -8.05 -45.35 -12.75 -43.4 -16 -39.65 L-16.7 -38.95 -16.7 -39.15 Q-20.35 -35.35 -22 -29.25 -23.35 -24 -22.05 -18.6 -21.45 -16.4 -21.25 -15.9 -20.65 -14.3 -19.75 -13.6 -19 -13 -17.6 -12.75 -15.5 -12.4 -15.3 -12.35 -11.45 -11.25 -5.45 -11.35 -2.8 -11.35 2.45 -11.65 7.75 -11.9 10.35 -11.95 14.1 -12 18.05 -12.8 22.45 -13.65 24.7 -17.7 26.75 -21.45 26.1 -26.15 Z" _p="true"></path></g></g><g><path stroke="#000000" stroke-width="0.46" stroke-linejoin="round" stroke-linecap="round" fill="none" d="M-0.7 -42.1 Q-4.15 -42.95 -7.85 -42.8 -11.6 -42.6 -13.95 -41.4 -13.2 -41.85 -11.75 -42.85 -10.3 -43.6 -7.95 -43.85 -4.75 -44.15 -3.1 -44.15 -1.85 -44.15 0.3 -43.85" _p="true" stroke-opacity="1"></path><path stroke="#000000" stroke-width="1.53" stroke-linejoin="round" stroke-linecap="round" fill="none" d="M7.8 -45 Q10.95 -45.65 14.95 -43.45 18.45 -41.5 20.7 -38.6 23.2 -35.45 24.55 -31.75 25.95 -27.7 25.65 -24 25.3 -19.5 24.4 -17.45 23.9 -16.2 22.55 -15 21.7 -14.2 21.4 -13.7 L21.25 -13.35 M5.55 -45.15 Q-1.35 -47.7 -8.9 -44.7 -16.55 -41.65 -19.5 -34.85 -21 -31.45 -21.15 -31.05 -23.2 -25.75 -22.8 -21.25 -22.55 -18.6 -21.05 -15.45 -19.85 -12.9 -18.6 -11.8" _p="true" stroke-opacity="1"></path></g></g></g>
</g></g><g transform="matrix(0.82,0.029,-0.0286,0.82,178.88,79.12)" class="head"><g><g><g class="c1"><g><g><path fill="#fee9ca" fill-opacity="1" stroke="none" d="M4.55 -1.85 L4.5 -1.85 Q4.15 -2 3.8 -2.1 3.3 -2.15 2.8 -2.1 1.95 -2 1.3 -1.3 L0 0 -0.5 0.7 Q-0.95 1.51 -1.2 2.45 L-2.55 12.45 Q-1.8 13.4 1 11.55 3.3 10.05 5.15 8.05 6.7 6.45 6.55 2.85 6.51 1.59 6.25 0.65 5.80 -1.18 4.55 -1.85 M0.95 4.9 Q1.9 5.05 1.55 6 1.05 7.5 -0.95 8.6 1.05 7.5 1.55 6 1.9 5.05 0.95 4.9 0.5 4.8 -0.05 4.9 2.45 1.6 3.3 1.15 3.85 0.9 4.15 2.6 4.3 3.4 4.35 4.3 4.3 3.4 4.15 2.6 3.85 0.9 3.3 1.15 2.45 1.6 -0.05 4.9 0.5 4.8 0.95 4.9 Z" _p="true"></path></g><path stroke="#000000" stroke-width="1.38" stroke-linejoin="miter" stroke-linecap="round" stroke-miterlimit="1" fill="none" d="M0 0 L1.3 -1.3 Q1.95 -2 2.82 -2.1 3.3 -2.15 3.8 -2.07 4.15 -2 4.5 -1.85 L4.55 -1.85 Q5.80 -1.18 6.27 0.65 6.51 1.59 6.55 2.85 6.7 6.45 5.15 8.05 3.3 10.05 1 11.55 -1.8 13.4 -2.55 12.45" _p="true" stroke-opacity="1"></path><path stroke="#988c79" stroke-opacity="1" stroke-width="0.69" stroke-linejoin="miter" stroke-linecap="round" stroke-miterlimit="1" fill="none" d="M4.35 4.3 Q4.3 3.4 4.15 2.6 3.85 0.9 3.3 1.15 2.45 1.6 -0.05 4.9 0.5 4.8 0.95 4.9 1.9 5.05 1.55 6 1.05 7.5 -0.95 8.6" _p="true"></path></g></g></g>
</g></g><g transform="matrix(0.81,0.028,-0.0261,0.75,170,85.13)" class="head"><g><g><g class="c1"><g><g><path fill="#fee9ca" fill-opacity="1" stroke="none" d="M19.75 -1.05 Q19.85 -4.2 19.9 -5.75 19.9 -6.15 20.45 -9.35 21.45 -15.3 21.5 -15.75 22 -19.5 21.6 -22.2 21.25 -25.05 19.75 -27.85 18.3 -30.6 16.1 -32.65 14.05 -34.55 11.05 -35.8 8.3 -37 5.35 -37.4 0.95 -38 -3.45 -36.9 -7.9 -35.85 -11.45 -33.3 -17.1 -29.3 -17.2 -21.85 -17.25 -17.9 -14.85 -8.6 -13.4 -3.25 -12.7 -1.05 7.35 10.82 19.75 -1.05 Z" _p="true"></path></g><path stroke="#000000" stroke-width="1.38" stroke-linejoin="miter" stroke-linecap="round" stroke-miterlimit="1" fill="none" d="M-12.7 -1.05 Q-13.4 -3.25 -14.85 -8.6 -17.25 -17.9 -17.2 -21.85 -17.1 -29.3 -11.45 -33.3 -7.9 -35.85 -3.45 -36.9 0.95 -38 5.35 -37.4 8.3 -37 11.05 -35.8 14.05 -34.55 16.1 -32.65 18.3 -30.6 19.75 -27.85 21.25 -25.05 21.6 -22.2 22 -19.5 21.5 -15.75 21.45 -15.3 20.45 -9.35 19.9 -6.15 19.9 -5.75 19.85 -4.2 19.75 -1.05" _p="true" stroke-opacity="1"></path></g></g></g>
</g></g><g transform="matrix(0.81,0.028,-0.0261,0.75,177.53,89.88)" class="head"><path class="customDrawFill" d="M8.85 -1.2 Q9.2 -1.85 10.2 -7.1 L-22.3 -7.1 Q-20.05 -1.75 -19.25 -1.2 Z" fill="#fee9ca"></path><path class="customDrawStroke" d="M8.85 -1.2 Q9.2 -1.85 10.2 -7.1 M-22.3 -7.1 Q-20.05 -1.75 -19.25 -1.2" fill="none" stroke-linecap="round" stroke="#000" stroke-width="1.53"></path><g><g><g class="c1"><g><g><path fill="#fee9ca" fill-opacity="1" stroke="none" d="M8.85 -1.2 Q7.95 -2.1 5.95 -3 1.95 -4.8 -3.75 -4.8 -12.85 -4.8 -19.25 -1.2 -15.1 4.7 -5.9 8.3 -2.75 9.55 -0.95 9.3 0.85 9 3.05 6.9 5 5.05 6.7 2.7 8.25 0.45 8.85 -1.2 Z" _p="true"></path></g><path stroke="#000000" stroke-width="1.38" stroke-linejoin="round" stroke-linecap="round" fill="none" d="M8.85 -1.2 Q8.25 0.45 6.7 2.7 5 5.05 3.05 6.9 0.85 9 -0.95 9.3 -2.75 9.55 -5.9 8.3 -15.1 4.7 -19.25 -1.2" _p="true" stroke-opacity="1"></path></g></g></g>
</g></g><g transform="matrix(0.81,0.028,-0.0261,0.75,169.84,89.61)" class="head"><g><g><g class="c2"><g><g><path fill="#f4d47a" fill-opacity="1" stroke="none" d="M23.4 -25.2 Q23.45 -27.8 22.8 -30.35 21.4 -35.5 17.1 -39.15 12.7 -42.9 8.6 -43.6 3.25 -44.6 -3.7 -42.7 -8.25 -41.45 -11 -39 -12.75 -37.45 -13.85 -35.85 -15.9 -33.15 -16.8 -29.45 -17.5 -26.7 -17.7 -22.4 -17.75 -20.3 -17.65 -19.25 -17.5 -17.55 -16.95 -16.25 -16.15 -14.4 -13.65 -11.5 -12.7 -14.4 -12.5 -14.75 -12.1 -15.55 -8.55 -18.5 -4.9 -21.5 -4.5 -22.15 -4.2 -22.55 -3.5 -23.3 -2.9 -24.05 -2.7 -24.65 -1.8 -27.2 -1.45 -29.05 -1.25 -30 -0.75 -30.4 -0.6 -30.55 0.6 -31.25 3.35 -32.8 5.25 -33.2 7.75 -33.75 10.25 -33.45 12.9 -33.1 15 -31.9 18.15 -30.15 20.2 -26.9 22.35 -23.55 22.4 -20.05 22.5 -20.7 22.95 -22.6 23.35 -24.15 23.4 -25.2 Z" _p="true"></path></g></g><g><g><path fill="#000000" fill-opacity="0.2" stroke="none" d="M-1.5 -28.85 L-1.8 -29.5 Q-2.25 -28.8 -2.9 -27.15 -3.55 -26.15 -4.65 -24.85 -5.25 -24.1 -6.7 -22.7 -8.1 -21.35 -8.7 -20.55 -8.6 -21.15 -8.6 -22.1 -8.6 -23.5 -8.6 -23.7 -8.4 -26.75 -8.4 -28.3 -8.8 -27.7 -10.1 -26.1 -11.3 -24.65 -11.8 -23.8 -12.7 -22.4 -12.9 -20.45 -13.75 -21.15 -14.5 -23 -14.75 -23.65 -15.45 -25.95 -16.2 -28.3 -16.15 -30.15 L-15.95 -31.4 Q-17.45 -27.5 -17.7 -22.4 -17.75 -20.3 -17.65 -19.25 -17.5 -17.55 -16.95 -16.25 -16.15 -14.35 -13.65 -11.5 -13.3 -13.75 -12.5 -14.75 -11.55 -15.9 -8.65 -18.2 -5.9 -20.35 -5.45 -21 -5.15 -21.4 -3.95 -22.75 -2.9 -24.05 -2.7 -24.65 -1.95 -26.65 -1.5 -28.85 Z" _p="true"></path></g></g><g><g><path fill="#ffffff" fill-opacity="0.4" stroke="none" d="M15.15 -40.5 Q14.8 -40.8 14.2 -40.95 L14.55 -40.95 Q13.6 -41.65 12.2 -42.35 11.35 -42.4 9.95 -42.3 L11.55 -41.7 Q12.1 -41.4 12.45 -41.2 13.1 -40.95 13.3 -41 13 -40.85 11.75 -40.35 12.35 -40 13.4 -39.75 14.55 -39.5 14.95 -39.4 14.5 -39.15 13.6 -39.05 14.05 -38.6 14.95 -38.1 16.05 -37.6 16.2 -37.45 15.85 -37.4 15 -37.3 14.15 -37.15 13.5 -36.6 14.15 -36.35 15.1 -36.4 16.2 -36.45 16.4 -36.4 17.15 -36.2 18.85 -35.05 18.25 -36.25 17 -37.95 16.8 -38.2 16.25 -38.6 15.7 -39 15.45 -39.4 15.8 -39.6 16 -39.65 15.8 -40.05 15.3 -40.4 L15.15 -40.5 Z" _p="true"></path></g></g><g><path stroke="#000000" stroke-width="0.76" stroke-linejoin="round" stroke-linecap="round" fill="none" d="M-1.95 -26.9 Q-2.25 -25.85 -3 -24.45 -4.5 -21.65 -6.75 -19.95 -10.45 -17.1 -11.65 -15.8 -13.55 -13.75 -13.65 -11.5" _p="true" stroke-opacity="1"></path></g></g></g>
</g></g><g transform="matrix(-0.8182,-0.0286,-0.0286,0.82,159.88,78.12)" class="head"><g><g><g class="c1"><g><g><path fill="#fee9ca" fill-opacity="1" stroke="none" d="M4.55 -1.85 L4.5 -1.85 Q4.15 -2 3.8 -2.1 3.3 -2.15 2.8 -2.1 1.95 -2 1.3 -1.3 L0 0 -0.5 0.7 Q-0.95 1.51 -1.2 2.45 L-2.55 12.45 Q-1.8 13.4 1 11.55 3.3 10.05 5.15 8.05 6.7 6.45 6.55 2.85 6.51 1.59 6.25 0.65 5.80 -1.18 4.55 -1.85 M0.95 4.9 Q1.9 5.05 1.55 6 1.05 7.5 -0.95 8.6 1.05 7.5 1.55 6 1.9 5.05 0.95 4.9 0.5 4.8 -0.05 4.9 2.45 1.6 3.3 1.15 3.85 0.9 4.15 2.6 4.3 3.4 4.35 4.3 4.3 3.4 4.15 2.6 3.85 0.9 3.3 1.15 2.45 1.6 -0.05 4.9 0.5 4.8 0.95 4.9 Z" _p="true"></path></g><path stroke="#000000" stroke-width="1.38" stroke-linejoin="miter" stroke-linecap="round" stroke-miterlimit="1" fill="none" d="M0 0 L1.3 -1.3 Q1.95 -2 2.82 -2.1 3.3 -2.15 3.8 -2.07 4.15 -2 4.5 -1.85 L4.55 -1.85 Q5.80 -1.18 6.27 0.65 6.51 1.59 6.55 2.85 6.7 6.45 5.15 8.05 3.3 10.05 1 11.55 -1.8 13.4 -2.55 12.45" _p="true" stroke-opacity="1"></path><path stroke="#988c79" stroke-opacity="1" stroke-width="0.69" stroke-linejoin="miter" stroke-linecap="round" stroke-miterlimit="1" fill="none" d="M4.35 4.3 Q4.3 3.4 4.15 2.6 3.85 0.9 3.3 1.15 2.45 1.6 -0.05 4.9 0.5 4.8 0.95 4.9 1.9 5.05 1.55 6 1.05 7.5 -0.95 8.6" _p="true"></path></g></g></g>
</g></g><g transform="matrix(0.74,0.026,-0.0349,1,185.17,83.38)" class="head"><g><g><g class="c0" transform="matrix(1,0,0,1,0,-2.65)"><g><g><path fill="#fff" fill-opacity="0.4" stroke="none" d="M1.2 -0.3 Q0.65 -0.6 0.15 -0.55 -0.55 -0.45 -1.55 0.35 -1.85 0.5 -1.75 0.65 -1.7 0.85 -0.2 0.85 -0.05 0.85 0.75 0.9 1.5 0.95 1.65 0.8 1.85 0.65 1.65 0.25 1.45 -0.1 1.2 -0.3 Z" _p="true"></path></g></g></g></g>
</g></g><g transform="matrix(-0.9994,-0.0349,-0.0349,1,168.99,82.81)" class="head"><g><g><g class="c0" transform="matrix(1,0,0,1,0,-2.65)"><g><g><path fill="#fff" fill-opacity="0.4" stroke="none" d="M1.2 -0.3 Q0.65 -0.6 0.15 -0.55 -0.55 -0.45 -1.55 0.35 -1.85 0.5 -1.75 0.65 -1.7 0.85 -0.2 0.85 -0.05 0.85 0.75 0.9 1.5 0.95 1.65 0.8 1.85 0.65 1.65 0.25 1.45 -0.1 1.2 -0.3 Z" _p="true"></path></g></g></g></g>
</g></g><g transform="matrix(0.58,0.02,-0.0232,0.66,184.16,78.41)" class="head"><g><g><g><g><g><path fill="#fff" stroke="none" d="M4.15 -0.15 Q3.65 -1.55 3.1 -2.1 2.9 -2.25 2.75 -2.35 2 -2.65 1.1 -2.65 0.85 -2.65 0.65 -2.6 0.5 -2.6 0.35 -2.6 -0.95 -2.45 -2.05 -1.9 -3.25 -1.3 -3.8 0.55 -3.9 0.85 -4 1.25 L-4 1.35 -4.05 1.45 Q-3.55 1.65 -3.05 1.8 -0.05 2.55 3.15 1.6 4 1.35 4.2 1.05 4.4 0.7 4.15 -0.15 Z"></path></g></g></g><mask id="1737164347077169152_eyeL_1_l2_e0_m1"><g><g><g><path fill="#fff" stroke="none" d="M4.15 -0.15 Q3.65 -1.55 3.1 -2.1 2.9 -2.25 2.75 -2.35 2 -2.65 1.1 -2.65 0.85 -2.65 0.65 -2.6 0.5 -2.6 0.35 -2.6 -0.95 -2.45 -2.05 -1.9 -3.25 -1.3 -3.8 0.55 -3.9 0.85 -4 1.25 L-4 1.35 -4.05 1.45 Q-3.55 1.65 -3.05 1.8 -0.05 2.55 3.15 1.6 4 1.35 4.2 1.05 4.4 0.7 4.15 -0.15 Z"></path></g></g></g></mask><g mask="url(#1737164347077169152_eyeL_1_l2_e0_m1)"><g class="offset" transform="matrix(1.14,0,0,0.88,1.92,0.48)"><g class="c10"><g><g><path fill="#91ccf2" fill-opacity="1" stroke="none" d="M2.2 -0.1 Q2.15 -1.05 1.5 -1.65 0.8 -2.3 -0.1 -2.25 -0.95 -2.2 -1.55 -1.5 -2.2 -0.85 -2.15 0.1 -2.05 1.05 -1.4 1.65 -0.75 2.3 0.15 2.25 1.05 2.2 1.65 1.5 2.25 0.8 2.2 -0.1 Z" _p="true"></path></g><path stroke="#000000" stroke-width="0.76" stroke-linejoin="miter" stroke-linecap="butt" stroke-miterlimit="3" fill="none" d="M2.2 -0.1 Q2.25 0.8 1.65 1.5 1.05 2.2 0.15 2.25 -0.75 2.3 -1.4 1.65 -2.05 1.05 -2.15 0.1 -2.2 -0.85 -1.55 -1.5 -0.95 -2.2 -0.1 -2.25 0.8 -2.3 1.5 -1.65 2.15 -1.05 2.2 -0.1 Z" _p="true" stroke-opacity="1"></path></g><g><g><path fill="#91ccf2" fill-opacity="1" stroke="none" d="M2.2 -0.1 Q2.15 -1.05 1.5 -1.65 0.8 -2.3 -0.1 -2.25 -0.95 -2.2 -1.55 -1.5 -2.2 -0.85 -2.15 0.1 -2.05 1.05 -1.4 1.65 -0.75 2.3 0.15 2.25 1.05 2.2 1.65 1.5 2.25 0.8 2.2 -0.1 Z" _p="true"></path></g></g><g><g><path fill="#fff" stroke="none" d="M0.65 -1.25 Q0.55 -1.15 0.55 -0.95 0.55 -0.55 0.95 -0.55 1.1 -0.6 1.2 -0.65 1.35 -0.8 1.35 -1 1.35 -1.4 0.9 -1.4 0.7 -1.4 0.65 -1.25 Z" _p="true"></path><path fill="#000000" fill-opacity="0.69" stroke="none" d="M0.55 -0.95 Q0.55 -1.15 0.65 -1.25 0.3 -1.45 -0.05 -1.4 -0.6 -1.4 -0.95 -0.95 -1.35 -0.55 -1.3 0.05 -1.25 0.6 -0.85 1 -0.45 1.35 0.1 1.35 0.65 1.3 1.05 0.9 1.4 0.45 1.35 -0.1 1.3 -0.4 1.2 -0.65 1.1 -0.6 0.95 -0.55 0.55 -0.55 0.55 -0.95 Z" _p="true"></path></g></g></g></g></g><g class="c1"><g><path stroke="#000000" stroke-width="0.38" stroke-linejoin="miter" stroke-linecap="round" stroke-miterlimit="3" fill="none" d="M3.95 -1.8 Q3.45 -2.95 1.7 -3.35 0.1 -3.65 -1.1 -3.15 -3.65 -2.1 -4.15 1.55" _p="true" stroke-opacity="1"></path></g><g><path stroke="#000000" stroke-width="0.76" stroke-linejoin="miter" stroke-linecap="round" stroke-miterlimit="3" fill="none" d="M-3.95 1.3 Q-3.7 -0.5 -1.45 -1.9 -0.4 -2.55 0.6 -2.6 1.75 -2.65 2.6 -1.95 3.45 -1.2 3.95 -0.4 4.7 0.8 3.95 1.3 2.6 2.2 -0.6 2.2 -3.55 2.2 -3.95 1.6 L-3.95 1.3 Z" _p="true" stroke-opacity="1"></path></g><g><path stroke="#000000" stroke-width="0.76" stroke-linejoin="round" stroke-linecap="round" fill="none" d="M3.75 -1.05 Q3.55 -1 4.25 -0.7 5.1 -0.4 5.85 -1.1 M2.85 -1.8 Q3.45 -1.65 3.95 -1.8 4.6 -1.9 5 -2.4 M2.3 -2.35 Q2.6 -2.1 3.45 -2.7 4.25 -3.2 4.5 -3.6" _p="true" stroke-opacity="1"></path></g><g><path stroke="#000000" stroke-width="1.53" stroke-linejoin="miter" stroke-linecap="square" stroke-miterlimit="3" fill="none" d="M-4 1.55 Q-3.65 -1.75 -0.25 -2.45 0.5 -2.6 1.4 -2.4 2.3 -2.2 2.85 -1.8 3.4 -1.35 3.8 -0.55 4.2 0.15 4.25 0.65" _p="true" stroke-opacity="1"></path></g></g></g>
</g></g><g transform="matrix(-0.778,-0.0272,-0.0232,0.66,171.57,77.97)" class="head"><g><g><g><g><g><path fill="#fff" stroke="none" d="M4.15 -0.15 Q3.65 -1.55 3.1 -2.1 2.9 -2.25 2.75 -2.35 2 -2.65 1.1 -2.65 0.85 -2.65 0.65 -2.6 0.5 -2.6 0.35 -2.6 -0.95 -2.45 -2.05 -1.9 -3.25 -1.3 -3.8 0.55 -3.9 0.85 -4 1.25 L-4 1.35 -4.05 1.45 Q-3.55 1.65 -3.05 1.8 -0.05 2.55 3.15 1.6 4 1.35 4.2 1.05 4.4 0.7 4.15 -0.15 Z"></path></g></g></g><mask id="1737164347077169152_eyeR_0_l2_e0_m1"><g><g><g><path fill="#fff" stroke="none" d="M4.15 -0.15 Q3.65 -1.55 3.1 -2.1 2.9 -2.25 2.75 -2.35 2 -2.65 1.1 -2.65 0.85 -2.65 0.65 -2.6 0.5 -2.6 0.35 -2.6 -0.95 -2.45 -2.05 -1.9 -3.25 -1.3 -3.8 0.55 -3.9 0.85 -4 1.25 L-4 1.35 -4.05 1.45 Q-3.55 1.65 -3.05 1.8 -0.05 2.55 3.15 1.6 4 1.35 4.2 1.05 4.4 0.7 4.15 -0.15 Z"></path></g></g></g></mask><g mask="url(#1737164347077169152_eyeR_0_l2_e0_m1)"><g class="offset" transform="matrix(1,0,0,1,-2.25,0.55)"><g class="c10"><g><g><path fill="#91ccf2" fill-opacity="1" stroke="none" d="M2.2 -0.1 Q2.15 -1.05 1.5 -1.65 0.8 -2.3 -0.1 -2.25 -0.95 -2.2 -1.55 -1.5 -2.2 -0.85 -2.15 0.1 -2.05 1.05 -1.4 1.65 -0.75 2.3 0.15 2.25 1.05 2.2 1.65 1.5 2.25 0.8 2.2 -0.1 Z" _p="true"></path></g><path stroke="#000000" stroke-width="0.76" stroke-linejoin="miter" stroke-linecap="butt" stroke-miterlimit="3" fill="none" d="M2.2 -0.1 Q2.25 0.8 1.65 1.5 1.05 2.2 0.15 2.25 -0.75 2.3 -1.4 1.65 -2.05 1.05 -2.15 0.1 -2.2 -0.85 -1.55 -1.5 -0.95 -2.2 -0.1 -2.25 0.8 -2.3 1.5 -1.65 2.15 -1.05 2.2 -0.1 Z" _p="true" stroke-opacity="1"></path></g><g><g><path fill="#91ccf2" fill-opacity="1" stroke="none" d="M2.2 -0.1 Q2.15 -1.05 1.5 -1.65 0.8 -2.3 -0.1 -2.25 -0.95 -2.2 -1.55 -1.5 -2.2 -0.85 -2.15 0.1 -2.05 1.05 -1.4 1.65 -0.75 2.3 0.15 2.25 1.05 2.2 1.65 1.5 2.25 0.8 2.2 -0.1 Z" _p="true"></path></g></g><g><g><path fill="#fff" stroke="none" d="M0.65 -1.25 Q0.55 -1.15 0.55 -0.95 0.55 -0.55 0.95 -0.55 1.1 -0.6 1.2 -0.65 1.35 -0.8 1.35 -1 1.35 -1.4 0.9 -1.4 0.7 -1.4 0.65 -1.25 Z" _p="true"></path><path fill="#000000" fill-opacity="0.69" stroke="none" d="M0.55 -0.95 Q0.55 -1.15 0.65 -1.25 0.3 -1.45 -0.05 -1.4 -0.6 -1.4 -0.95 -0.95 -1.35 -0.55 -1.3 0.05 -1.25 0.6 -0.85 1 -0.45 1.35 0.1 1.35 0.65 1.3 1.05 0.9 1.4 0.45 1.35 -0.1 1.3 -0.4 1.2 -0.65 1.1 -0.6 0.95 -0.55 0.55 -0.55 0.55 -0.95 Z" _p="true"></path></g></g></g></g></g><g class="c1"><g><path stroke="#000000" stroke-width="0.38" stroke-linejoin="miter" stroke-linecap="round" stroke-miterlimit="3" fill="none" d="M3.95 -1.8 Q3.45 -2.95 1.7 -3.35 0.1 -3.65 -1.1 -3.15 -3.65 -2.1 -4.15 1.55" _p="true" stroke-opacity="1"></path></g><g><path stroke="#000000" stroke-width="0.76" stroke-linejoin="miter" stroke-linecap="round" stroke-miterlimit="3" fill="none" d="M-3.95 1.3 Q-3.7 -0.5 -1.45 -1.9 -0.4 -2.55 0.6 -2.6 1.75 -2.65 2.6 -1.95 3.45 -1.2 3.95 -0.4 4.7 0.8 3.95 1.3 2.6 2.2 -0.6 2.2 -3.55 2.2 -3.95 1.6 L-3.95 1.3 Z" _p="true" stroke-opacity="1"></path></g><g><path stroke="#000000" stroke-width="0.76" stroke-linejoin="round" stroke-linecap="round" fill="none" d="M3.75 -1.05 Q3.55 -1 4.25 -0.7 5.1 -0.4 5.85 -1.1 M2.85 -1.8 Q3.45 -1.65 3.95 -1.8 4.6 -1.9 5 -2.4 M2.3 -2.35 Q2.6 -2.1 3.45 -2.7 4.25 -3.2 4.5 -3.6" _p="true" stroke-opacity="1"></path></g><g><path stroke="#000000" stroke-width="1.53" stroke-linejoin="miter" stroke-linecap="square" stroke-miterlimit="3" fill="none" d="M-4 1.55 Q-3.65 -1.75 -0.25 -2.45 0.5 -2.6 1.4 -2.4 2.3 -2.2 2.85 -1.8 3.4 -1.35 3.8 -0.55 4.2 0.15 4.25 0.65" _p="true" stroke-opacity="1"></path></g></g></g>
</g></g><g transform="matrix(0.78,0.027,-0.0261,0.75,177.54,89.69)" class="head"><g><g><g class="c3"><g><g><path fill="#e8b998" fill-opacity="1" stroke="none" d="M3.65 -0.4 Q3.4 -1 3.1 -1.25 2.8 -1.5 2.55 -1.45 2.05 -1.3 2 -1.3 1.7 -1.3 1.3 -1.4 1.1 -1.45 0.6 -1.6 -0.35 -1.8 -2.8 -0.95 -3.9 -0.6 -4.4 -0.25 -4.95 -0.1 -5.2 0.05 -5.45 0.15 -5.2 0.5 -5.05 0.65 -4.45 1.15 -3.1 2.4 -1 2.6 1.05 2.8 2.65 1.9 3.35 1.45 3.65 1.2 4.25 0.65 4.05 0.2 4 0.1 3.85 0 3.75 -0.25 3.65 -0.4 Z" _p="true"></path></g></g><g><path stroke="#000000" stroke-width="0.76" stroke-linejoin="round" stroke-linecap="round" fill="none" d="M-5.85 0.25 Q-5.25 0.1 -4.3 0 -3.1 -0.05 -2.8 -0.1 -1.7 -0.25 -0.6 -0.3 -0.15 -0.3 0.5 -0.2 1.25 -0.1 1.55 -0.05 1.75 -0.05 2.05 -0.15 2.35 -0.3 2.5 -0.3 3.2 -0.35 4.1 0.2" _p="true" stroke-opacity="1"></path></g><g><g><path fill="#ffffff" fill-opacity="0.4" stroke="none" d="M2.2 0.95 Q2.3 0.75 1.75 0.65 L0.85 0.7 Q0.05 0.85 0.3 1.15 0.6 1.6 1.75 1.25 2.15 1.1 2.2 0.95 Z" _p="true"></path></g></g></g><g class="c1"><g><path stroke="#988c79" stroke-opacity="1" stroke-width="0.46" stroke-linejoin="round" stroke-linecap="round" fill="none" d="M-2.8 2.2 Q-2.2 2.55 -1.3 2.75 0.45 3.15 1.85 2.3" _p="true"></path></g></g></g>
</g></g><g transform="matrix(0.79,0.028,-0.0235,0.67,178.26,82.8)" class="head"><g><g><g class="c1"><g><g><path fill="#fee9ca" fill-opacity="1" stroke="none" d="M0.1 4.25 Q0.8 4.65 2 4.5 3.4 4.3 4.05 3.65 4.5 3.3 4.5 2.7 4.55 2.4 4.3 2.1 4.1 1.7 4 1.55 2.75 1.15 1.65 1.45 0.55 1.75 -0.05 2.05 -0.35 2.25 -0.85 2.6 -1.9 3.1 0.1 4.25 Z" _p="true"></path></g></g><g><g><path fill="#ffffff" fill-opacity="0.4" stroke="none" d="M0.8 0.75 Q0.3 0.85 0.45 1.25 0.6 1.6 1 1.8 1.4 2.05 2.1 2 2.8 1.85 3.2 1.85 3.65 0.55 0.8 0.75 Z" _p="true"></path><path fill="#000000" fill-opacity="0.2" stroke="none" d="M4.5 2.7 Q4.55 2.4 4.3 2.1 4.1 1.7 4 1.55 4.15 1.85 4 2.3 3.4 3 1.65 2.65 -0.3 2.3 -0.85 2.6 -1.9 3.1 0.1 4.25 0.8 4.65 2 4.5 3.4 4.3 4.05 3.65 4.5 3.3 4.5 2.7 Z" _p="true"></path></g></g></g></g>
</g></g><g transform="matrix(0.65,0.023,-0.0261,0.75,184.01,74.66)" class="head"><g><g><g class="c20"><g><g><path fill="#f4d47a" fill-opacity="1" stroke="none" d="M-4.85 0.3 Q-4.9 0.7 -3.35 0.35 -2.5 0.15 -1.1 -0.2 1.95 -0.6 4.4 0.1 5.9 0.5 6.5 1 4 -1.4 1.3 -1.5 -1.25 -1.6 -3.2 -0.9 -4.75 -0.3 -4.85 0.3 Z" _p="true"></path></g><path stroke="#c3aa62" stroke-opacity="1" stroke-width="0.46" stroke-linejoin="round" stroke-linecap="butt" fill="none" d="M-1.1 -0.2 Q-2.5 0.15 -3.35 0.35 -4.9 0.7 -4.85 0.3 -4.75 -0.3 -3.2 -0.9 -1.25 -1.6 1.3 -1.5 4 -1.4 6.5 1 5.9 0.5 4.4 0.1 1.95 -0.6 -1.1 -0.2 Z" _p="true"></path></g></g></g>
</g></g><g transform="matrix(-0.8764,-0.0306,-0.0261,0.75,171.68,74.23)" class="head"><g><g><g class="c20"><g><g><path fill="#f4d47a" fill-opacity="1" stroke="none" d="M-4.85 0.3 Q-4.9 0.7 -3.35 0.35 -2.5 0.15 -1.1 -0.2 1.95 -0.6 4.4 0.1 5.9 0.5 6.5 1 4 -1.4 1.3 -1.5 -1.25 -1.6 -3.2 -0.9 -4.75 -0.3 -4.85 0.3 Z" _p="true"></path></g><path stroke="#c3aa62" stroke-opacity="1" stroke-width="0.46" stroke-linejoin="round" stroke-linecap="butt" fill="none" d="M-1.1 -0.2 Q-2.5 0.15 -3.35 0.35 -4.9 0.7 -4.85 0.3 -4.75 -0.3 -3.2 -0.9 -1.25 -1.6 1.3 -1.5 4 -1.4 6.5 1 5.9 0.5 4.4 0.1 1.95 -0.6 -1.1 -0.2 Z" _p="true"></path></g></g></g>
</g></g><g transform="matrix(0.81,0.028,-0.0261,0.75,169.84,89.61)" class="head"><g><g><g class="c2"><g><g><path fill="#f4d47a" fill-opacity="1" stroke="none" d="M9.45 -24.8 L9.45 -27.8 10.3 -23.85 Q11.45 -19.5 12.85 -17.5 11.2 -27.45 11.3 -30.35 16.05 -21.05 17.05 -17.35 17.25 -19.5 17.1 -21.25 L18.75 -17.4 Q19.45 -14.8 19.8 -14.1 19.8 -14.15 21.25 -16.8 22.1 -18.4 22.3 -19.55 23.65 -23.3 22.2 -27.35 20.85 -31.05 17.55 -34 14.25 -36.85 10.3 -37.85 6.05 -38.9 2.4 -37.35 -0.35 -36.2 -1.45 -32.85 -2.3 -30.3 -1.95 -27.25 -1.2 -21.75 0.75 -18.15 0.85 -18 1.85 -16.85 2.75 -15.85 2.75 -15.65 2.6 -20.85 2.9 -22.2 L4 -25.9 Q4.5 -21.95 5.6 -20.7 6.7 -19.45 8.25 -16.2 7.65 -22.95 7.6 -25.7 9.5 -18.65 10.1 -17.55 9.45 -21.85 9.45 -24.8 Z" _p="true"></path></g></g><g><g><path fill="#000000" fill-opacity="0.2" stroke="none" d="M9.45 -24.8 L9.45 -27.8 Q9.75 -26 10.3 -23.85 11.45 -19.5 12.85 -17.5 11.2 -27.45 11.3 -30.35 16.05 -21.05 17.05 -17.35 L17.05 -17.65 17.1 -17.85 17.1 -18.5 17.15 -18.95 17.15 -21.15 17 -22.25 Q18.45 -19.4 19.5 -15.65 19.6 -15.45 19.8 -14.1 21 -15.3 22.3 -19.55 23.45 -22.7 22.6 -26.1 21.8 -29.25 19.45 -32.05 19.5 -31.65 20.45 -27.65 21.1 -25 21.05 -22.95 20.5 -26.15 20.45 -26.4 20.1 -28.25 19.6 -29.4 18.95 -30.7 17.9 -31.85 16.6 -33.3 15.25 -33.7 17.3 -30.4 17.7 -29.6 19 -27 18.85 -25 18.3 -26.15 16.2 -28.55 14.05 -31 13.35 -32.45 13.6 -31 14.5 -28.75 15.6 -25.95 15.85 -25.15 15.65 -25.6 12.65 -30.6 10.75 -33.8 10.15 -36.45 10.15 -35.25 10.35 -31.7 10.5 -28.75 10.45 -27 9.55 -32.15 9.35 -34.7 8.85 -33.65 8.55 -31.7 8.35 -30.6 8.05 -28.4 7.8 -33.3 7.65 -35.8 5.6 -32.45 4 -26.55 3.5 -27.45 3.65 -29.2 3.85 -31.15 3.6 -31.85 2.6 -29.9 -0.25 -25.9 -0.05 -31.8 -0.45 -34.8 L-1.05 -33.85 -1.45 -32.85 Q-2.3 -30.3 -1.95 -27.25 -1.75 -25.5 -1.25 -23.5 L-1.15 -23.7 Q-0.65 -21 0.55 -18.6 L0.8 -18.1 Q0.9 -17.9 1.9 -16.8 2.75 -15.85 2.75 -15.65 2.6 -20.85 2.9 -22.2 L4 -25.9 Q4.5 -21.95 5.6 -20.7 6.7 -19.45 8.25 -16.2 7.65 -22.95 7.6 -25.7 9.5 -18.65 10.1 -17.55 9.45 -21.85 9.45 -24.8 Z" _p="true"></path></g></g><g><path stroke="#000000" stroke-width="0.76" stroke-linejoin="round" stroke-linecap="round" fill="none" d="M4.15 -26.6 Q4.1 -23.8 5.55 -20.9 6.35 -19.25 8.35 -16.1 7.70 -23.04 7.5 -27.35 7.4 -29.39 7.4 -30.85 M15.8 -24.05 Q16.3 -23.35 16.6 -22.45 L17.6 -20.5 Q19.5 -16.45 19.8 -14.1 21.35 -16.55 22.25 -19.8 24.05 -26.3 20.7 -30.4 M11.3 -30.85 Q16.15 -20.5 17.15 -16.65 17.3 -17.8 17.2 -19.3 17.1 -21.15 16.6 -22.45 M7.5 -27.35 Q7.65 -25.7 9 -21.2 9.35 -19.85 10.2 -17.3 9.95 -18.1 9.75 -19.8 9.55 -21.4 9.55 -22.45 9.35 -26.75 9.35 -28.85 9.6 -26.5 10.6 -23.1 11.15 -21.05 11.6 -20.05 11.9 -19.3 12.8 -17.75 M-2.05 -29.2 Q-2.05 -25.45 -1.15 -22.6 -1.05 -22.3 0.4 -18.9 1 -17.55 2.9 -15.4" _p="true" stroke-opacity="1"></path></g></g></g>
</g></g><g transform="matrix(-0.6024,0.29,0.29,0.6,121.73,109.85)" class="body"><g><g><g class="c1"><g class="tb" display="none"><g><g><path fill="#fee9ca" fill-opacity="1" stroke="none" d="M-1.3 -6.25 Q-3.9 -5.7 -5.4 -3.5 -6.45 -1.85 -6.4 0 -6.4 0.65 -6.3 1.3 -5.8 3.9 -3.55 5.35 -1.9 6.45 0 6.4 0.65 6.4 1.25 6.3 3.85 5.8 5.3 3.6 6.4 1.9 6.4 0 6.4 -0.65 6.25 -1.25 5.75 -3.85 3.55 -5.35 1.85 -6.4 0 -6.4 -0.65 -6.4 -1.3 -6.25 Z" _p="true"></path></g><path stroke="#000000" stroke-width="1.53" stroke-linejoin="miter" stroke-linecap="round" stroke-miterlimit="1" fill="none" d="M5.3 3.6 Q3.85 5.8 1.25 6.3 0.65 6.4 0 6.4 -1.9 6.45 -3.55 5.35 -5.8 3.9 -6.3 1.3 -6.4 0.65 -6.4 0 -6.45 -1.85 -5.4 -3.5 -3.9 -5.7 -1.3 -6.25 -0.65 -6.4 0 -6.4 1.85 -6.4 3.55 -5.35 5.75 -3.85 6.25 -1.25 6.4 -0.65 6.4 0 6.4 1.9 5.3 3.6 Z" _p="true" stroke-opacity="1"></path></g></g><g class="ta" transform="matrix(1,0,0,1,0,34.45)"><g><g><path fill="#fee9ca" fill-opacity="1" stroke="none" d="M-0.7 -3.35 Q-2.1 -3.05 -2.85 -1.85 -3.45 -1 -3.45 0 -3.45 0.35 -3.35 0.7 -3.05 2.1 -1.9 2.85 -1 3.45 0 3.45 0.35 3.45 0.7 3.35 2.05 3.1 2.85 1.9 3.45 1 3.4 0 3.4 -0.35 3.35 -0.65 3.05 -2.05 1.9 -2.85 1 -3.45 0 -3.4 -0.35 -3.4 -0.7 -3.35 Z" _p="true"></path></g><path stroke="#000000" stroke-width="1.53" stroke-linejoin="miter" stroke-linecap="round" stroke-miterlimit="1" fill="none" d="M2.85 1.9 Q2.05 3.1 0.7 3.35 0.35 3.45 0 3.45 -1 3.45 -1.9 2.85 -3.05 2.1 -3.35 0.7 -3.45 0.35 -3.45 0 -3.45 -1 -2.85 -1.85 -2.1 -3.05 -0.7 -3.35 -0.35 -3.4 0 -3.4 1 -3.45 1.9 -2.85 3.05 -2.05 3.35 -0.65 3.4 -0.35 3.4 0 3.45 1 2.85 1.9 Z" _p="true" stroke-opacity="1"></path></g></g><g><g><path fill="#fee9ca" fill-opacity="1" stroke="none" d="M-4.9 12 Q-4.3 15.05 -3.7 24.25 -3.45 27.65 -3.5 31.3 -3.5 34.4 -3.45 34.65 L3.4 34.9 Q3.75 33.5 4.75 18.6 4.96 15.30 5.65 9.4 6.5 2.1 6.4 -0.15 L-6.4 -0.15 Q-6.35 4.5 -4.9 12 Z" _p="true"></path></g><path stroke="#000000" stroke-width="1.53" stroke-linejoin="miter" stroke-linecap="square" stroke-miterlimit="3" fill="none" d="M-3.45 34.65 Q-3.5 34.4 -3.5 31.3 -3.45 27.65 -3.7 24.25 -4.3 15.05 -4.9 12 -6.35 4.5 -6.4 -0.15 M6.4 -0.15 Q6.5 2.1 5.65 9.42 4.96 15.30 4.75 18.6 3.75 33.5 3.4 34.9" _p="true" stroke-opacity="1"></path></g></g></g>
</g></g><g transform="matrix(-0.5273,0.3,0.3,0.53,131.85,130.61)" class="body"><g><g><g class="c1" transform="matrix(0.98,0.17,-0.17,0.98,0,0)"><g><g><path fill="#fee9ca" fill-opacity="1" stroke="none" d="M-0.75 4.7 Q-0.2 2.05 -0.75 1 -1.3 0.05 -2.95 0 -3.95 -0.05 -5.25 0.8 -6.36 1.54 -7.7 3 L-7.95 3.2 Q-9.79 5.17 -10.55 7.2 -10.60 7.43 -10.65 7.7 -10.69 7.99 -10.95 10.8 -10.78 11.48 -10.25 12.35 -8.93 13.80 -8.2 14.55 -7.34 15.02 -6.35 14.55 -5.7 14.2 -4.6 13.1 -3.8 12.3 -3.25 11.05 -2.6 9.45 -3.25 8.75 -3.6 8.45 -4.15 8.25 -4.8 8.05 -5.15 7.9 L-4.85 7.85 Q-4.6 7.75 -3.55 7.45 -2.7 7.25 -2.25 6.85 -1.05 5.95 -0.75 4.7 Z" _p="true"></path></g></g><g><path stroke="#000000" stroke-width="1.15" stroke-linejoin="round" stroke-linecap="round" fill="none" d="M-8.17 14.57 Q-8.93 13.80 -10.25 12.35 -10.44 12.13 -10.65 11.9 L-10.9 11.5 Q-10.95 11.4 -10.95 10.85 L-10.95 10.8 Q-10.69 7.99 -10.65 7.7 -10.60 7.43 -10.55 7.2 -10.25 5.7 -9.5 4.85 -7.95 3 -5.6 1.3 -3.8 0 -3.05 -0.25" _p="true" stroke-opacity="1"></path></g></g></g>
</g></g><g transform="matrix(-0.5273,0.3,0.3,0.53,131.85,130.61)" class="body"><g><g><g class="c1" transform="matrix(0.98,0.17,-0.17,0.98,0,0)"><g class="tb" display="none"><g><g><path fill="#fee9ca" fill-opacity="1" stroke="none" d="M-0.65 -3.2 Q-2 -2.9 -2.75 -1.8 -3.3 -0.95 -3.3 0 -3.3 0.3 -3.2 0.65 -2.95 2 -1.8 2.75 -0.95 3.3 0 3.3 0.3 3.3 0.65 3.2 2 2.95 2.7 1.8 3.3 0.95 3.3 0 3.3 -0.3 3.2 -0.65 2.95 -2 1.8 -2.75 0.95 -3.3 0 -3.3 -0.3 -3.3 -0.65 -3.2 Z" _p="true"></path></g><path stroke="#000000" stroke-width="1.53" stroke-linejoin="miter" stroke-linecap="round" stroke-miterlimit="1" fill="none" d="M2.7 1.8 Q2 2.95 0.65 3.2 0.3 3.3 0 3.3 -0.95 3.3 -1.8 2.75 -2.95 2 -3.2 0.65 -3.3 0.3 -3.3 0 -3.3 -0.95 -2.75 -1.8 -2 -2.9 -0.65 -3.2 -0.3 -3.3 0 -3.3 0.95 -3.3 1.8 -2.75 2.95 -2 3.2 -0.65 3.3 -0.3 3.3 0 3.3 0.95 2.7 1.8 Z" _p="true" stroke-opacity="1"></path></g></g><g><g><path fill="#fee9ca" fill-opacity="1" stroke="none" d="M0.5 18.35 Q1.45 17.75 1.85 17.5 2.3 17.3 2.95 17.6 3.7 17.9 4.05 17.8 4.4 17.7 5 17.1 5.55 16.55 5.95 16.45 6.35 16.35 7.25 16.4 8 16.25 8.65 14.85 9.1 13.7 9.15 13.3 9.15 13.1 9.05 12 7.05 2.05 2.5 -1.85 0.15 -1.95 -0.15 -1.9 -1.2 -1.75 -2.55 -0.75 -7.2 3.75 -7.95 5.75 -8.7 7.75 -8.25 12.45 -8.45 14.55 -6.95 17.9 -6.45 18.8 -6.05 19.05 -5.05 19.6 -4.05 18.75 -3.4 18.25 -2.85 17 -2.15 17.75 -0.95 18.45 -0.3 18.75 0.5 18.35 Z" _p="true"></path></g></g><g><path stroke="#988c79" stroke-opacity="1" stroke-width="0.53" stroke-linejoin="round" stroke-linecap="round" fill="none" d="M5.95 14.95 Q5.85 15.8 5.5 16.45 M1.95 15.7 Q1.85 16.8 1.6 17.7 M-2.5 15.9 Q-2.7 16.9 -2.9 17.4" _p="true"></path></g><g><path stroke="#000000" stroke-width="1.15" stroke-linejoin="round" stroke-linecap="round" fill="none" d="M-2.7 17 Q-2.75 17.11 -2.82 17.22 -1.98 18.05 -1 18.55 -0.4 18.9 0.55 18.25 1.7 17.45 2.05 17.4 2.25 17.4 2.8 17.6 3.35 17.8 3.65 17.75 4.55 17.6 5.15 17 L5.7 16.4 Q6.05 16.2 6.6 16.2 6.95 16.2 7.6 16.3 7.9 16.3 8 16.2 8.15 16.15 8.25 15.85 9.05 14.2 9.15 13.4 9.2 13.15 8.9 11.3 8.4 8.15 6.15 3.75 4.15 -0.1 2.45 -2 M-2.82 17.22 Q-3.19 17.92 -3.75 18.7 L-4.2 19.15 Q-4.5 19.35 -5.1 19.25 -6.05 19.15 -6.35 18.8 -6.55 18.65 -6.65 18.35 -7.3 17.15 -7.6 16.5 -8.05 15.4 -8.1 14.55 -8.2 9.6 -8.35 8.2" _p="true" stroke-opacity="1"></path></g></g></g>
</g></g><g transform="matrix(-0.1736,-0.9848,0.98,-0.1736,183.95,130.65)" class="body"><g></g></g><g transform="matrix(-0.866,0.5,0.5,0.87,131.85,130.61)" class="body"><g></g></g><g transform="matrix(-0.1394,-0.6556,0.66,-0.1394,161.37,135.45)" class="body"><g></g></g><g transform="matrix(-0.6024,0.29,0.29,0.6,121.73,109.85)" class="body"><g></g></g><g transform="matrix(0.8,-0.6018,0.6,0.8,173.96,230.97)" class="body"><g></g></g><g transform="matrix(0.16,0.99,-0.9877,0.16,99.25,205.88)" class="body"><g></g></g><g transform="matrix(0.66,-0.1164,0.12,0.66,167.45,194.04)" class="body"><g></g></g><g transform="matrix(0.15,0.65,-0.6531,0.15,135.79,197.45)" class="body"><g></g></g><g transform="matrix(0.95,0.33,-0.3256,0.95,158.35,124.17)" class="body"><g></g></g><g transform="matrix(1,0,0,1,172.46,70.26)" class="body"><g></g></g></g></svg>